<?xml version="1.0" encoding="UTF-8"?>
<svg version="1.1" xmlns="http://www.w3.org/2000/svg" width="1114" height="424">
<path d="M0 0 C367.62 0 735.24 0 1114 0 C1114 139.92 1114 279.84 1114 424 C746.38 424 378.76 424 0 424 C0 284.08 0 144.16 0 0 Z " fill="#FCFDFD" transform="translate(0,0)"/>
<path d="M0 0 C3.88265681 0.72799815 5.46228253 1.50231129 8 4.5625 C8.71619795 7.71030549 8.69368946 10.41199372 8 13.5625 C6.125 16.125 6.125 16.125 3 17.5625 C1.55952805 17.4497429 0.12184455 17.29915313 -1.3125 17.125 C-9.85707965 16.78220111 -16.6378903 23.55778616 -23 28.5625 C-23.58797363 29.02205078 -24.17594727 29.48160156 -24.78173828 29.95507812 C-39.54114059 41.66713055 -53.70589831 55.46978153 -65 70.5625 C-64.01 69.9025 -63.02 69.2425 -62 68.5625 C-39.8451299 54.45989002 -39.8451299 54.45989002 -27.9375 51.125 C-25.76572599 50.51523127 -25.76572599 50.51523127 -24 49.5625 C-22.67079974 46.65825344 -22.67079974 46.65825344 -22 43.5625 C-19.2303177 40.46697272 -17.07901374 39.29338757 -13 39.0625 C-8.96542976 39.26079646 -6.83556675 40.64100699 -4 43.5625 C-2.44975536 46.66298928 -2.71007985 49.14144218 -3 52.5625 C-4.79562405 55.31579021 -6.05254922 57.08877461 -9 58.5625 C-11.05859375 58.73046875 -11.05859375 58.73046875 -13.4375 58.75 C-14.21996094 58.76417969 -15.00242188 58.77835938 -15.80859375 58.79296875 C-18 58.5625 -18 58.5625 -21 56.5625 C-27.10273025 56.8011903 -31.53465211 58.40469512 -36.875 61.25 C-37.57407471 61.61303223 -38.27314941 61.97606445 -38.9934082 62.35009766 C-41.00499883 63.40437484 -43.00435489 64.47840054 -45 65.5625 C-46.38638672 66.31080078 -46.38638672 66.31080078 -47.80078125 67.07421875 C-55.0143179 71.19455311 -61.60212189 76.28200523 -68 81.5625 C-69.07338623 82.43902222 -69.07338623 82.43902222 -70.16845703 83.33325195 C-75.69819276 88.02038909 -79.82337734 92.92462756 -83.75 99 C-84.33998779 99.90250488 -84.92997559 100.80500977 -85.5378418 101.73486328 C-94.86575985 116.30127253 -102.7214003 131.68550913 -109.125 147.75 C-109.65637573 149.07427002 -109.65637573 149.07427002 -110.19848633 150.42529297 C-114.7880462 162.4775244 -116.50603342 174.2582582 -116.39111328 187.05859375 C-116.3749557 189.19335241 -116.39110512 191.32623372 -116.41015625 193.4609375 C-116.42372064 201.85154279 -115.57147588 209.52378322 -113 217.5625 C-112.77038574 218.284375 -112.54077148 219.00625 -112.30419922 219.75 C-109.47073567 228.07316887 -105.84914516 234.96551893 -100 241.5625 C-99.37738281 242.37589844 -98.75476563 243.18929687 -98.11328125 244.02734375 C-95.87345195 246.71431088 -93.5295971 248.80044521 -90.8125 251 C-89.49185547 252.08087891 -89.49185547 252.08087891 -88.14453125 253.18359375 C-55.52747286 277.85910749 -10.95742464 290.81023254 29.6875 290.6875 C30.97978516 290.69136719 32.27207031 290.69523437 33.60351562 290.69921875 C34.85197266 290.69792969 36.10042969 290.69664062 37.38671875 290.6953125 C39.07607544 290.69362061 39.07607544 290.69362061 40.79956055 290.69189453 C43.94849331 290.56458243 46.90320695 290.12663482 50 289.5625 C52.67810075 289.45053927 55.31732686 289.51624701 58 289.5625 C46.75437269 300.80812731 19.01173146 300.80788903 4.15307617 300.81347656 C-15.33593965 300.57984201 -34.35336842 295.87860231 -53 290.5625 C-43.6331571 295.01966921 -34.46038455 298.89354034 -24.4375 301.625 C-17.80049777 303.43554667 -13.37468037 305.30750242 -8.25805664 310.04614258 C-5.44690208 311.93392298 -3.60693278 312.06848705 -0.23828125 312.24609375 C0.91776611 312.30821045 2.07381348 312.37032715 3.26489258 312.43432617 C9.80320787 312.65869479 16.33322717 312.80698535 22.875 312.8125 C23.60522369 312.81317474 24.33544739 312.81384949 25.08779907 312.81454468 C48.72803233 312.78034508 72.0877396 310.61026569 95 304.5625 C95.72106934 304.37461914 96.44213867 304.18673828 97.18505859 303.99316406 C130.18700271 295.15377965 162.02116455 276.94901519 184 250.5625 C185 252.5625 185 252.5625 184.44262695 254.46679688 C184.12769287 255.23056641 183.81275879 255.99433594 183.48828125 256.78125 C183.14216797 257.63203125 182.79605469 258.4828125 182.43945312 259.359375 C181.88161133 260.69742188 181.88161133 260.69742188 181.3125 262.0625 C180.95994141 262.92359375 180.60738281 263.7846875 180.24414062 264.671875 C179.53090614 266.41388831 178.81491362 268.1547749 178.09619141 269.89453125 C176.36634018 274.10473485 174.6825199 278.33320258 173 282.5625 C192.14026351 270.9317862 192.14026351 270.9317862 204.765625 253.86328125 C204.88164063 252.72439453 204.88164063 252.72439453 205 251.5625 C204.67 251.2325 204.34 250.9025 204 250.5625 C203.59961446 246.39849038 203.55815672 244.23999304 205.875 240.6875 C208.68136685 237.88113315 210.37645498 237.34239283 214.25 237.125 C217.87897807 237.17190117 219.84479038 237.68619614 222.5625 240.125 C224.70286063 242.6528911 225.02449937 243.70214641 225.625 247.125 C224.87157338 251.26884642 224.1287823 252.73896475 221 255.5625 C219.64515194 256.122013 218.2759199 256.64722864 216.8984375 257.1484375 C211.02296258 259.68808276 207.35140027 263.86766062 203.0625 268.5 C193.53944342 278.40379037 183.31352927 286.43758972 171.62890625 293.640625 C163.6016167 298.60940241 158.24520306 304.60507306 152.37988281 311.87011719 C150.37861915 314.32460404 148.29440988 316.69847569 146.1875 319.0625 C145.54167969 319.7946875 144.89585937 320.526875 144.23046875 321.28125 C141.32541436 324.25244398 138.18910156 326.90275892 135 329.5625 C138.11795509 328.38782646 141.21588015 327.16720463 144.3125 325.9375 C145.19357422 325.60621094 146.07464844 325.27492188 146.98242188 324.93359375 C152.36198809 322.79414257 152.36198809 322.79414257 156 318.40625 C156.33 317.4678125 156.66 316.529375 157 315.5625 C159.56618149 312.71118723 160.9947162 312.56318178 164.875 312.0625 C169.64239584 312.22289836 171.73679498 314.21970461 175 317.5625 C176.60847182 320.77944364 176.61309149 324.08387222 176 327.5625 C173.82425584 330.25355198 172.08934144 332.01782928 169 333.5625 C162.74448768 334.03461414 162.74448768 334.03461414 159.4375 331.9375 C157.08696236 330.24273319 157.08696236 330.24273319 154.55859375 331.17578125 C149.53320241 333.13408413 144.58101239 335.24810401 139.625 337.375 C99.75547236 354.34051369 99.75547236 354.34051369 81.5625 360.75 C80.42965576 361.1507373 80.42965576 361.1507373 79.27392578 361.55957031 C50.19009971 371.50355091 18.48650163 360.42792229 -8 347.5625 C-11.07570092 346.0165255 -14.11275513 344.41609135 -17.125 342.75 C-17.75752686 342.40163086 -18.39005371 342.05326172 -19.04174805 341.69433594 C-23.00302112 339.40837959 -25.92526682 336.88669267 -29 333.5625 C-28.44650879 333.67843506 -27.89301758 333.79437012 -27.32275391 333.91381836 C-24.75791263 334.44787116 -22.19149603 334.97395932 -19.625 335.5 C-18.75488281 335.68240234 -17.88476562 335.86480469 -16.98828125 336.05273438 C3.84762389 340.29708542 27.06582797 340.20707168 48 336.5625 C48.93666504 336.40652344 49.87333008 336.25054687 50.83837891 336.08984375 C71.98183198 332.51462388 92.37440521 327.20248474 112.22265625 319.04296875 C115.75803895 317.60572523 119.31355248 316.54523308 123 315.5625 C123 317.5625 123 317.5625 121.63671875 318.97265625 C119.43024047 320.84307772 117.22070874 322.70896727 115 324.5625 C114.17886719 325.27019531 113.35773438 325.97789062 112.51171875 326.70703125 C96.93713502 339.88197541 76.79910226 353.19862444 56 354.5625 C56 355.2225 56 355.8825 56 356.5625 C57.64526209 356.73471435 59.29125911 356.89990831 60.9375 357.0625 C61.85402344 357.1553125 62.77054688 357.248125 63.71484375 357.34375 C64.79894531 357.4159375 65.88304687 357.488125 67 357.5625 C67.69714111 357.61921875 68.39428223 357.6759375 69.11254883 357.734375 C75.08636951 358.0211901 78.78323739 356.6882518 83.8125 353.5625 C84.84769775 352.94737549 84.84769775 352.94737549 85.90380859 352.31982422 C87.95146414 351.09085143 89.97785697 349.8329189 92 348.5625 C93.05832031 347.90507812 94.11664063 347.24765625 95.20703125 346.5703125 C112.46856193 335.43235027 128.51358854 321.92315374 141 305.5625 C142.35414787 303.83331861 143.70831319 302.10415089 145.0625 300.375 C146.04312995 299.10529546 147.02290302 297.83492533 148 296.5625 C144.91862809 298.03589163 142.08382177 299.75609842 139.1875 301.5625 C129.59643908 307.1945972 119.24787231 311.28999635 109 315.5625 C108.32195312 315.84931641 107.64390625 316.13613281 106.9453125 316.43164062 C79.77115713 327.87497939 49.15562159 330.56176288 20 331.5625 C20 332.2225 20 332.8825 20 333.5625 C10.03180788 333.85675688 0.71612971 333.09077024 -9.125 331.4375 C-9.7977597 331.32612701 -10.47051941 331.21475403 -11.16366577 331.1000061 C-40.97470695 326.12261708 -68.63405644 315.2919111 -91 294.5625 C-91.54398437 294.06234375 -92.08796875 293.5621875 -92.6484375 293.046875 C-98.41999767 287.68176273 -103.6179627 282.32826302 -108.0065918 275.76293945 C-113.74198609 267.19684018 -119.74371562 263.02182087 -128.96142578 258.58740234 C-131.03453708 257.54513633 -133.01010467 256.40627632 -134.99609375 255.20703125 C-135.62862061 254.82603271 -136.26114746 254.44503418 -136.9128418 254.05249023 C-138.64505253 253.0011937 -140.37721531 251.94981815 -142.109375 250.8984375 C-144.80496627 249.36861554 -144.80496627 249.36861554 -147.203125 249.7265625 C-149.2700236 250.63275599 -149.2700236 250.63275599 -152 252.5625 C-156.50282411 253.28767392 -159.99285654 253.16250036 -163.9375 250.8125 C-167.08726392 247.37639391 -168.28879638 244.66961226 -168.3125 240 C-168.33763672 238.85337891 -168.33763672 238.85337891 -168.36328125 237.68359375 C-168 235.5625 -168 235.5625 -166.84765625 233.8125 C-162.88259874 231.13000866 -157.56309012 232.00752958 -153 232.5625 C-149.57678142 234.41103804 -148.37839926 235.39736916 -147.18212891 239.08081055 C-146.22232006 241.71001545 -146.22232006 241.71001545 -143.84521484 242.77270508 C-142.97590332 243.03978271 -142.1065918 243.30686035 -141.2109375 243.58203125 C-140.26992187 243.88173828 -139.32890625 244.18144531 -138.359375 244.49023438 C-137.37453125 244.78220703 -136.3896875 245.07417969 -135.375 245.375 C-134.38242188 245.68630859 -133.38984375 245.99761719 -132.3671875 246.31835938 C-129.91636806 247.08424045 -127.46135183 247.83132067 -125 248.5625 C-125.26844727 247.90733398 -125.53689453 247.25216797 -125.81347656 246.57714844 C-132.65981866 229.70026344 -132.65981866 229.70026344 -132 221.5625 C-132.83789062 221.32917969 -133.67578125 221.09585938 -134.5390625 220.85546875 C-138.58900972 219.34245235 -141.82150783 217.30077234 -145.375 214.875 C-146.03765869 214.43019287 -146.70031738 213.98538574 -147.38305664 213.52709961 C-151.6457026 210.62129736 -155.45672645 207.46798061 -159.234375 203.953125 C-161.68600089 202.02219842 -164.22480805 201.18200019 -167.171875 200.2421875 C-170.62749667 198.95740509 -173.35347696 196.85554609 -175 193.5625 C-175.55275105 190.03871208 -175.67346061 187.62196853 -173.71875 184.546875 C-171.39509333 181.94860436 -169.3698543 179.95163328 -165.96484375 178.984375 C-160.93594817 178.71306657 -157.76555004 180.42454163 -154 183.5625 C-151.91037764 186.69693354 -151.74632446 187.43253692 -151.8125 191 C-151.81894531 191.76183594 -151.82539063 192.52367187 -151.83203125 193.30859375 C-151.99548229 195.50187857 -152.39883487 197.45120807 -153 199.5625 C-147.50650211 203.37742909 -142.04907673 206.70293646 -136 209.5625 C-136.16870605 208.92062744 -136.33741211 208.27875488 -136.51123047 207.61743164 C-139.49297728 195.55400507 -141.21429962 183.26802016 -143.125 171 C-143.66365956 167.56177311 -144.20364655 164.1237636 -144.74557495 160.68605042 C-145.08048397 158.55954277 -145.41335354 156.43271267 -145.743927 154.30552673 C-145.96953812 152.86736351 -145.96953812 152.86736351 -146.19970703 151.40014648 C-146.33055695 150.55999496 -146.46140686 149.71984344 -146.59622192 148.85423279 C-146.72946869 148.09796097 -146.86271545 147.34168915 -147 146.5625 C-147.12349823 145.83237198 -147.24699646 145.10224396 -147.37423706 144.34999084 C-148.40819412 141.39649415 -151.28982994 140.89101474 -154 139.5625 C-157.05644768 136.74735082 -158.26898845 134.65140442 -158.5 130.5625 C-158.30170354 126.52792976 -156.92149301 124.39806675 -154 121.5625 C-150.47282386 119.79891193 -146.73435121 120.64822781 -143 121.5625 C-139.9375 123.5625 -139.9375 123.5625 -138 126.5625 C-137.44071401 130.37222455 -137.2542316 134.07096319 -139 137.5625 C-139.96882859 146.28661512 -137.77967456 154.83018087 -136 163.3125 C-135.5677516 165.39396463 -135.13848958 167.47590581 -134.71606445 169.55938721 C-134.33438669 171.43908668 -133.94288071 173.31678274 -133.55078125 175.19433594 C-133.02829353 178.38947801 -132.89656554 181.33263589 -133 184.5625 C-132.34 184.5625 -131.68 184.5625 -131 184.5625 C-130.814375 182.6134375 -130.814375 182.6134375 -130.625 180.625 C-130.27201868 177.356086 -129.73061139 174.25182025 -128.9375 171.0625 C-127.61011162 165.36661704 -127.63171075 160.02162823 -128.49609375 154.25 C-130.69209128 137.17200294 -130.55005728 117.17924632 -126 100.5625 C-125.66210449 99.3257251 -125.66210449 99.3257251 -125.31738281 98.06396484 C-123.26953613 90.72517835 -121.18421796 83.40979922 -118.28125 76.359375 C-116.92074286 72.80531581 -116.89792337 70.17310009 -117.5 66.375 C-118.2490434 61.61233239 -117.84707807 59.49255753 -115 55.5625 C-113.08166756 53.3490395 -111.84167666 52.63040262 -108.91796875 52.39453125 C-104.74303165 52.58146873 -101.83491163 53.1042388 -98.9375 56.25 C-96.81264355 59.88281909 -96.29971146 61.44830483 -97 65.5625 C-98.47736257 69.09175503 -99.66139799 70.35357535 -102.9375 72.375 C-106 73.5625 -106 73.5625 -110 73.5625 C-110.25394531 74.6246875 -110.50789063 75.686875 -110.76953125 76.78125 C-111.47715007 79.69909841 -112.19043422 82.6153693 -112.921875 85.52734375 C-113.09041992 86.20144287 -113.25896484 86.87554199 -113.43261719 87.57006836 C-114.19682249 90.25366537 -115.22735543 92.800874 -116.27734375 95.3828125 C-120.53251714 108.21733548 -121.15880899 121.73805004 -121.0625 135.125 C-121.05798828 136.32447266 -121.05347656 137.52394531 -121.04882812 138.75976562 C-121.03713769 141.69406359 -121.02075138 144.62825449 -121 147.5625 C-120.65388672 146.65371094 -120.65388672 146.65371094 -120.30078125 145.7265625 C-117.86819584 139.47683714 -115.11442782 133.50001323 -112 127.5625 C-111.52723633 126.66112305 -111.05447266 125.75974609 -110.56738281 124.83105469 C-103.19764013 111.05326034 -94.41301452 97.88178746 -84.015625 86.19921875 C-83.47873047 85.58981445 -82.94183594 84.98041016 -82.38867188 84.35253906 C-81.32794121 83.15336977 -80.25689914 81.96321053 -79.17382812 80.78417969 C-73.61148776 74.5093679 -71.92754446 68.22478467 -70.6875 60 C-68.50614941 47.27022923 -63.30859139 36.43684882 -56.44140625 25.5859375 C-54.80149534 22.14612438 -54.90578707 21.1086665 -56 17.5625 C-56.94482875 8.80258773 -56.94482875 8.80258773 -54 4.9375 C-50.21634762 3.20332599 -47.04194499 2.66253569 -43 3.5625 C-40.20371581 4.92448325 -39.14150282 6.10760652 -37 8.5625 C-35.875 12 -35.875 12 -36 15.5625 C-37.97938467 19.30919241 -39.47016053 21.20927369 -43 23.5625 C-45.6875 23.6875 -45.6875 23.6875 -48 23.5625 C-48.24878906 24.22894531 -48.49757813 24.89539063 -48.75390625 25.58203125 C-49.70757033 27.86305224 -50.70879519 30.00806046 -51.83984375 32.19921875 C-52.18080078 32.85986328 -52.52175781 33.52050781 -52.87304688 34.20117188 C-53.57386618 35.55008829 -54.27948004 36.89652627 -54.99023438 38.24023438 C-57.69444256 43.51114864 -59.45261037 48.85047635 -61 54.5625 C-60.55720703 54.14476318 -60.11441406 53.72702637 -59.65820312 53.29663086 C-57.60685083 51.36294849 -55.55343683 49.43146851 -53.5 47.5 C-52.45585937 46.51483398 -52.45585937 46.51483398 -51.390625 45.50976562 C-44.21663095 38.76753973 -36.82905288 32.33128467 -29.1875 26.125 C-28.49897949 25.56224365 -27.81045898 24.9994873 -27.10107422 24.41967773 C-22.24475115 20.4809114 -17.28177283 16.85471162 -12.0390625 13.44140625 C-9.45026983 11.05594787 -8.9624951 8.90474216 -8 5.5625 C-5.45724792 2.31342789 -4.09295612 0.76742927 0 0 Z " fill="#193F71" transform="translate(224,20.4375)"/>
<path d="M0 0 C2.75329021 1.79562405 4.52627461 3.05254922 6 6 C6.53252058 9.99390436 6.35389756 11.51741242 3.9375 14.8125 C0.52655584 17.3525648 -1.80230628 17.75307684 -6 18 C-6.28875 18.721875 -6.5775 19.44375 -6.875 20.1875 C-7.59635595 21.99088987 -8.34421055 23.78403514 -9.125 25.5625 C-10.22524317 28.19583084 -10.22524317 28.19583084 -10 32 C-8.93023926 32.20979492 -8.93023926 32.20979492 -7.83886719 32.42382812 C30.48581624 40.07646154 56.80559396 55.38506191 84 83 C84 75.57310658 80.13563898 67.34984438 75.53125 61.49609375 C71.65638568 57.71019315 66.68730646 55.42370473 61.94287109 52.91015625 C53.08839137 48.20832153 44.97889798 43.87123977 37.84765625 36.71484375 C36.01227297 34.77432354 36.01227297 34.77432354 33 34 C31.741875 34.2475 30.48375 34.495 29.1875 34.75 C26.66760934 35.12658883 25.4475204 35.23912571 23.1796875 34.02734375 C19.65547168 31.10752243 18.14677791 29.27207521 17.625 24.75 C18.11927296 19.80727042 19.53828301 18.46171699 23 15 C25.86608129 13.56695936 27.81300783 13.69355845 31 14 C34.6578218 16.03993908 36.66946174 17.50419262 39 21 C39.04438705 22.56186941 39.03923409 24.12549266 39 25.6875 C39.4326029 30.0835089 40.41328222 32.09516236 43.75 35 C49.75734405 39.3033796 56.49460416 42.28381291 63.24707031 45.23632812 C77.62909994 51.65087344 84.88369917 60.49857108 90.703125 74.828125 C91.71023344 77.29129383 92.76505389 79.64661213 94 82 C97.34800798 77.95449036 97.56368165 74.21030854 97.4140625 69.1640625 C96.23298793 60.13887004 92.35548493 48.74023402 86 42 C83.64932942 41.07856989 81.55396115 40.70979482 79.0546875 40.3984375 C77 40 77 40 74.5 37.8125 C72.6301453 34.30652243 71.92994964 31.99287058 72 28 C73.72125798 24.97085701 75.84165539 22.5791723 79 21 C83.99691647 20.62287423 86.99067725 20.90709388 91 24 C93.09740836 27.14611253 93.25328219 27.91188078 93.1875 31.5 C93.18105469 32.2734375 93.17460937 33.046875 93.16796875 33.84375 C93 36 93 36 92 39 C93.10452462 41.50239183 94.26791535 43.84882319 95.5625 46.25 C98.43832032 51.78612844 101.11525569 57.33291191 103.4375 63.125 C103.91058594 64.30320312 104.38367188 65.48140625 104.87109375 66.6953125 C106.95787258 72.80401455 107.13276318 78.49726494 107.0625 84.875 C107.05798828 85.65875 107.05347656 86.4425 107.04882812 87.25 C107.03714093 89.16670014 107.01920908 91.08336048 107 93 C101.06 90.03 101.06 90.03 95 87 C93.9721792 95.33676868 95.73064586 100.02950426 100.15917969 106.89355469 C112.19436639 125.59323766 118.6553348 146.36579533 123 168 C123.19980469 168.99386719 123.39960938 169.98773438 123.60546875 171.01171875 C123.73566406 171.66785156 123.86585938 172.32398438 124 173 C129.74087228 153.44515378 128.62643959 136.28090411 124.6875 116.5 C124.53324554 115.71989563 124.37899109 114.93979126 124.22006226 114.13604736 C123.76884478 111.88957545 123.3007148 109.64748411 122.82421875 107.40625 C122.61768677 106.39653641 122.61768677 106.39653641 122.40698242 105.36642456 C121.3351994 100.51322619 119.70511281 96.83141746 116.3125 93.1875 C114.33851743 89.89752905 114.19137535 86.67159303 115 83 C117.4375 80.0625 117.4375 80.0625 120 78 C120.33 77.67 120.66 77.34 121 77 C126.68495163 76.4426518 129.57083191 77.41448297 134 81 C135.73658429 84.47316857 135.60094854 88.21141136 135 92 C132.625 95.0625 132.625 95.0625 130 97 C129.34 97 128.68 97 128 97 C128.20681396 97.97235596 128.41362793 98.94471191 128.62670898 99.9465332 C129.40279978 103.60373014 130.17046945 107.26265482 130.93579102 110.92211914 C131.26622936 112.49648501 131.59885689 114.07039324 131.93383789 115.64379883 C134.47271738 127.57918896 136.18902159 139.07370539 136.125 151.3125 C136.12886719 152.07111328 136.13273438 152.82972656 136.13671875 153.61132812 C136.12936385 157.85142667 135.83655245 161.82387705 135 166 C136.62683052 164.06401165 138.25151469 162.12629031 139.875 160.1875 C140.33519531 159.64029297 140.79539062 159.09308594 141.26953125 158.52929688 C145.65864649 153.28144169 147.19826106 151.01047106 146.8125 144.125 C146.74351021 137.44678866 146.74351021 137.44678866 148.9375 133.625 C153.0903286 131.42145829 156.39954006 130.96509864 161 132 C164.06400322 133.73265879 166.40133917 135.80267833 168 139 C168.46688609 143.12416051 168.53279053 145.23633357 166.125 148.6875 C163.24766183 150.81673025 161.49823776 151.55883021 158.1875 152.625 C152.54556256 154.70536041 150.37223659 158.01819656 147.12890625 162.92578125 C144.80849802 166.27653589 142.2687345 169.20822434 139.5 172.1875 C139.0349707 172.69676025 138.56994141 173.20602051 138.09082031 173.73071289 C135.99721797 175.99290532 133.88336292 178.097718 131.51953125 180.078125 C127.98218889 183.05825768 126.19134717 184.67587756 125.51171875 189.37890625 C125.50120406 192.62794604 125.64569743 195.77190989 126 199 C137.5198752 194.05208768 137.5198752 194.05208768 145.140625 184.6640625 C146 183 146 183 149 181 C154.35536444 180.56811577 157.6277173 180.55517121 162 184 C163.73631636 187.47263273 163.60190402 191.21193013 163 195 C160.81840855 197.75569447 159.12822506 199.43588747 156 201 C151.89106301 201.26797415 149.61271876 200.80635938 146 199 C143.03766264 199.4924395 140.75772353 200.56075752 138.1796875 202.06640625 C137.47972656 202.46923828 136.77976562 202.87207031 136.05859375 203.28710938 C135.33800781 203.70798828 134.61742187 204.12886719 133.875 204.5625 C132.43715913 205.40102843 130.99715167 206.23585618 129.5546875 207.06640625 C128.92030762 207.43709229 128.28592773 207.80777832 127.63232422 208.18969727 C126 209 126 209 124 209 C123.97421875 209.65484375 123.9484375 210.3096875 123.921875 210.984375 C123.13825968 223.59345786 119.60281083 232.73216926 111 242 C109.700625 243.43666016 109.700625 243.43666016 108.375 244.90234375 C90.27204085 264.32285369 65.04083176 276.28605054 40 284 C39.22720703 284.25491211 38.45441406 284.50982422 37.65820312 284.77246094 C30.90384118 286.93787786 24.13406738 288.10028255 17.125 289.125 C16.03058594 289.29386719 14.93617188 289.46273438 13.80859375 289.63671875 C3.29440221 291.21695819 -7.11518234 292.18006176 -17.75 292.0625 C-18.9565625 292.05573242 -18.9565625 292.05573242 -20.1875 292.04882812 C-22.12503404 292.03729518 -24.06252851 292.01937471 -26 292 C-26 291.34 -26 290.68 -26 290 C-25.18716553 289.74476563 -25.18716553 289.74476563 -24.35791016 289.484375 C-7.0751737 284.01096257 8.9377223 277.29542706 24.89501953 268.71166992 C30.1711315 265.89439671 35.50869535 263.36751219 41 261 C53.99385182 255.36478674 67.29212313 249.42578075 78 240 C78.57105469 239.58105469 79.14210938 239.16210938 79.73046875 238.73046875 C93.21976699 228.51317421 99.49399524 211.90849659 103 196 C103.20625 195.24976563 103.4125 194.49953125 103.625 193.7265625 C111.44770176 162.76170136 98.1143269 128.43826401 83 102 C82.38125 100.90945312 81.7625 99.81890625 81.125 98.6953125 C64.80079022 71.61909916 38.47874909 50.93830529 8.1875 42.1875 C1.44071616 40.63054988 -7.44629383 39.01762511 -13.66796875 42.48828125 C-14.43753906 42.98714844 -15.20710938 43.48601562 -16 44 C-19 44.5 -19 44.5 -22 44 C-25.32274404 41.54405875 -26.77618008 40.0743356 -27.625 36 C-26.78466773 31.9664051 -25.18604761 30.54883809 -22 28 C-21.175 27.7525 -20.35 27.505 -19.5 27.25 C-15.24188707 25.12094353 -13.4940508 21.41221812 -12 17 C-11.81769414 13.90109143 -11.81769414 13.90109143 -12 10.75 C-12.22697368 5.3576555 -12.22697368 5.3576555 -9.9375 1.75 C-6.22835396 -0.45970402 -4.25337364 -0.68357791 0 0 Z " fill="#19A1A6" transform="translate(285,34)"/>
<path d="M0 0 C2.72319602 1.54664277 4.42846975 3.29578191 6 6 C6.71078919 10.05149841 6.49849845 12.06802464 4.5625 15.6875 C2.11436112 17.89679607 0.88253024 18.50014959 -2.1015625 19.5859375 C-7.97703742 22.12558276 -11.64859973 26.30516062 -15.9375 30.9375 C-25.46055658 40.84129037 -35.68647073 48.87508972 -47.37109375 56.078125 C-55.3983833 61.04690241 -60.75479694 67.04257306 -66.62011719 74.30761719 C-68.62138085 76.76210404 -70.70559012 79.13597569 -72.8125 81.5 C-73.45832031 82.2321875 -74.10414063 82.964375 -74.76953125 83.71875 C-77.67458564 86.68994398 -80.81089844 89.34025892 -84 92 C-80.88204491 90.82532646 -77.78411985 89.60470463 -74.6875 88.375 C-73.80642578 88.04371094 -72.92535156 87.71242188 -72.01757812 87.37109375 C-66.63801191 85.23164257 -66.63801191 85.23164257 -63 80.84375 C-62.67 79.9053125 -62.34 78.966875 -62 78 C-59.43381851 75.14868723 -58.0052838 75.00068178 -54.125 74.5 C-49.35760416 74.66039836 -47.26320502 76.65720461 -44 80 C-42.39152818 83.21694364 -42.38690851 86.52137222 -43 90 C-45.17574416 92.69105198 -46.91065856 94.45532928 -50 96 C-56.25551232 96.47211414 -56.25551232 96.47211414 -59.5625 94.375 C-61.91303764 92.68023319 -61.91303764 92.68023319 -64.44140625 93.61328125 C-69.46679759 95.57158413 -74.41898761 97.68560401 -79.375 99.8125 C-119.24452764 116.77801369 -119.24452764 116.77801369 -137.4375 123.1875 C-138.19272949 123.4546582 -138.94795898 123.72181641 -139.72607422 123.99707031 C-168.80990029 133.94105091 -200.51349837 122.86542229 -227 110 C-230.07570092 108.4540255 -233.11275513 106.85359135 -236.125 105.1875 C-236.75752686 104.83913086 -237.39005371 104.49076172 -238.04174805 104.13183594 C-242.00302112 101.84587959 -244.92526682 99.32419267 -248 96 C-247.44650879 96.11593506 -246.89301758 96.23187012 -246.32275391 96.35131836 C-243.75791263 96.88537116 -241.19149603 97.41145932 -238.625 97.9375 C-237.75488281 98.11990234 -236.88476562 98.30230469 -235.98828125 98.49023438 C-215.15237611 102.73458542 -191.93417203 102.64457168 -171 99 C-169.59500244 98.76603516 -169.59500244 98.76603516 -168.16162109 98.52734375 C-147.01816802 94.95212388 -126.62559479 89.63998474 -106.77734375 81.48046875 C-103.24196105 80.04322523 -99.68644752 78.98273308 -96 78 C-96 80 -96 80 -97.36328125 81.41015625 C-99.56975953 83.28057772 -101.77929126 85.14646727 -104 87 C-104.82113281 87.70769531 -105.64226562 88.41539062 -106.48828125 89.14453125 C-122.06286498 102.31947541 -142.20089774 115.63612444 -163 117 C-163 117.66 -163 118.32 -163 119 C-161.35473791 119.17221435 -159.70874089 119.33740831 -158.0625 119.5 C-157.14597656 119.5928125 -156.22945313 119.685625 -155.28515625 119.78125 C-154.20105469 119.8534375 -153.11695313 119.925625 -152 120 C-150.95428833 120.08507812 -150.95428833 120.08507812 -149.88745117 120.171875 C-143.91363049 120.4586901 -140.21676261 119.1257518 -135.1875 116 C-134.49736816 115.58991699 -133.80723633 115.17983398 -133.09619141 114.75732422 C-131.04853586 113.52835143 -129.02214303 112.2704189 -127 111 C-125.41251953 110.01386719 -125.41251953 110.01386719 -123.79296875 109.0078125 C-106.53143807 97.86985027 -90.48641146 84.36065374 -78 68 C-76.64585213 66.27081861 -75.29168681 64.54165089 -73.9375 62.8125 C-72.95687005 61.54279546 -71.97709698 60.27242533 -71 59 C-74.08137191 60.47339163 -76.91617823 62.19359842 -79.8125 64 C-89.40356092 69.6320972 -99.75212769 73.72749635 -110 78 C-111.01707031 78.43022461 -111.01707031 78.43022461 -112.0546875 78.86914062 C-132.22588496 87.363456 -155.2595869 91.2388812 -177 93 C-178.00772461 93.08443359 -179.01544922 93.16886719 -180.05371094 93.25585938 C-183.40937874 93.51893265 -186.76519063 93.73461883 -190.125 93.9375 C-191.19266602 94.01959717 -192.26033203 94.10169434 -193.36035156 94.1862793 C-198.41765441 94.4380238 -201.99033402 94.52862329 -206.2421875 91.56640625 C-207.15226562 90.71949219 -208.06234375 89.87257813 -209 89 C-209 88.67 -209 88.34 -209 88 C-208.43531006 88.02094727 -207.87062012 88.04189453 -207.28881836 88.06347656 C-194.26508938 88.47375454 -181.59001046 87.8724749 -168.6875 86.1875 C-167.39642334 86.02217773 -166.10534668 85.85685547 -164.77514648 85.68652344 C-158.15112096 84.77381308 -151.79506032 83.56350126 -145.37573242 81.68969727 C-142.21920443 80.77332777 -139.01937295 80.09246988 -135.8125 79.375 C-118.75698073 75.26716722 -102.41759689 68.27718911 -87 60 C-86.04609375 59.52304687 -85.0921875 59.04609375 -84.109375 58.5546875 C-70.33016065 51.64277301 -70.33016065 51.64277301 -60 41 C-59.236875 40.566875 -58.47375 40.13375 -57.6875 39.6875 C-54.71235274 37.81938428 -53.07050923 35.80997681 -51 33 C-50.67 32.67 -50.34 32.34 -50 32 C-50.99 31.01 -50.99 31.01 -52 30 C-51.27554688 29.35933594 -50.55109375 28.71867187 -49.8046875 28.05859375 C-44.49081364 23.30444793 -39.47960774 18.56924205 -35 13 C-34 15 -34 15 -34.55737305 16.90429688 C-35.02977417 18.04995117 -35.02977417 18.04995117 -35.51171875 19.21875 C-35.85783203 20.06953125 -36.20394531 20.9203125 -36.56054688 21.796875 C-36.93244141 22.68890625 -37.30433594 23.5809375 -37.6875 24.5 C-38.04005859 25.36109375 -38.39261719 26.2221875 -38.75585938 27.109375 C-39.46909386 28.85138831 -40.18508638 30.5922749 -40.90380859 32.33203125 C-42.63365982 36.54223485 -44.3174801 40.77070258 -46 45 C-26.85973649 33.3692862 -26.85973649 33.3692862 -14.234375 16.30078125 C-14.15703125 15.54152344 -14.0796875 14.78226562 -14 14 C-14.33 13.67 -14.66 13.34 -15 13 C-15.40038554 8.83599038 -15.44184328 6.67749304 -13.125 3.125 C-9.27636758 -0.72363242 -5.23892212 -0.91264305 0 0 Z " fill="#1E9FAE" transform="translate(443,258)"/>
<path d="M0 0 C0.33 25.08 0.66 50.16 1 76 C12.59834045 80.21519957 12.59834045 80.21519957 24.375 83.25 C25.10332031 83.40984375 25.83164063 83.5696875 26.58203125 83.734375 C65.14949171 91.98409916 105.44103225 82.65512483 140 65 C135.17354687 78.90715103 119.22870389 92.43585327 107 100 C105.51693359 100.96679688 105.51693359 100.96679688 104.00390625 101.953125 C80.81497242 116.26525848 52.60694147 120.50213475 26 115 C9.62210408 110.89529216 -5.45946163 103.38761791 -18 92 C-19.44632813 90.71029297 -19.44632813 90.71029297 -20.921875 89.39453125 C-35.60060025 75.82226609 -45.29142865 58.08190379 -47 38 C-47.12763855 34.32488995 -47.13255256 30.67465148 -47 27 C-44.48151086 29.51848914 -43.4978879 32.07547784 -42 35.3125 C-36.76895438 46.15930983 -29.52817555 54.47182445 -21 63 C-20.67 42.87 -20.34 22.74 -20 2 C-15.05 1.67 -10.1 1.34 -5 1 C-3 0 -3 0 0 0 Z " fill="#1A4770" transform="translate(205,187)"/>
<path d="M0 0 C2.14944049 0.78612368 3.72876072 1.71863305 5.58886719 3.04760742 C6.59747803 3.76291626 6.59747803 3.76291626 7.62646484 4.49267578 C8.34108887 5.00967041 9.05571289 5.52666504 9.79199219 6.05932617 C10.53626465 6.59114502 11.28053711 7.12296387 12.04736328 7.67089844 C18.59018802 12.36790414 25.03734467 17.19074004 31.45605469 22.05541992 C34.93777498 24.68721891 38.48036255 27.22438667 42.04199219 29.74682617 C42.04199219 24.13682617 42.04199219 18.52682617 42.04199219 12.74682617 C49.30199219 12.74682617 56.56199219 12.74682617 64.04199219 12.74682617 C64.04199219 23.96682617 64.04199219 35.18682617 64.04199219 46.74682617 C65.36199219 47.40682617 66.68199219 48.06682617 68.04199219 48.74682617 C69.32287542 49.57997665 70.5868096 50.43961437 71.83496094 51.32104492 C72.54402588 51.82079834 73.25309082 52.32055176 73.98364258 52.83544922 C74.72477295 53.36307861 75.46590332 53.89070801 76.22949219 54.43432617 C76.98673584 54.97162354 77.74397949 55.5089209 78.52416992 56.0625 C90.31457478 64.46542452 90.31457478 64.46542452 94.04199219 67.74682617 C94.04199219 68.07682617 94.04199219 68.40682617 94.04199219 68.74682617 C55.25922539 71.25747031 55.25922539 71.25747031 43.28808594 61.36206055 C41.90168116 60.14113829 40.53214159 58.90079678 39.18017578 57.6418457 C35.31917028 54.21993149 30.9939893 51.44879582 26.72949219 48.55932617 C25.06411137 47.39770938 23.40127904 46.23242903 21.74121094 45.06323242 C20.95020996 44.50651855 20.15920898 43.94980469 19.34423828 43.3762207 C17.16004045 41.8303738 14.98366744 40.27439683 12.81152344 38.71166992 C12.16932861 38.24978271 11.52713379 37.78789551 10.86547852 37.31201172 C9.69264933 36.46611122 8.521747 35.61752929 7.35327148 34.765625 C4.66672195 32.82433565 2.02329036 31.18492032 -0.95800781 29.74682617 C-2.68442334 30.96547243 -4.41083123 32.1841295 -6.13720703 33.40283203 C-7.66605259 34.48194908 -9.19502774 35.56088254 -10.72412109 36.63964844 C-14.55374746 39.34178843 -18.38180975 42.04603762 -22.20410156 44.75854492 C-56.47540268 69.05714421 -56.47540268 69.05714421 -65.56347656 68.94213867 C-66.40268143 68.93930878 -67.24188629 68.93647888 -68.10652161 68.93356323 C-70.78632885 68.92237002 -73.46580162 68.89726718 -76.14550781 68.87182617 C-77.96256028 68.86179525 -79.77961798 68.8526696 -81.59667969 68.84448242 C-86.05058456 68.82243352 -90.50423948 68.78790968 -94.95800781 68.74682617 C-92.16129932 65.87921182 -89.43235265 63.19280764 -86.16503906 60.87182617 C-85.46193604 60.36852783 -84.75883301 59.86522949 -84.03442383 59.34667969 C-83.28733154 58.81872803 -82.54023926 58.29077637 -81.77050781 57.74682617 C-80.15065304 56.5893624 -78.53086316 55.43180781 -76.91113281 54.27416992 C-75.67459961 53.39414307 -75.67459961 53.39414307 -74.41308594 52.49633789 C-70.60466143 49.78241884 -66.81180935 47.04709261 -63.02050781 44.30932617 C-62.28453369 43.77847412 -61.54855957 43.24762207 -60.7902832 42.70068359 C-54.42618535 38.10281795 -48.1082726 33.44357218 -41.7956543 28.77539062 C-36.53784489 24.89306026 -31.23538173 21.08136297 -25.90039062 17.30615234 C-20.7884495 13.66846122 -15.83459906 9.8415035 -10.89550781 5.97338867 C-2.5754815 -0.33301425 -2.5754815 -0.33301425 0 0 Z " fill="#19587A" transform="translate(257.9580078125,118.253173828125)"/>
<path d="M0 0 C2.00788324 -0.0171058 4.01548051 -0.06098558 6.02294922 -0.10522461 C17.06432724 -0.17663651 26.56659894 1.42133656 34.74951172 9.31860352 C39.3772971 14.82839035 41.06937535 20.60931895 40.72607422 27.75219727 C39.74315208 35.65197889 37.31998891 42.74342103 31.40966797 48.29516602 C23.1054717 53.68056062 14.74382623 55.62327415 4.97216797 55.42016602 C2.14654297 55.37891602 -0.67908203 55.33766602 -3.59033203 55.29516602 C-3.59033203 64.20516602 -3.59033203 73.11516602 -3.59033203 82.29516602 C-8.21033203 82.29516602 -12.83033203 82.29516602 -17.59033203 82.29516602 C-17.59033203 55.56516602 -17.59033203 28.83516602 -17.59033203 1.29516602 C-11.66231418 0.10956245 -6.03021507 0.03564301 0 0 Z " fill="#111F4C" transform="translate(527.59033203125,148.704833984375)"/>
<path d="M0 0 C3.37495058 0.02428022 5.14420406 0.59958588 7.75 2.75 C10.70340674 5.77544105 11.20868218 6.47524558 11.6875 10.625 C11.30996085 14.40039146 10.60620938 16.42381161 8.0078125 19.22265625 C5.31731098 21.05145337 2.68829233 21.15335071 -0.50390625 21.26953125 C-2.76833934 21.37890458 -4.53991476 21.64434879 -6.6875 22.375 C-8.60193328 24.73831438 -10.27661448 27.03072619 -11.9375 29.5625 C-12.66211426 30.65171753 -12.66211426 30.65171753 -13.40136719 31.76293945 C-14.84651198 33.95675352 -16.26898332 36.16390236 -17.6875 38.375 C-18.07550781 38.96539062 -18.46351563 39.55578125 -18.86328125 40.1640625 C-34.41749189 64.03270573 -37.1280294 92.74582063 -31.63696289 120.26123047 C-30.61344857 124.98024675 -29.54798366 129.68547583 -28.40771484 134.37768555 C-27.75899874 137.07744405 -27.17492266 139.78190871 -26.609375 142.5 C-25.1683029 148.5573878 -22.03080565 152.11347207 -17.6875 156.375 C-17.96464844 155.49457031 -18.24179688 154.61414063 -18.52734375 153.70703125 C-19.07068359 151.96486328 -19.07068359 151.96486328 -19.625 150.1875 C-19.98464844 149.03894531 -20.34429687 147.89039063 -20.71484375 146.70703125 C-22.36920275 141.03968897 -22.7869465 136.24234373 -22.6875 130.375 C-20.15073785 133.43028272 -18.44969038 136.68591087 -16.68261719 140.21191406 C-9.95965265 153.56992294 -0.79684689 163.56243762 9.82617188 173.92089844 C12.00664959 176.05409904 14.15953757 178.21406364 16.3125 180.375 C9.97769961 179.19940275 4.34927606 177.37180504 -1.5 174.6875 C-2.28334717 174.33155762 -3.06669434 173.97561523 -3.8737793 173.60888672 C-19.63857376 166.32983747 -33.78721906 157.04466125 -44.6875 143.375 C-45.51507813 142.35212891 -45.51507813 142.35212891 -46.359375 141.30859375 C-58.67625039 124.5792295 -61.0203769 101.28135251 -58.17578125 81.23828125 C-57.93408203 79.82095703 -57.93408203 79.82095703 -57.6875 78.375 C-57.0275 78.705 -56.3675 79.035 -55.6875 79.375 C-55.1953125 81.71875 -55.1953125 81.71875 -54.8125 84.875 C-53.03490834 97.46971919 -49.85996897 109.51163181 -45.640625 121.49609375 C-44.6875 124.375 -44.6875 124.375 -44.6875 126.375 C-44.0275 126.375 -43.3675 126.375 -42.6875 126.375 C-42.98398438 125.51261719 -43.28046875 124.65023437 -43.5859375 123.76171875 C-47.06695914 113.05942881 -47.99324364 102.97491761 -48.0625 91.75 C-48.07619629 90.63085205 -48.08989258 89.5117041 -48.10400391 88.35864258 C-48.04492296 77.45182053 -46.23017653 67.05922583 -41.0625 57.375 C-40.711875 56.70404297 -40.36125 56.03308594 -40 55.34179688 C-32.9612028 42.17525247 -24.06743731 32.23483208 -13.35400391 21.97802734 C-11.77856796 20.46259921 -10.22789467 18.92594934 -8.6875 17.375 C-9.1825 15.89 -9.1825 15.89 -9.6875 14.375 C-10.19224898 9.15926052 -10.19224898 9.15926052 -9.6875 6.375 C-7.25 3.4375 -7.25 3.4375 -4.6875 1.375 C-3.6875 0.375 -3.6875 0.375 0 0 Z " fill="#1A4974" transform="translate(170.6875,110.625)"/>
<path d="M0 0 C14 0 14 0 17.83203125 3.6796875 C18.87603816 5.38148106 19.86701581 7.11655995 20.8125 8.875 C21.96193366 10.79523428 23.11305736 12.71445766 24.265625 14.6328125 C24.86052734 15.66051758 25.45542969 16.68822266 26.06835938 17.74707031 C28.11284373 21.19003158 30.26835782 24.53339574 32.484375 27.8671875 C32.86522751 28.44068939 33.24608002 29.01419128 33.63847351 29.60507202 C34.40345869 30.75545449 35.16893302 31.90551184 35.93490601 33.05523682 C37.72998725 35.75322707 39.51113094 38.45999723 41.28515625 41.171875 C41.88207275 42.0803418 42.47898926 42.98880859 43.09399414 43.92480469 C45.53676386 47.86602762 47.7481474 51.94666533 50 56 C50 37.52 50 19.04 50 0 C54.29 0 58.58 0 63 0 C63 26.07 63 52.14 63 79 C58.71 79 54.42 79 50 79 C46.55427675 75.26254101 44.48737754 72.31696152 42 68 C40.76073271 66.09842598 39.49030332 64.22015053 38.21737671 62.3409729 C36.38705082 59.63097866 34.59899641 56.89409829 32.80883789 54.1574707 C31.44000072 52.06632031 30.06501556 49.97930903 28.68945312 47.89257812 C27.79129424 46.52368179 26.89349583 45.15454885 25.99609375 43.78515625 C25.59796982 43.18163834 25.19984589 42.57812042 24.78965759 41.95631409 C20.95818053 36.08149356 17.55060046 30.08674364 14 24 C13.67 42.15 13.34 60.3 13 79 C8.71 79 4.42 79 0 79 C0 52.93 0 26.86 0 0 Z " fill="#1EA7B0" transform="translate(852,152)"/>
<path d="M0 0 C6.13615695 4.36611167 11.82377873 10.03383618 14.25 17.3125 C14.99982793 28.83034875 14.81088881 38.55061973 7.625 48.125 C2.17386654 53.81900574 -3.76202654 56.47671835 -11.65722656 56.90429688 C-20.25629179 57.04072628 -26.92571732 55.44460299 -33.546875 49.7734375 C-39.46284505 43.59388463 -41.9607386 36.19932695 -42.1875 27.75 C-41.84451496 18.32344328 -39.23269287 11.25149892 -32.75 4.3125 C-24.0806017 -2.41070685 -10.3074929 -4.8866617 0 0 Z " fill="#12204E" transform="translate(649.75,176.6875)"/>
<path d="M0 0 C0 2 0 2 -1.36328125 3.41015625 C-3.56975953 5.28057772 -5.77929126 7.14646727 -8 9 C-8.82113281 9.70769531 -9.64226562 10.41539062 -10.48828125 11.14453125 C-26.06286498 24.31947541 -46.20089774 37.63612444 -67 39 C-67 39.66 -67 40.32 -67 41 C-65.98292969 41.09087891 -65.98292969 41.09087891 -64.9453125 41.18359375 C-62.99841536 41.35886842 -61.051815 41.53746031 -59.10546875 41.71875 C-57.10930125 41.89953498 -55.11188842 42.06729939 -53.11328125 42.21875 C-51.78876953 42.32703125 -51.78876953 42.32703125 -50.4375 42.4375 C-49.22900391 42.52837891 -49.22900391 42.52837891 -47.99609375 42.62109375 C-46 43 -46 43 -44 45 C-61.158884 54.67937046 -82.57404661 49.04143142 -100.53466797 44.32055664 C-114.34360223 40.39058053 -127.58538202 34.1232406 -140.125 27.1875 C-140.75752686 26.83913086 -141.39005371 26.49076172 -142.04174805 26.13183594 C-146.00302112 23.84587959 -148.92526682 21.32419267 -152 18 C-151.44650879 18.11593506 -150.89301758 18.23187012 -150.32275391 18.35131836 C-147.75791263 18.88537116 -145.19149603 19.41145932 -142.625 19.9375 C-141.75488281 20.11990234 -140.88476562 20.30230469 -139.98828125 20.49023438 C-119.15237611 24.73458542 -95.93417203 24.64457168 -75 21 C-74.06333496 20.84402344 -73.12666992 20.68804687 -72.16162109 20.52734375 C-48.54118708 16.53328257 -26.21463063 10.0476011 -4.13671875 0.80078125 C-2 0 -2 0 0 0 Z " fill="#1A698A" transform="translate(347,336)"/>
<path d="M0 0 C5.92231137 3.44818787 9.23705753 8.01486324 11.875 14.25 C12.74855485 19.49132908 12.85959804 24.69801953 12.5 30 C11.5 31 11.5 31 7.98999023 31.11352539 C6.42951578 31.11336626 4.86903607 31.10767142 3.30859375 31.09765625 C2.48875504 31.0962413 1.66891632 31.09482635 0.82423401 31.09336853 C-1.80471382 31.08775289 -4.43357773 31.07519779 -7.0625 31.0625 C-8.84049357 31.05748701 -10.61848846 31.05292376 -12.39648438 31.04882812 C-16.76435545 31.03777839 -21.13216348 31.02050331 -25.5 31 C-24.88080922 32.46080933 -24.25443308 33.91857455 -23.625 35.375 C-23.27695312 36.18710938 -22.92890625 36.99921875 -22.5703125 37.8359375 C-21.28262948 40.43950097 -20.10143821 41.69928089 -17.5 43 C-9.18617554 45.63426797 0.26647452 44.23282047 8.5 42 C8.995 46.95 8.995 46.95 9.5 52 C-0.28125997 57.04839224 -10.91826476 57.59565785 -21.63671875 55.33984375 C-28.41770238 52.94105781 -33.39668281 48.90081082 -36.81640625 42.55859375 C-40.62365113 33.44508422 -41.13709358 23.24505848 -37.46484375 13.98828125 C-34.0104535 6.86971996 -29.40871898 2.85542745 -22.5 -1 C-15.3734373 -3.3755209 -6.84743469 -3.10583796 0 0 Z " fill="#132250" transform="translate(734.5,177)"/>
<path d="M0 0 C0.54140625 0.37253906 1.0828125 0.74507812 1.640625 1.12890625 C3.001875 2.02609375 3.001875 2.02609375 4.390625 2.94140625 C8.29723154 6.73949594 10.31134992 10.81180591 11.640625 16.12890625 C11.640625 20.74890625 11.640625 25.36890625 11.640625 30.12890625 C-0.899375 30.12890625 -13.439375 30.12890625 -26.359375 30.12890625 C-22.89430819 38.97780227 -22.89430819 38.97780227 -16.359375 43.12890625 C-8.20132114 44.05527867 -0.28986221 43.0514486 7.640625 41.12890625 C8.300625 44.42890625 8.960625 47.72890625 9.640625 51.12890625 C-0.02183918 55.57363977 -11.73574688 57.06373049 -22.19140625 54.41015625 C-24.40750463 53.473883 -26.3469845 52.4432084 -28.359375 51.12890625 C-28.93042969 50.76667969 -29.50148438 50.40445313 -30.08984375 50.03125 C-36.18102123 45.5944664 -38.90294929 38.28966599 -40.359375 31.12890625 C-41.27076738 22.18069019 -39.79627166 15.06314164 -34.62890625 7.64453125 C-26.11355775 -2.75745135 -12.30406003 -7.41862443 0 0 Z " fill="#1EA7B0" transform="translate(964.359375,177.87109375)"/>
<path d="M0 0 C3.90413139 3.79648071 7.47853833 7.78592907 11 11.9375 C11.76183594 12.82985352 11.76183594 12.82985352 12.5390625 13.74023438 C14.93684401 16.55301653 17.3129066 19.38000498 19.65625 22.23828125 C34.65873156 39.91620535 57.37037115 52.02836996 78.60546875 60.42578125 C82.64583535 62.29950707 85.89456948 64.70752428 89.4375 67.375 C107.51508333 80.49951577 127.78998194 90.12199095 149 97 C149 97.33 149 97.66 149 98 C107.23353539 99.07319491 65.34964992 81.61966277 35.0078125 53.2265625 C19.86036765 38.71830123 8.51116886 21.12960462 0 2 C0 1.34 0 0.68 0 0 Z " fill="#1A3A66" transform="translate(100,289)"/>
<path d="M0 0 C0 2 0 2 -2.3125 4.4375 C-3.6428125 5.7059375 -3.6428125 5.7059375 -5 7 C-5.53625 7.598125 -6.0725 8.19625 -6.625 8.8125 C-8 10 -8 10 -11 10 C-11.39239868 10.90649292 -11.39239868 10.90649292 -11.79272461 11.83129883 C-13.08864343 14.15923551 -14.16799197 15.16263739 -16.31640625 16.69921875 C-17.32477539 17.42262451 -17.32477539 17.42262451 -18.35351562 18.16064453 C-19.08248047 18.66450684 -19.81144531 19.16836914 -20.5625 19.6875 C-21.7081543 20.48196533 -21.7081543 20.48196533 -22.87695312 21.29248047 C-45.51197317 36.69712743 -72.58772213 47.42834677 -99.5 52.32421875 C-101.91499355 52.79050657 -104.31360931 53.34751569 -106.69140625 53.9765625 C-123.64459585 58.28500682 -150.88097898 63.17569254 -166.9921875 54.68359375 C-170.61455888 52.47618095 -173.96421004 49.98277438 -177.27392578 47.33447266 C-179.67328293 45.47946754 -182.23959599 43.99352164 -184.875 42.5 C-187.6568903 40.9103484 -189.82074317 39.35743506 -192 37 C-191.67 36.01 -191.34 35.02 -191 34 C-186.76720444 35.58729833 -183.76379288 37.12555779 -180.375 40.125 C-171.94366149 46.63038748 -157.39688862 44.2413409 -147.125 44.25 C-146.02966446 44.25101212 -146.02966446 44.25101212 -144.91220093 44.25204468 C-121.27196767 44.21784508 -97.9122604 42.04776569 -75 36 C-73.918396 35.71817871 -73.918396 35.71817871 -72.81494141 35.43066406 C-49.76433566 29.25668945 -24.77261092 18.19460326 -6.80859375 2.1953125 C-4 0 -4 0 0 0 Z " fill="#176689" transform="translate(394,289)"/>
<path d="M0 0 C0.69931641 0.00580078 1.39863281 0.01160156 2.11914062 0.01757812 C7.39601362 0.15036058 11.37189621 1.0296981 16.0625 3.375 C15.56050802 7.10408331 15.02042977 10.73647686 14.0625 14.375 C12.969375 14.045 11.87625 13.715 10.75 13.375 C5.43377171 12.03405512 -1.89053353 10.85151677 -6.9375 13.375 C-6.9375 15.685 -6.9375 17.995 -6.9375 20.375 C-6.13699219 20.61283203 -6.13699219 20.61283203 -5.3203125 20.85546875 C2.88949189 23.42635905 11.63640949 26.3064109 17.06640625 33.3515625 C19.000814 37.28106531 18.76303199 41.13678146 18.0625 45.375 C15.89029136 51.54864562 12.40925913 54.13520272 6.75 57.125 C-2.50859447 60.30489677 -13.59354244 59.38003253 -22.3125 55.25 C-23.116875 54.816875 -23.116875 54.816875 -23.9375 54.375 C-23.62828116 52.91596742 -23.31501201 51.45779278 -23 50 C-22.73896484 48.78183594 -22.73896484 48.78183594 -22.47265625 47.5390625 C-21.9375 45.375 -21.9375 45.375 -20.9375 43.375 C-20.34324219 43.5915625 -19.74898437 43.808125 -19.13671875 44.03125 C-11.87534657 46.47052899 -4.37203902 47.85317967 3.0625 45.375 C3.39647787 42.50086875 3.39647787 42.50086875 3.0625 39.375 C0.03706667 36.47379944 -3.4019057 35.35822506 -7.3125 34 C-13.03425467 31.86156644 -17.75653249 29.96130925 -21.046875 24.55078125 C-22.811545 20.2397234 -22.75293996 15.91637331 -21.9375 11.375 C-17.22641707 2.84487351 -9.48643838 -0.19100212 0 0 Z " fill="#20A7B0" transform="translate(1005.9375,174.625)"/>
<path d="M0 0 C2.475 0.495 2.475 0.495 5 1 C9.95 1.33 14.9 1.66 20 2 C20 23.45 20 44.9 20 67 C2 74 2 74 0 74 C0 49.58 0 25.16 0 0 Z " fill="#177A92" transform="translate(310,187)"/>
<path d="M0 0 C-0.4748935 4.11574371 -1.0210244 7.36383344 -3 11 C-3.56847656 10.855625 -4.13695312 10.71125 -4.72265625 10.5625 C-10.76937766 9.10886414 -16.09591375 7.95452895 -22.125 10.125 C-26.41090933 12.92015826 -29.34925239 16.04775717 -31 21 C-31.60277077 26.9813407 -31.02557945 31.67915337 -28 37 C-22.63021322 41.97687556 -19.19178987 42.21084109 -12.06640625 42.16796875 C-8.38261636 41.96618153 -5.45237274 41.25540827 -2 40 C-0.40861915 44.17737474 0.21278058 47.53160785 0 52 C-9.05525429 55.65692962 -19.51411879 56.82178198 -29.00390625 54.15625 C-36.20308231 50.90288189 -41.08627967 45.73288035 -44.66015625 38.76171875 C-46.16369965 34.54040011 -46.54013261 31.12516354 -46.5 26.6875 C-46.49355469 25.94129395 -46.48710938 25.19508789 -46.48046875 24.42626953 C-46.19946781 15.90565558 -43.44113743 10.01896284 -37.25 4.125 C-26.52305889 -4.27777054 -12.44115612 -6.22057806 0 0 Z " fill="#111F4C" transform="translate(799,178)"/>
<path d="M0 0 C4.29 0 8.58 0 13 0 C13 5.61 13 11.22 13 17 C17.95 17 22.9 17 28 17 C28 20.3 28 23.6 28 27 C23.38 27 18.76 27 14 27 C14.07400065 31.36093469 14.15681516 35.71981611 14.26245117 40.07983398 C14.29569423 41.56279854 14.32372823 43.04588944 14.34643555 44.52905273 C14.37999468 46.66184293 14.43230638 48.79347612 14.48828125 50.92578125 C14.51446533 52.20880127 14.54064941 53.49182129 14.56762695 54.8137207 C14.73938888 57.95415365 14.73938888 57.95415365 16.37695312 59.91015625 C18.63206449 61.42441875 20.49552107 61.51269617 23.1875 61.6875 C24.08855469 61.75324219 24.98960938 61.81898438 25.91796875 61.88671875 C26.60503906 61.92410156 27.29210938 61.96148437 28 62 C28 64.97 28 67.94 28 71 C22.11317598 73.94341201 16.48003912 73.60962041 10 73 C4.60849289 71.18318977 2.41887898 66.83775796 0 62 C-0.08667255 59.37372867 -0.11560135 56.77437517 -0.09765625 54.1484375 C-0.0962413 53.37440582 -0.09482635 52.60037415 -0.09336853 51.80288696 C-0.08776403 49.32688558 -0.07521083 46.85097412 -0.0625 44.375 C-0.05748558 42.69791797 -0.05292257 41.02083453 -0.04882812 39.34375 C-0.03779315 35.22913194 -0.02052554 31.11458122 0 27 C-2.64 27 -5.28 27 -8 27 C-8 23.7 -8 20.4 -8 17 C-5.36 17 -2.72 17 0 17 C0 11.39 0 5.78 0 0 Z " fill="#1BA4AF" transform="translate(1037,160)"/>
<path d="M0 0 C4.29 0 8.58 0 13 0 C13 5.61 13 11.22 13 17 C17.95 17 22.9 17 28 17 C28 20.3 28 23.6 28 27 C23.05 27 18.1 27 13 27 C13.09708812 31.05726127 13.19991002 35.11374727 13.31738281 39.17041016 C13.35559338 40.54955243 13.39046002 41.92879167 13.421875 43.30810547 C13.46769624 45.29416967 13.52666263 47.27991679 13.5859375 49.265625 C13.63306885 51.05661621 13.63306885 51.05661621 13.68115234 52.88378906 C13.98266004 55.83053048 14.36619547 57.55981749 16 60 C18.43387753 61.21693876 20.41838846 61.31959896 23.125 61.5625 C24.03507813 61.64628906 24.94515625 61.73007813 25.8828125 61.81640625 C26.58148437 61.87699219 27.28015625 61.93757813 28 62 C28 64.97 28 67.94 28 71 C22.20449461 73.57578017 16.22220765 73.69989167 10 73 C5.59741334 70.83732585 2.08513342 68.12436351 0.43188477 63.36425781 C-0.18783306 59.97174935 -0.12217835 56.60726638 -0.09765625 53.171875 C-0.0962413 52.42286926 -0.09482635 51.67386353 -0.09336853 50.90216064 C-0.08778659 48.51806588 -0.07523745 46.13406622 -0.0625 43.75 C-0.05748266 42.13020969 -0.05292016 40.51041791 -0.04882812 38.890625 C-0.03782308 34.92704688 -0.02057091 30.96353955 0 27 C-2.64 27 -5.28 27 -8 27 C-8 23.7 -8 20.4 -8 17 C-5.36 17 -2.72 17 0 17 C0 11.39 0 5.78 0 0 Z " fill="#0D1B4A" transform="translate(812,160)"/>
<path d="M0 0 C2.56602757 2.56602757 3.02142699 4.78239561 4.0625 8.25 C4.40410156 9.36890625 4.74570312 10.4878125 5.09765625 11.640625 C11.00946384 33.64995196 7.74832434 58.13431595 -3 78 C-4.84597865 81.13242491 -6.82459909 84.08795539 -9 87 C-9.63808594 87.88558594 -9.63808594 87.88558594 -10.2890625 88.7890625 C-20.07605077 101.32327554 -37.24305977 110.53772959 -52 116 C-52.66 115.67 -53.32 115.34 -54 115 C-53.0821875 114.2265625 -52.164375 113.453125 -51.21875 112.65625 C-28.10281224 93.083033 -12.98328704 71.53458211 -5 42 C-4.72285156 41.02933594 -4.44570313 40.05867188 -4.16015625 39.05859375 C-0.95882908 26.33292008 -0.75564 13.04801717 0 0 Z " fill="#15A4A6" transform="translate(377,174)"/>
<path d="M0 0 C4.62 0 9.24 0 14 0 C14.06799187 7.68482443 14.12294015 15.3695355 14.15543652 23.05458832 C14.17103947 26.62374621 14.19217818 30.19268622 14.22631836 33.76171875 C14.25910534 37.21118793 14.27689332 40.66044857 14.28463173 44.11006165 C14.29280731 46.05533736 14.31619545 48.00053012 14.33988953 49.94567871 C14.34143061 58.1113523 13.73781464 64.57184862 8.75 71.3125 C3.74827562 76.20054882 -0.14293529 77.16133351 -6.9375 77.1875 C-8.608125 77.125625 -10.27875 77.06375 -12 77 C-12.33 73.37 -12.66 69.74 -13 66 C-10.72135417 65.54427083 -8.44270833 65.08854167 -6.1640625 64.6328125 C-3.81326077 64.13341068 -3.81326077 64.13341068 -2 62 C-0.87652909 58.76291175 -0.84650281 55.6273277 -0.79467773 52.22167969 C-0.77473251 51.0607782 -0.75478729 49.89987671 -0.73423767 48.70379639 C-0.71752518 47.45576233 -0.70081268 46.20772827 -0.68359375 44.921875 C-0.6524221 42.99930878 -0.6524221 42.99930878 -0.62062073 41.03790283 C-0.56555253 37.63823728 -0.51607636 34.23851262 -0.46777344 30.83874512 C-0.41744668 27.36640186 -0.36181907 23.89414395 -0.30664062 20.421875 C-0.19924575 13.61465584 -0.09824987 6.80735723 0 0 Z " fill="#0E1C49" transform="translate(673,176)"/>
<path d="M0 0 C4.50521046 1.47570671 8.99415657 2.98092709 13.4453125 4.61328125 C38.47781585 13.74708702 63.95629307 20.20571829 90.6875 20.125 C92.62592773 20.13080078 92.62592773 20.13080078 94.60351562 20.13671875 C95.85197266 20.13542969 97.10042969 20.13414062 98.38671875 20.1328125 C100.07607544 20.13112061 100.07607544 20.13112061 101.79956055 20.12939453 C104.94849331 20.00208243 107.90320695 19.56413482 111 19 C113.67810075 18.88803927 116.31732686 18.95374701 119 19 C107.75437269 30.24562731 80.01173146 30.24538903 65.15307617 30.25097656 C55.28948804 30.13273175 45.69009882 28.76406112 36 27 C35.18740723 26.85546387 34.37481445 26.71092773 33.53759766 26.56201172 C17.32433659 23.57474897 17.32433659 23.57474897 12 17 C11.24203125 16.11183594 10.4840625 15.22367187 9.703125 14.30859375 C7.41740883 11.5751975 5.19038274 8.81014219 3 6 C2.41734375 5.27039063 1.8346875 4.54078125 1.234375 3.7890625 C0 2 0 2 0 0 Z " fill="#184672" transform="translate(163,291)"/>
<path d="M0 0 C1 1 1 1 1.09765625 3.94140625 C1.08605469 5.13636719 1.07445312 6.33132812 1.0625 7.5625 C1.05347656 8.76003906 1.04445313 9.95757812 1.03515625 11.19140625 C1.02355469 12.11824219 1.01195312 13.04507813 1 14 C-0.10408203 14.02126953 -0.10408203 14.02126953 -1.23046875 14.04296875 C-7.79089512 14.1641529 -7.79089512 14.1641529 -13.125 17.5 C-13.74375 18.325 -14.3625 19.15 -15 20 C-15.33 20.33 -15.66 20.66 -16 21 C-16.16003488 23.66426685 -16.25942889 26.30560428 -16.31640625 28.97265625 C-16.33718735 29.77029892 -16.35796844 30.56794159 -16.37937927 31.38975525 C-16.44496158 33.94724611 -16.50379967 36.5048428 -16.5625 39.0625 C-16.60567699 40.79232882 -16.64929101 42.52214679 -16.69335938 44.25195312 C-16.80065172 48.5011926 -16.90189426 52.7505389 -17 57 C-21.95 57 -26.9 57 -32 57 C-32 38.52 -32 20.04 -32 1 C-28.04 1 -24.08 1 -20 1 C-18.03177114 2.96822886 -18.33751619 6.34808709 -18 9 C-17.61328125 8.51789063 -17.2265625 8.03578125 -16.828125 7.5390625 C-16.04695312 6.59160156 -16.04695312 6.59160156 -15.25 5.625 C-14.73953125 4.99851563 -14.2290625 4.37203125 -13.703125 3.7265625 C-9.5137114 -0.52050358 -5.65995941 -0.27835866 0 0 Z " fill="#182551" transform="translate(606,175)"/>
<path d="M0 0 C3.04221065 -0.08132642 6.0822238 -0.14065374 9.125 -0.1875 C9.9809375 -0.21263672 10.836875 -0.23777344 11.71875 -0.26367188 C16.92860894 -0.32378563 20.49701569 0.07445001 25 3 C28.44988634 6.63145931 29.29932033 9.56098405 29.5 14.4375 C29.26857718 19.44712347 28.72374423 23.43141178 25 27 C17.72405947 31.77483597 9.42824336 31.71505264 1 31 C0 30 0 30 -0.11352539 27.13256836 C-0.10828857 25.88096924 -0.10305176 24.62937012 -0.09765625 23.33984375 C-0.0962413 22.67537735 -0.09482635 22.01091095 -0.09336853 21.3263092 C-0.08775518 19.19666101 -0.07520054 17.06711661 -0.0625 14.9375 C-0.05748671 13.49674631 -0.05292351 12.05599097 -0.04882812 10.61523438 C-0.03778145 7.07678898 -0.02050792 3.53840461 0 0 Z " fill="#F6F6F8" transform="translate(524,161)"/>
<path d="M0 0 C4.60333548 1.84133419 6.53852765 4.78033311 9 9 C11.11857972 15.35573915 10.60245917 22.10183415 7.9921875 28.2421875 C6.06482243 31.65681066 3.49958962 34.25020519 0 36 C-6.60379551 36.78350116 -6.60379551 36.78350116 -10.01171875 34.87109375 C-15.01825925 30.8511671 -16.66093156 27.07659991 -17.37109375 20.6328125 C-17.51164128 13.2085959 -17.30916612 7.56340787 -12 2 C-7.94685541 -0.7020964 -4.7544315 -0.52827017 0 0 Z " fill="#F9F9FA" transform="translate(640,186)"/>
<path d="M0 0 C2.51916039 2.2650664 3.87023246 4.44695257 5.3125 7.5 C11.62766187 20.4884971 18.34688532 32.69903481 28.4440918 43.11694336 C32 46.80968903 32 46.80968903 32 49 C32.99 49.33 33.98 49.66 35 50 C37.23110417 52.10715393 39.34921771 54.29360479 41.4284668 56.55053711 C46.28725588 61.65807222 51.71545573 65.53242706 57.5625 69.4375 C58.5426709 70.09637207 59.5228418 70.75524414 60.53271484 71.43408203 C71.87219669 78.99560502 83.25853223 85.24090033 95.73413086 90.70532227 C101.57601195 93.2844536 106.9834997 96.15855956 112.43359375 99.4921875 C116.14455132 101.67244568 120.01750483 103.38085424 124 105 C120.76607394 106.02451301 118.35474612 105.95041862 115.015625 105.44140625 C114.08105469 105.30283203 113.14648438 105.16425781 112.18359375 105.02148438 C111.21550781 104.87001953 110.24742187 104.71855469 109.25 104.5625 C108.26644531 104.41490234 107.28289062 104.26730469 106.26953125 104.11523438 C103.84521588 103.75041022 101.42222202 103.37843254 99 103 C99.33 102.34 99.66 101.68 100 101 C99.41323486 100.70456299 98.82646973 100.40912598 98.22192383 100.10473633 C79.59862079 90.6800903 60.60870315 81.06354629 45 67 C44.19046875 66.29746094 43.3809375 65.59492188 42.546875 64.87109375 C32.56464801 56.09740682 23.20224176 47.23483334 16 36 C15.32723022 35.04589233 15.32723022 35.04589233 14.64086914 34.07250977 C10.70488821 28.41919195 7.83193486 22.66187459 5.1875 16.3125 C4.79369141 15.40177734 4.39988281 14.49105469 3.99414062 13.55273438 C2.08564857 9.04502673 0.49753552 4.91826092 0 0 Z " fill="#3A6D92" transform="translate(105,247)"/>
<path d="M0 0 C3.6578218 2.03993908 5.66946174 3.50419262 8 7 C8.04438705 8.56186941 8.03923409 10.12549266 8 11.6875 C8.4326029 16.0835089 9.41328222 18.09516236 12.75 21 C18.78929092 25.3237822 25.56124968 28.32669896 32.33496094 31.32421875 C38.1559837 33.93238126 43.07369875 36.94192245 48 41 C46.35 42.65 44.7 44.3 43 46 C42.23042969 45.52433594 42.23042969 45.52433594 41.4453125 45.0390625 C37.2446382 42.4790556 33.02645141 39.99547522 28.6796875 37.69140625 C20.55679503 33.36073779 13.38965259 29.27991591 6.84765625 22.71484375 C5.01227297 20.77432354 5.01227297 20.77432354 2 20 C0.741875 20.2475 -0.51625 20.495 -1.8125 20.75 C-4.33239066 21.12658883 -5.5524796 21.23912571 -7.8203125 20.02734375 C-11.34452832 17.10752243 -12.85322209 15.27207521 -13.375 10.75 C-12.88072704 5.80727042 -11.46171699 4.46171699 -8 1 C-5.13391871 -0.43304064 -3.18699217 -0.30644155 0 0 Z " fill="#1FA6A7" transform="translate(316,48)"/>
<path d="M0 0 C0.77791901 -0.00175232 1.55583801 -0.00350464 2.35733032 -0.00531006 C4.92142996 -0.00970034 7.48546024 -0.00679965 10.04956055 -0.00341797 C11.83928948 -0.00409202 13.62901833 -0.0050629 15.41874695 -0.00631714 C19.16865918 -0.00779046 22.91854757 -0.00565204 26.66845703 -0.00097656 C31.4598319 0.00470812 36.25115059 0.0014474 41.04252338 -0.00454903 C44.73925697 -0.00817506 48.43597741 -0.00700647 52.13271141 -0.00442123 C53.89843948 -0.00375697 55.66416876 -0.00456279 57.4298954 -0.00690079 C59.9064204 -0.00945953 62.38285656 -0.00554109 64.859375 0 C65.94056358 -0.00303635 65.94056358 -0.00303635 67.04359436 -0.00613403 C71.81791659 0.0135105 76.39119019 0.50051929 81.1237793 1.12939453 C83.76928396 1.17109707 86.41577334 1.17101508 89.0612793 1.12939453 C94.83347957 1.07027516 100.40612532 1.31258682 106.1237793 2.12939453 C105.7937793 2.78939453 105.4637793 3.44939453 105.1237793 4.12939453 C87.58944705 4.85420921 70.07027893 5.33315884 52.5222168 5.51611328 C51.37563221 5.52872507 50.22904762 5.54133686 49.04771805 5.55433083 C42.99530734 5.62082741 36.94287215 5.68325417 30.89038086 5.74194336 C24.73131985 5.80243114 18.57250773 5.87679016 12.41364098 5.95431805 C7.5865644 6.01255745 2.75942206 6.06053073 -2.06779099 6.10590553 C-4.33586068 6.12890159 -6.60389739 6.15551492 -8.87187576 6.18622398 C-24.65009904 6.39500413 -40.16905114 5.65133151 -55.8762207 4.12939453 C-53.8762207 2.12939453 -53.8762207 2.12939453 -50.28637695 1.96923828 C-48.83696925 1.99186448 -47.38769483 2.02483987 -45.9387207 2.06689453 C-40.33425673 2.26756452 -40.33425673 2.26756452 -34.8762207 1.12939453 C-33.23436382 1.05909451 -31.58974972 1.04508594 -29.9465332 1.06689453 C-28.98618164 1.07462891 -28.02583008 1.08236328 -27.03637695 1.09033203 C-25.02075066 1.11627317 -23.00512564 1.14231405 -20.98950195 1.16845703 C-20.02657227 1.17619141 -19.06364258 1.18392578 -18.0715332 1.19189453 C-16.75693115 1.20929688 -16.75693115 1.20929688 -15.41577148 1.22705078 C-12.91880541 1.21005188 -12.91880541 1.21005188 -10.70976257 0.63137817 C-7.12988948 -0.00282376 -3.62215594 -0.01008726 0 0 Z " fill="#DFE2E6" transform="translate(219.876220703125,402.87060546875)"/>
<path d="M0 0 C3.88265681 0.72799815 5.46228253 1.50231129 8 4.5625 C8.71619795 7.71030549 8.69368946 10.41199372 8 13.5625 C6.125 16.125 6.125 16.125 3 17.5625 C1.55952805 17.4497429 0.12184455 17.29915313 -1.3125 17.125 C-14.12584375 16.61094312 -28.13883314 32.40962877 -37 40.5625 C-39.39760013 42.84813491 -41.71236521 45.16593022 -44 47.5625 C-44.66 46.5725 -45.32 45.5825 -46 44.5625 C-46.66 44.5625 -47.32 44.5625 -48 44.5625 C-48 45.2225 -48 45.8825 -48 46.5625 C-49.609375 48.18359375 -49.609375 48.18359375 -51.75 50 C-52.44609375 50.59683594 -53.1421875 51.19367188 -53.859375 51.80859375 C-54.56578125 52.38738281 -55.2721875 52.96617188 -56 53.5625 C-56.68578125 54.13097656 -57.3715625 54.69945312 -58.078125 55.28515625 C-60 56.5625 -60 56.5625 -63 56.5625 C-62.43179252 51.10770815 -61.05362055 46.65190744 -59 41.5625 C-58.34 41.8925 -57.68 42.2225 -57 42.5625 C-58.32 46.5225 -59.64 50.4825 -61 54.5625 C-59.40671875 53.06009766 -59.40671875 53.06009766 -57.78125 51.52734375 C-56.35423507 50.18482312 -54.92714786 48.84237932 -53.5 47.5 C-52.80390625 46.84322266 -52.1078125 46.18644531 -51.390625 45.50976562 C-44.21663095 38.76753973 -36.82905288 32.33128467 -29.1875 26.125 C-28.49897949 25.56224365 -27.81045898 24.9994873 -27.10107422 24.41967773 C-22.24475115 20.4809114 -17.28177283 16.85471162 -12.0390625 13.44140625 C-9.45026983 11.05594787 -8.9624951 8.90474216 -8 5.5625 C-5.45724792 2.31342789 -4.09295612 0.76742927 0 0 Z " fill="#116A9D" transform="translate(224,20.4375)"/>
<path d="M0 0 C1.86233425 3.72466849 1.57130829 7.94495313 1 12 C-0.6720747 15.12578143 -2.7856235 17.39281175 -6 19 C-11.11664964 19.50260166 -15.52821374 19.84102072 -20.0625 17.25 C-23.60961158 13.13077365 -24.56464992 9.69620788 -24.44921875 4.32421875 C-23.64905692 0.18425105 -21.22915675 -2.4166746 -18 -5 C-10.8881452 -7.91768402 -5.06836859 -4.94769315 0 0 Z " fill="#6E707A" transform="translate(783,271)"/>
<path d="M0 0 C4.0903345 0.02431828 5.85677766 0.08119274 9.4375 2.1875 C12.97979345 6.34053369 12.5747486 10.08193401 12.54296875 15.3828125 C12.17088586 19.10364145 11.08493639 20.89446602 8.25 23.3125 C4.31008887 25.28245556 -0.45507464 24.76557739 -4.75 24.3125 C-8.4523996 22.19684308 -10.13106568 20.18538168 -11.75 16.3125 C-12.27476222 12.91535509 -12.31023916 9.70689023 -11.75 6.3125 C-9.3125 3.25 -9.3125 3.25 -6.75 1.3125 C-4.96066124 -0.47683876 -2.4198379 0.05606941 0 0 Z " fill="#6D707A" transform="translate(840.75,265.6875)"/>
<path d="M0 0 C2.8100346 1.79363911 4.50940468 3.01880935 6 6 C6.39447548 10.18144011 6.45035186 12.30946048 4.125 15.875 C1.18690175 18.81309825 -0.39566712 19.15431582 -4.4375 19.1875 C-5.61119141 19.20876953 -5.61119141 19.20876953 -6.80859375 19.23046875 C-9 19 -9 19 -12 17 C-15.71918218 17.29993405 -19.17748712 17.81721936 -22.8125 18.625 C-25 19 -25 19 -28 18 C-28.99 18.33 -29.98 18.66 -31 19 C-31.66 18.34 -32.32 17.68 -33 17 C-28.40482081 14.85992837 -23.96225772 12.95334341 -19.0625 11.625 C-16.83295698 10.98713756 -16.83295698 10.98713756 -15 10 C-13.67079974 7.09575344 -13.67079974 7.09575344 -13 4 C-9.21132193 -0.2344049 -5.43994608 -1.12095859 0 0 Z " fill="#156D9C" transform="translate(215,60)"/>
<path d="M0 0 C3.5386994 1.65139305 4.81070153 2.71605229 7 6 C7.23046875 8.15625 7.23046875 8.15625 7.1875 10.5 C7.18105469 11.2734375 7.17460937 12.046875 7.16796875 12.84375 C7 15 7 15 6 18 C6.31052686 20.30336625 6.31052686 20.30336625 6.9375 22.6875 C7.13214844 23.49574219 7.32679688 24.30398437 7.52734375 25.13671875 C7.68332031 25.75160156 7.83929688 26.36648437 8 27 C7.01 27.66 6.02 28.32 5 29 C4.74347656 28.44570312 4.48695313 27.89140625 4.22265625 27.3203125 C1.93598216 22.79553782 1.93598216 22.79553782 -2.1953125 20.19921875 C-3.7648704 19.94280583 -5.3365707 19.69915853 -6.91015625 19.46875 C-9 19 -9 19 -11.5 16.8125 C-13.3698547 13.30652243 -14.07005036 10.99287058 -14 7 C-10.49957371 0.83980098 -6.85307927 -0.46461554 0 0 Z " fill="#35BCA3" transform="translate(371,55)"/>
<path d="M0 0 C8.25360913 7.02434819 13.70350731 23.55253463 15 34 C15.10896179 36.96012863 15.09512758 39.91342006 15.0625 42.875 C15.05798828 43.65875 15.05347656 44.4425 15.04882812 45.25 C15.03714093 47.16670014 15.01920908 49.08336048 15 51 C11.04 49.02 7.08 47.04 3 45 C2.67 47.97 2.34 50.94 2 54 C1.67 54 1.34 54 1 54 C0.67 49.38 0.34 44.76 0 40 C0.66 40 1.32 40 2 40 C5.46059692 36.14010344 5.54192678 32.12529737 5.44140625 27.1796875 C4.75549133 22.23867208 2.92285727 17.84104561 0.99609375 13.26171875 C-0.10566868 9.65398687 0.16967757 7.62747113 1 4 C0.6422386 1.72349255 0.6422386 1.72349255 0 0 Z " fill="#2FBBAA" transform="translate(377,76)"/>
<path d="M0 0 C3.37495058 0.02428022 5.14420406 0.59958588 7.75 2.75 C10.70340674 5.77544105 11.20868218 6.47524558 11.6875 10.625 C11.31011742 14.39882579 10.60949813 16.42379629 8.0078125 19.21875 C3.78996344 22.09543968 -1.79740511 21.375 -6.6875 21.375 C-6.6875 20.715 -6.6875 20.055 -6.6875 19.375 C-7.3475 19.045 -8.0075 18.715 -8.6875 18.375 C-10.17576894 14.65432765 -10.41147897 10.29849895 -9.6875 6.375 C-7.25 3.4375 -7.25 3.4375 -4.6875 1.375 C-3.6875 0.375 -3.6875 0.375 0 0 Z " fill="#1E4B77" transform="translate(170.6875,110.625)"/>
<path d="M0 0 C1.50668351 -0.00067758 3.01336691 -0.00165133 4.52005005 -0.00289917 C7.65790867 -0.00435937 10.79573852 -0.00227945 13.93359375 0.00244141 C17.87067359 0.008089 21.80768503 0.00479406 25.74476242 -0.00101089 C44.12829752 -0.02382212 62.45457938 0.2232261 80.8203125 1.1328125 C80.4903125 1.7928125 80.1603125 2.4528125 79.8203125 3.1328125 C59.60041903 4.10676679 39.41832927 4.29108537 19.17944336 4.26318359 C14.92453826 4.25739854 10.66969507 4.26083995 6.41479206 4.26675606 C3.09040358 4.27037465 -0.23397022 4.26921861 -3.55835915 4.26662827 C-5.12871114 4.26596715 -6.69906452 4.2667585 -8.2694149 4.26910782 C-10.45137454 4.27166577 -12.63323337 4.2677538 -14.81518555 4.26220703 C-16.04835007 4.26141144 -17.28151459 4.26061584 -18.55204773 4.25979614 C-23.5632969 4.08437997 -28.39526954 3.72761849 -33.1796875 2.1328125 C-31.25462042 0.20774542 -27.760635 0.72581812 -25.12841797 0.57861328 C-24.05013638 0.51544765 -24.05013638 0.51544765 -22.95007133 0.45100594 C-15.30075264 0.03522995 -7.6589058 -0.01250102 0 0 Z " fill="#CBCED7" transform="translate(226.1796875,396.8671875)"/>
<path d="M0 0 C5.61 0 11.22 0 17 0 C17 6.27 17 12.54 17 19 C11.39 19 5.78 19 0 19 C0 12.73 0 6.46 0 0 Z " fill="#206484" transform="translate(260,189)"/>
<path d="M0 0 C5.78085505 1.15617101 7.11047684 3.06069263 10.3125 7.5625 C10.76689453 8.17802734 11.22128906 8.79355469 11.68945312 9.42773438 C12.80524319 10.94285983 13.90430371 12.47028033 15 14 C15.33 9.38 15.66 4.76 16 0 C17.65 0 19.3 0 21 0 C21 7.92 21 15.84 21 24 C15.375 22.875 15.375 22.875 13.10546875 20.05859375 C12.62529297 19.47529297 12.14511719 18.89199219 11.65039062 18.29101562 C11.16763672 17.67935547 10.68488281 17.06769531 10.1875 16.4375 C9.43436523 15.51420898 9.43436523 15.51420898 8.66601562 14.57226562 C7.43283012 13.05720915 6.21488202 11.52977263 5 10 C4.67 14.62 4.34 19.24 4 24 C2.68 24 1.36 24 0 24 C0 16.08 0 8.16 0 0 Z " fill="#70727D" transform="translate(723,266)"/>
<path d="M0 0 C5.61 0 11.22 0 17 0 C17 5.94 17 11.88 17 18 C11.39 18 5.78 18 0 18 C0 12.06 0 6.12 0 0 Z " fill="#185A7D" transform="translate(260,212)"/>
<path d="M0 0 C5.28 0 10.56 0 16 0 C16 5.94 16 11.88 16 18 C10.72 18 5.44 18 0 18 C0 12.06 0 6.12 0 0 Z " fill="#184D77" transform="translate(239,212)"/>
<path d="M0 0 C5.28 0 10.56 0 16 0 C16 5.94 16 11.88 16 18 C10.72 18 5.44 18 0 18 C0 12.06 0 6.12 0 0 Z " fill="#1A527C" transform="translate(239,189)"/>
<path d="M0 0 C5.94 0 11.88 0 18 0 C18 1.32 18 2.64 18 4 C13.38 4 8.76 4 4 4 C4 5.98 4 7.96 4 10 C8.29 10 12.58 10 17 10 C17 11.32 17 12.64 17 14 C12.71 14 8.42 14 4 14 C4 15.98 4 17.96 4 20 C8.62 20 13.24 20 18 20 C18 21.32 18 22.64 18 24 C12.06 24 6.12 24 0 24 C0 16.08 0 8.16 0 0 Z " fill="#6C6E79" transform="translate(617,266)"/>
<path d="M0 0 C1.28132812 0.00902344 2.56265625 0.01804687 3.8828125 0.02734375 C4.87023437 0.03894531 5.85765625 0.05054688 6.875 0.0625 C6.875 1.7125 6.875 3.3625 6.875 5.0625 C6.04355469 5.02769531 5.21210937 4.99289062 4.35546875 4.95703125 C3.26878906 4.92996094 2.18210937 4.90289062 1.0625 4.875 C-0.01644531 4.84019531 -1.09539063 4.80539062 -2.20703125 4.76953125 C-5.08012636 4.83793383 -5.08012636 4.83793383 -7 6.25 C-8.51762151 8.69505688 -8.42373534 10.39495951 -8.3125 13.25 C-8.250625 14.838125 -8.18875 16.42625 -8.125 18.0625 C-4.495 18.7225 -0.865 19.3825 2.875 20.0625 C2.875 17.0925 2.875 14.1225 2.875 11.0625 C4.195 11.0625 5.515 11.0625 6.875 11.0625 C6.875 15.3525 6.875 19.6425 6.875 24.0625 C-7.08959816 24.92333139 -7.08959816 24.92333139 -10.9375 21.75 C-14.19697968 17.7454964 -14.51693316 14.34500728 -14.484375 9.35546875 C-13.87461638 5.46494364 -11.93665184 3.74026365 -9.125 1.0625 C-6.12186252 -0.43906874 -3.33432478 -0.03031204 0 0 Z " fill="#6A6C77" transform="translate(882.125,265.9375)"/>
<path d="M0 0 C3.19162198 1.6549151 5.29278786 3.0034738 7.375 5.9375 C8 8 8 8 8 13 C-0.25 13 -8.5 13 -17 13 C-14.62776612 4.69718142 -14.62776612 4.69718142 -9.99609375 1.10546875 C-6.37610948 -0.89933663 -4.09607951 -0.65017135 0 0 Z " fill="#ECF6F7" transform="translate(955,185)"/>
<path d="M0 0 C5.94 0 11.88 0 18 0 C18 1.32 18 2.64 18 4 C13.38 4 8.76 4 4 4 C4 5.98 4 7.96 4 10 C7.96 10 11.92 10 16 10 C16 11.32 16 12.64 16 14 C12.04 14 8.08 14 4 14 C4 15.98 4 17.96 4 20 C8.62 20 13.24 20 18 20 C18 21.32 18 22.64 18 24 C12.06 24 6.12 24 0 24 C0 16.08 0 8.16 0 0 Z " fill="#6B6C77" transform="translate(927,266)"/>
<path d="M0 0 C1.32 0 2.64 0 4 0 C4 3.3 4 6.6 4 10 C8.29 10 12.58 10 17 10 C17 6.7 17 3.4 17 0 C18.32 0 19.64 0 21 0 C21 7.92 21 15.84 21 24 C19.35 24 17.7 24 16 24 C16 20.7 16 17.4 16 14 C12.04 14 8.08 14 4 14 C4 17.3 4 20.6 4 24 C2.68 24 1.36 24 0 24 C0 16.08 0 8.16 0 0 Z " fill="#6F717C" transform="translate(685,266)"/>
<path d="M0 0 C3.15679404 1.39310984 6.29804877 2.81828457 9.4375 4.25 C10.78424805 4.84361328 10.78424805 4.84361328 12.15820312 5.44921875 C13.01220703 5.84238281 13.86621094 6.23554688 14.74609375 6.640625 C15.53685303 6.99672852 16.3276123 7.35283203 17.14233398 7.71972656 C19 9 19 9 19.66357422 11.00390625 C19.77459473 11.66261719 19.88561523 12.32132812 20 13 C21.64448351 15.37022563 21.64448351 15.37022563 23.6875 17.75 C27.25326113 22.08031171 30.67115985 26.48589101 34 31 C30.38392781 31.40788667 27.46175625 31.15700409 24 30 C19.77688245 26.44927826 16.43463344 22.29771462 13 18 C12.15695313 16.98808594 11.31390625 15.97617187 10.4453125 14.93359375 C8.26827648 12.31044379 6.12585286 9.66468289 4 7 C3.25621094 6.11183594 2.51242188 5.22367187 1.74609375 4.30859375 C0 2 0 2 0 0 Z " fill="#3D749A" transform="translate(145,281)"/>
<path d="M0 0 C1.74216797 0.05414063 1.74216797 0.05414063 3.51953125 0.109375 C4.39996094 0.15578125 5.28039062 0.2021875 6.1875 0.25 C6.1875 1.57 6.1875 2.89 6.1875 4.25 C0.2475 4.745 0.2475 4.745 -5.8125 5.25 C-5.4825 6.57 -5.1525 7.89 -4.8125 9.25 C-3.78189453 9.41435547 -3.78189453 9.41435547 -2.73046875 9.58203125 C-1.82941406 9.74058594 -0.92835938 9.89914062 0 10.0625 C0.89332031 10.21332031 1.78664063 10.36414063 2.70703125 10.51953125 C5.41615024 11.31733479 6.50656805 12.0087574 8.1875 14.25 C8.6875 17.1875 8.6875 17.1875 8.1875 20.25 C5.34730864 23.22925911 3.76606382 24.18635161 -0.36328125 24.640625 C-1.60464844 24.59421875 -2.84601562 24.5478125 -4.125 24.5 C-5.37925781 24.46390625 -6.63351562 24.4278125 -7.92578125 24.390625 C-8.87839844 24.34421875 -9.83101562 24.2978125 -10.8125 24.25 C-10.8125 22.93 -10.8125 21.61 -10.8125 20.25 C-6.1925 19.92 -1.5725 19.59 3.1875 19.25 C3.1875 17.93 3.1875 16.61 3.1875 15.25 C2.52363281 15.22421875 1.85976563 15.1984375 1.17578125 15.171875 C-3.06330647 14.89958323 -6.15871427 14.60304429 -9.9375 12.5625 C-11.8125 10.25 -11.8125 10.25 -12.4375 7.25 C-11.8125 4.25 -11.8125 4.25 -9.69921875 2.078125 C-6.16858046 -0.15778666 -4.13747986 -0.1671709 0 0 Z " fill="#6F717C" transform="translate(970.8125,265.75)"/>
<path d="M0 0 C1.78834038 -0.00067488 3.57668068 -0.00164644 5.36502075 -0.00289917 C9.09166345 -0.00436518 12.81828201 -0.00225553 16.54492188 0.00244141 C21.31624183 0.00816303 26.08750583 0.00483743 30.85882378 -0.00113106 C34.54255597 -0.00474514 38.22627489 -0.0035946 41.91000748 -0.00100327 C43.66984183 -0.00033763 45.42967741 -0.00114968 47.18951035 -0.00348282 C49.64443919 -0.00602597 52.09927714 -0.00214639 54.55419922 0.00341797 C55.27635117 0.00139374 55.99850311 -0.00063049 56.74253845 -0.00271606 C60.41497871 0.01268212 63.81133559 0.25906447 67.3828125 1.1328125 C67.3828125 1.4628125 67.3828125 1.7928125 67.3828125 2.1328125 C61.38255416 2.87954608 55.5409946 3.28163881 49.49829102 3.27807617 C48.66138229 3.28143478 47.82447357 3.2847934 46.96220398 3.28825378 C44.22869336 3.2976627 41.49524449 3.29970086 38.76171875 3.30078125 C36.85123164 3.30399759 34.94074478 3.30736195 33.03025818 3.31086731 C29.04368518 3.31683096 25.05713378 3.31870974 21.07055664 3.31811523 C15.95357744 3.31801302 10.83673515 3.3317383 5.71978855 3.34888744 C1.78311011 3.35997444 -2.15353467 3.36203557 -6.09022713 3.36150551 C-7.97814474 3.3626878 -9.86606316 3.36712346 -11.75396538 3.37483788 C-14.38221974 3.38458399 -17.01016896 3.38178273 -19.63842773 3.37573242 C-20.42126129 3.38135193 -21.20409485 3.38697144 -22.01065063 3.39276123 C-27.38886213 3.36113787 -27.38886213 3.36113787 -29.6171875 1.1328125 C-19.75144294 -0.07288423 -9.91987807 -0.01325696 0 0 Z " fill="#C5C9D2" transform="translate(230.6171875,402.8671875)"/>
<path d="M0 0 C1.55370442 0.00081715 1.55370442 0.00081715 3.13879681 0.00165081 C4.91957623 -0.00464092 4.91957623 -0.00464092 6.73633099 -0.01105976 C8.04587246 -0.00544025 9.35541393 0.00017925 10.70463848 0.00596905 C12.09269074 0.00489645 13.48074257 0.00295811 14.86879253 0.00021648 C18.64839598 -0.00464359 22.42788189 0.00304216 26.20747113 0.01316953 C30.169228 0.02195046 34.13098117 0.02019244 38.09274578 0.01980877 C44.75848129 0.02074664 51.42417141 0.02944016 58.08989239 0.04307842 C65.76955054 0.0587344 73.44915872 0.06407899 81.12883168 0.06334287 C89.32451577 0.06266362 97.52018086 0.06963399 105.71585917 0.07878947 C108.06409227 0.08090905 110.41232225 0.08162909 112.76055622 0.08202839 C116.47629359 0.08304381 120.19199008 0.0892366 123.90771389 0.09919453 C125.90071219 0.1034437 127.8937189 0.10295364 129.88672161 0.10225201 C137.81969304 0.13002567 145.65691564 0.52498002 153.5569334 1.24888897 C153.5569334 1.57888897 153.5569334 1.90888897 153.5569334 2.24888897 C151.93278962 2.44366636 150.30756918 2.62948355 148.6819334 2.81138897 C147.77701153 2.91580303 146.87208965 3.02021709 145.9397459 3.12779522 C143.5569334 3.24888897 143.5569334 3.24888897 141.5569334 2.24888897 C141.2269334 2.90888897 140.8969334 3.56888897 140.5569334 4.24888897 C140.00056698 4.09032421 139.44420055 3.93175945 138.87097454 3.7683897 C134.35261626 2.7540212 129.6827939 2.85453498 125.06865215 2.69420147 C123.88655666 2.65215588 122.70446117 2.61011028 121.48654461 2.56679058 C107.0148489 2.10260137 92.54222422 2.09720653 78.06450176 2.11851788 C74.12426405 2.12426885 70.18409372 2.12088123 66.24385834 2.11494541 C63.13875114 2.11129519 60.03365939 2.11249772 56.92855167 2.1150732 C55.47645528 2.11572735 54.02435736 2.1149689 52.57226276 2.11259365 C39.31979114 2.09562066 26.19478376 2.80028432 13.0100584 4.16295147 C10.60863295 4.24707784 8.85624424 3.8656569 6.5569334 3.24888897 C5.7731834 3.43451397 4.9894334 3.62013897 4.1819334 3.81138897 C0.82052288 4.37162406 -1.31605884 3.48514785 -4.4430666 2.24888897 C-2.4430666 0.24888897 -2.4430666 0.24888897 0 0 Z " fill="#E4E6EB" transform="translate(171.44306659698486,395.7511110305786)"/>
<path d="M0 0 C3.375 2.125 3.375 2.125 6 5 C6.78854369 8.78500971 6.31154067 10.41586124 4.5 13.8125 C1.58533966 16.3628278 -0.22724535 16.95720447 -4.03125 17.19140625 C-7.43519118 16.86046752 -8.86359433 15.58958263 -11 13 C-12.0625 9.5625 -12.0625 9.5625 -12 6 C-8.71580324 0.79058445 -6.13630292 -0.70803495 0 0 Z " fill="#15234D" transform="translate(683,149)"/>
<path d="M0 0 C3.98066095 1.57724302 5.60667274 2.41000911 8 6 C8 7.98 8 9.96 8 12 C0.41 12 -7.18 12 -15 12 C-13.94484733 5.66908396 -13.58338541 4.7352144 -8.96484375 1.13671875 C-5.8114933 -0.68758539 -3.54127196 -0.57948087 0 0 Z " fill="#F7F8FA" transform="translate(725,185)"/>
<path d="M0 0 C1.18851563 0.00902344 2.37703125 0.01804687 3.6015625 0.02734375 C4.51679687 0.03894531 5.43203125 0.05054688 6.375 0.0625 C6.375 1.3825 6.375 2.7025 6.375 4.0625 C5.61574219 4.09988281 4.85648438 4.13726562 4.07421875 4.17578125 C2.58341797 4.27439453 2.58341797 4.27439453 1.0625 4.375 C-0.41669922 4.46201172 -0.41669922 4.46201172 -1.92578125 4.55078125 C-4.91089537 5.11670014 -5.90139778 5.59527007 -7.625 8.0625 C-8.01223829 11.61218437 -8.16712601 14.05258633 -6.45703125 17.23828125 C-3.99438301 19.69042779 -2.36294616 19.65130253 1.0625 19.8125 C2.05636719 19.86921875 3.05023437 19.9259375 4.07421875 19.984375 C4.83347656 20.01015625 5.59273437 20.0359375 6.375 20.0625 C6.375 21.3825 6.375 22.7025 6.375 24.0625 C4.31367858 24.17114945 2.25068679 24.24838321 0.1875 24.3125 C-1.53533203 24.38210938 -1.53533203 24.38210938 -3.29296875 24.453125 C-7.27181778 23.98667142 -8.80526756 22.84136675 -11.625 20.0625 C-13.95777758 16.06345272 -14.51953041 11.5971492 -13.625 7.0625 C-10.08269748 0.95235737 -6.76276949 -0.06630166 0 0 Z " fill="#686B76" transform="translate(662.625,265.9375)"/>
<path d="M0 0 C2.4375 1.5 2.4375 1.5 4 4 C4.80414661 8.04560357 4.63828902 10.97873756 2.4375 14.5 C-0.94888329 16.58392818 -3.09385318 16.55802097 -7 16 C-9.4375 14.5 -9.4375 14.5 -11 12 C-11.80414661 7.95439643 -11.63828902 5.02126244 -9.4375 1.5 C-6.05111671 -0.58392818 -3.90614682 -0.55802097 0 0 Z " fill="#F7F7F8" transform="translate(775,270)"/>
<path d="M0 0 C2.4375 1.5625 2.4375 1.5625 4 4 C4.59172793 8.06812955 4.37276489 10.27000208 2.5 13.9375 C-0.11847617 16.09774284 -0.82551403 16.383661 -4.0625 16.5625 C-8 16 -8 16 -10 14.5 C-11.42949186 10.92627035 -11.68375401 7.79172676 -11 4 C-8.16250305 -0.53999512 -5.10870514 -0.72981502 0 0 Z " fill="#F8F8F9" transform="translate(845,270)"/>
<path d="M0 0 C6.93 0 13.86 0 21 0 C21 1.32 21 2.64 21 4 C18.36 4 15.72 4 13 4 C13 10.6 13 17.2 13 24 C11.35 24 9.7 24 8 24 C8 17.4 8 10.8 8 4 C5.36 4 2.72 4 0 4 C0 2.68 0 1.36 0 0 Z " fill="#747681" transform="translate(582,266)"/>
<path d="M0 0 C1.65 0 3.3 0 5 0 C5 6.6 5 13.2 5 20 C8.96 20 12.92 20 17 20 C17 21.32 17 22.64 17 24 C11.39 24 5.78 24 0 24 C0 16.08 0 8.16 0 0 Z " fill="#686B76" transform="translate(799,266)"/>
<path d="M0 0 C5.625 1.125 5.625 1.125 8.3125 5.0625 C8.82425781 5.79597656 9.33601562 6.52945312 9.86328125 7.28515625 C10.23839844 7.85105469 10.61351562 8.41695313 11 9 C9.02 9.33 7.04 9.66 5 10 C4.67 14.62 4.34 19.24 4 24 C2.68 24 1.36 24 0 24 C0 16.08 0 8.16 0 0 Z " fill="#6A6C77" transform="translate(723,266)"/>
<path d="M0 0 C1.65 0 3.3 0 5 0 C5 7.92 5 15.84 5 24 C3.35 24 1.7 24 0 24 C0 16.08 0 8.16 0 0 Z " fill="#72747D" transform="translate(905,266)"/>
<path d="M0 0 C-6.93 2.97 -6.93 2.97 -14 6 C-7.73 6 -1.46 6 5 6 C0.27497781 10.72502219 -9.87414808 9.04701089 -16.27734375 9.06591797 C-19.85184311 9.06097692 -23.42567347 9.03574327 -27 9 C-27 8.34 -27 7.68 -27 7 C-26.37432129 6.79318604 -25.74864258 6.58637207 -25.10400391 6.37329102 C-22.27714946 5.43792318 -19.45106812 4.50024079 -16.625 3.5625 C-15.64015625 3.23701172 -14.6553125 2.91152344 -13.640625 2.57617188 C-12.69960938 2.26357422 -11.75859375 1.95097656 -10.7890625 1.62890625 C-9.91975098 1.34088135 -9.05043945 1.05285645 -8.15478516 0.75610352 C-3.50372396 -0.87593099 -3.50372396 -0.87593099 0 0 Z " fill="#2F6E91" transform="translate(286,317)"/>
<path d="M0 0 C1.32 0 2.64 0 4 0 C4 7.92 4 15.84 4 24 C2.68 24 1.36 24 0 24 C0 16.08 0 8.16 0 0 Z " fill="#656874" transform="translate(685,266)"/>
<path d="M0 0 C4.85453746 0.92959228 7.44269325 2.24093679 11.125 5.5625 C16.56547776 10.10723185 22.13455365 10.0742784 29 10 C29 10.33 29 10.66 29 11 C25.37 11 21.74 11 18 11 C18 11.99 18 12.98 18 14 C14.39827553 12.650967 11.1705113 11.04283018 7.875 9.0625 C7.02679688 8.55847656 6.17859375 8.05445313 5.3046875 7.53515625 C3.21939442 6.14613899 1.56157908 4.95452545 0 3 C0 2.01 0 1.02 0 0 Z " fill="#377396" transform="translate(202,323)"/>
<path d="M0 0 C12.35554993 -0.19272088 24.66232525 0.40049552 37 1 C36.67 1.99 36.34 2.98 36 4 C27.52424574 4.13800414 19.19191897 3.73754664 10.75 3 C9.04263672 2.85691406 9.04263672 2.85691406 7.30078125 2.7109375 C4.53344648 2.47838836 1.76657835 2.24135347 -1 2 C-0.67 1.34 -0.34 0.68 0 0 Z " fill="#EDEEF0" transform="translate(165,405)"/>
<path d="M0 0 C1.694262 1.64443076 3.3501067 3.31183598 5 5 C5.56203125 5.54269531 6.1240625 6.08539063 6.703125 6.64453125 C8.37104967 8.37091122 9.77599194 9.93230067 11 12 C10.875 15.9375 10.875 15.9375 10 19 C10.66 19 11.32 19 12 19 C12.6509259 20.24735567 13.29551669 21.49801832 13.9375 22.75 C14.29714844 23.44609375 14.65679687 24.1421875 15.02734375 24.859375 C15.95558182 26.90224433 16.53166578 28.81115376 17 31 C13.90572573 27.32684146 11.40175466 23.49236663 9.0625 19.3125 C8.71767578 18.70180664 8.37285156 18.09111328 8.01757812 17.46191406 C0 3.15765552 0 3.15765552 0 0 Z " fill="#18214E" transform="translate(100,289)"/>
<path d="M0 0 C1.65 0 3.3 0 5 0 C5 6.6 5 13.2 5 20 C4.67 20 4.34 20 4 20 C3.67 16.7 3.34 13.4 3 10 C2.67 10 2.34 10 2 10 C1.67 14.62 1.34 19.24 1 24 C0.67 24 0.34 24 0 24 C0 16.08 0 8.16 0 0 Z " fill="#81838C" transform="translate(799,266)"/>
<path d="M0 0 C-5.95270777 3.23392297 -12.06235345 5.93589226 -18.375 8.375 C-19.06464844 8.64973145 -19.75429688 8.92446289 -20.46484375 9.20751953 C-26.54939462 11.50411004 -26.54939462 11.50411004 -30 10 C-28.09843686 9.04921843 -26.1965491 8.09908017 -24.29296875 7.15234375 C-22.81003039 6.40708512 -21.33294628 5.6500102 -19.86328125 4.87890625 C-16.2118042 2.98013818 -13.09869133 1.64716179 -9 1 C-7.96875 0.62875 -6.9375 0.2575 -5.875 -0.125 C-3 -1 -3 -1 0 0 Z " fill="#17859D" transform="translate(340,367)"/>
<path d="M0 0 C0.33 0 0.66 0 1 0 C1.62739631 8.9752527 1.62739631 8.9752527 -0.875 13.0625 C-4.55827389 16.42077914 -7.10291438 16.09068677 -12 16 C-11.34 15.67 -10.68 15.34 -10 15 C-10 14.34 -10 13.68 -10 13 C-9.236875 12.62875 -8.47375 12.2575 -7.6875 11.875 C-4.34287341 9.54153959 -3.82731112 7.63353417 -2.67578125 3.83984375 C-2 2 -2 2 0 0 Z " fill="#626671" transform="translate(782,274)"/>
<path d="M0 0 C0.33 0 0.66 0 1 0 C1.33 18.81 1.66 37.62 2 57 C-1 54 -1 54 -1.32279968 51.58918762 C-1.29837296 50.63654526 -1.27394623 49.68390289 -1.2487793 48.70239258 C-1.22853195 47.62149857 -1.20828461 46.54060455 -1.18742371 45.42695618 C-1.15006607 44.26125595 -1.11270844 43.09555573 -1.07421875 41.89453125 C-1.04777786 40.70018967 -1.02133698 39.50584808 -0.99409485 38.27531433 C-0.90619883 34.45387538 -0.79709259 30.6333724 -0.6875 26.8125 C-0.62425529 24.22464311 -0.56238879 21.63675214 -0.50195312 19.04882812 C-0.35063619 12.69873653 -0.18189362 6.3492853 0 0 Z " fill="#DBF1F3" transform="translate(901,152)"/>
<path d="M0 0 C2.5625 0.1875 2.5625 0.1875 4.5625 2.1875 C4.1875 4.8125 4.1875 4.8125 3.5625 7.1875 C1.25 7.8125 1.25 7.8125 -1.4375 8.1875 C-2.4275 7.5275 -3.4175 6.8675 -4.4375 6.1875 C-3.3735 0.2595 -3.3735 0.2595 0 0 Z " fill="#F0F4F9" transform="translate(60.4375,206.8125)"/>
<path d="M0 0 C2.5625 0.1875 2.5625 0.1875 4.5625 2.1875 C4.1875 4.8125 4.1875 4.8125 3.5625 7.1875 C1.1875 7.8125 1.1875 7.8125 -1.4375 8.1875 C-3.4375 6.1875 -3.4375 6.1875 -3.625 3.625 C-3.37291261 0.34786389 -3.27713611 0.25208739 0 0 Z " fill="#E4E5EB" transform="translate(66.4375,258.8125)"/>
<path d="M0 0 C4.70588235 0.70588235 4.70588235 0.70588235 6 2 C6.125 4.5 6.125 4.5 6 7 C5 8 5 8 2.5625 8.1875 C0 8 0 8 -2 6 C-1.44444444 1.44444444 -1.44444444 1.44444444 0 0 Z " fill="#F1F9F8" transform="translate(440,172)"/>
<path d="M0 0 C2.93453261 0.36681658 3.86437246 0.86437246 6 3 C5.46428571 6.53571429 5.46428571 6.53571429 4 8 C1.5625 8.1875 1.5625 8.1875 -1 8 C-1.66 7.34 -2.32 6.68 -3 6 C-2.63318342 3.06546739 -2.13562754 2.13562754 0 0 Z " fill="#EAEEF2" transform="translate(170,117)"/>
<path d="M0 0 C0.66 0.33 1.32 0.66 2 1 C0.68 4.96 -0.64 8.92 -2 13 C1.96 9.37 5.92 5.74 10 2 C10.99 2.33 11.98 2.66 13 3 C12.34 3 11.68 3 11 3 C11 3.66 11 4.32 11 5 C9.390625 6.62109375 9.390625 6.62109375 7.25 8.4375 C6.55390625 9.03433594 5.8578125 9.63117188 5.140625 10.24609375 C4.43421875 10.82488281 3.7278125 11.40367188 3 12 C2.31421875 12.56847656 1.6284375 13.13695313 0.921875 13.72265625 C-1 15 -1 15 -4 15 C-3.43179252 9.54520815 -2.05362055 5.08940744 0 0 Z " fill="#166391" transform="translate(165,62)"/>
<path d="M0 0 C2.625 0.375 2.625 0.375 5 1 C5.625 3.375 5.625 3.375 6 6 C5.34 6.66 4.68 7.32 4 8 C1.375 7.625 1.375 7.625 -1 7 C-1.625 4.625 -1.625 4.625 -2 2 C-1.34 1.34 -0.68 0.68 0 0 Z " fill="#F2FAF8" transform="translate(366,61)"/>
<path d="M0 0 C0.53625 0.268125 1.0725 0.53625 1.625 0.8125 C1.625 3.8125 1.625 3.8125 0.09375 5.41796875 C-0.5559375 5.94003906 -1.205625 6.46210937 -1.875 7 C-2.5246875 7.52980469 -3.174375 8.05960938 -3.84375 8.60546875 C-4.3490625 9.00378906 -4.854375 9.40210937 -5.375 9.8125 C-5.375 8.4925 -5.375 7.1725 -5.375 5.8125 C-6.365 5.4825 -7.355 5.1525 -8.375 4.8125 C-2.95961538 -0.23365385 -2.95961538 -0.23365385 0 0 Z " fill="#2174A5" transform="translate(184.375,58.1875)"/>
<path d="M0 0 C1 2 1 2 0.43359375 4.3125 C-2.28278323 11.64139161 -2.28278323 11.64139161 -6.25 13.625 C-7.1575 13.74875 -8.065 13.8725 -9 14 C-7.64002446 7.95566426 -4.14348206 4.36505864 0 0 Z " fill="#20B8C0" transform="translate(408,271)"/>
<path d="M0 0 C2.625 0.375 2.625 0.375 5 1 C5.38218767 2.65614657 5.71395102 4.32457024 6 6 C5 7 5 7 1.9375 7.0625 C0.968125 7.041875 -0.00125 7.02125 -1 7 C-1.625 4.625 -1.625 4.625 -2 2 C-1.34 1.34 -0.68 0.68 0 0 Z " fill="#EBF2F6" transform="translate(209,66)"/>
<path d="M0 0 C2.5 0.125 2.5 0.125 3.5 1.125 C3.625 3.625 3.625 3.625 3.5 6.125 C2.5 7.125 2.5 7.125 0.0625 7.3125 C-2.5 7.125 -2.5 7.125 -4.5 5.125 C-3.7519084 0.18759542 -3.7519084 0.18759542 0 0 Z " fill="#E8F5F5" transform="translate(313.5,54.875)"/>
<path d="M0 0 C0.91007812 0.28746094 1.82015625 0.57492187 2.7578125 0.87109375 C3.45648438 1.09925781 4.15515625 1.32742188 4.875 1.5625 C4.875 1.8925 4.875 2.2225 4.875 2.5625 C-4.28064771 2.91165606 -13.08460217 1.83291977 -22.125 0.5625 C-22.125 0.2325 -22.125 -0.0975 -22.125 -0.4375 C-20.53558594 -0.42009766 -20.53558594 -0.42009766 -18.9140625 -0.40234375 C-17.52604342 -0.39296524 -16.13802245 -0.38386511 -14.75 -0.375 C-13.70199219 -0.36243164 -13.70199219 -0.36243164 -12.6328125 -0.34960938 C-0.91501428 -0.29327381 -0.91501428 -0.29327381 0 0 Z " fill="#355F86" transform="translate(244.125,384.4375)"/>
<path d="M0 0 C0.78375 0.04125 1.5675 0.0825 2.375 0.125 C3 2.5 3 2.5 3.375 5.125 C2.715 5.785 2.055 6.445 1.375 7.125 C-1.25 6.75 -1.25 6.75 -3.625 6.125 C-4.25 4.25 -4.25 4.25 -4.625 2.125 C-2.625 0.125 -2.625 0.125 0 0 Z " fill="#F1F9F8" transform="translate(410.625,117.875)"/>
<path d="M0 0 C4.85077588 1.11940982 7.777893 2.1334716 11 6 C10.34 6 9.68 6 9 6 C9 6.99 9 7.98 9 9 C5.0873016 7.6957672 2.62689759 6.21065261 0 3 C0 2.01 0 1.02 0 0 Z " fill="#2A5F8B" transform="translate(202,323)"/>
<path d="M0 0 C1.67542976 0.28604898 3.34385343 0.61781233 5 1 C5.625 2.875 5.625 2.875 6 5 C5.34 5.66 4.68 6.32 4 7 C0.875 6.625 0.875 6.625 -2 6 C-1.125 1.125 -1.125 1.125 0 0 Z " fill="#E4F5F5" transform="translate(436,221)"/>
<path d="M0 0 C2.625 0.375 2.625 0.375 5 1 C5.625 2.875 5.625 2.875 6 5 C5.34 5.66 4.68 6.32 4 7 C1.375 6.625 1.375 6.625 -1 6 C-1.625 4.125 -1.625 4.125 -2 2 C-1.34 1.34 -0.68 0.68 0 0 Z " fill="#EDF0F6" transform="translate(74,148)"/>
<path d="M0 0 C1.22589844 0.01353516 1.22589844 0.01353516 2.4765625 0.02734375 C3.41628906 0.04474609 3.41628906 0.04474609 4.375 0.0625 C4.375 1.3825 4.375 2.7025 4.375 4.0625 C0.415 4.0625 -3.545 4.0625 -7.625 4.0625 C-7.295 3.0725 -6.965 2.0825 -6.625 1.0625 C-4.21954362 -0.14022819 -2.67503047 -0.03821472 0 0 Z " fill="#696B77" transform="translate(972.625,265.9375)"/>
<path d="M0 0 C2.125 0.375 2.125 0.375 4 1 C4.38218767 2.65614657 4.71395102 4.32457024 5 6 C4 7 4 7 1.4375 7.0625 C0.2309375 7.0315625 0.2309375 7.0315625 -1 7 C-1.625 4.625 -1.625 4.625 -2 2 C-1.34 1.34 -0.68 0.68 0 0 Z " fill="#F4FAFA" transform="translate(388,340)"/>
<path d="M0 0 C1.22589844 0.01353516 1.22589844 0.01353516 2.4765625 0.02734375 C3.41628906 0.04474609 3.41628906 0.04474609 4.375 0.0625 C4.705 0.7225 5.035 1.3825 5.375 2.0625 C5.045 2.7225 4.715 3.3825 4.375 4.0625 C2.91676788 4.0895043 1.45839325 4.10889787 0 4.125 C-0.81210937 4.13660156 -1.62421875 4.14820313 -2.4609375 4.16015625 C-4.625 4.0625 -4.625 4.0625 -6.625 3.0625 C-6.625 2.4025 -6.625 1.7425 -6.625 1.0625 C-4.21954362 -0.14022819 -2.67503047 -0.03821472 0 0 Z " fill="#646771" transform="translate(968.625,275.9375)"/>
<path d="M0 0 C2.125 0.375 2.125 0.375 4 1 C4.38218767 2.65614657 4.71395102 4.32457024 5 6 C4 7 4 7 1.4375 7.0625 C0.2309375 7.0315625 0.2309375 7.0315625 -1 7 C-1.625 4.625 -1.625 4.625 -2 2 C-1.34 1.34 -0.68 0.68 0 0 Z " fill="#E9F7F8" transform="translate(437,264)"/>
<path d="M0 0 C2.125 0.375 2.125 0.375 4 1 C3.34 1.37125 2.68 1.7425 2 2.125 C-0.26735791 3.87576711 -0.26735791 3.87576711 -0.5 6.8125 C0.13866437 10.88398538 1.26526629 12.91465941 4 16 C7.61416517 17.43917432 7.61416517 17.43917432 11 18 C11 18.33 11 18.66 11 19 C7.26789965 19.34717213 5.45929542 19.2922789 2.25 17.25 C-0.44421185 14.55578815 -1.8226864 12.52802606 -2.265625 8.7109375 C-2.26046875 7.94007813 -2.2553125 7.16921875 -2.25 6.375 C-2.25515625 5.59898437 -2.2603125 4.82296875 -2.265625 4.0234375 C-2 2 -2 2 0 0 Z " fill="#131B45" transform="translate(58,254)"/>
<path d="M0 0 C2.125 0.375 2.125 0.375 4 1 C4.38218767 2.65614657 4.71395102 4.32457024 5 6 C4 7 4 7 1.4375 7.0625 C0.2309375 7.0315625 0.2309375 7.0315625 -1 7 C-1.625 4.625 -1.625 4.625 -2 2 C-1.34 1.34 -0.68 0.68 0 0 Z " fill="#E5EDF2" transform="translate(176,30)"/>
<path d="M0 0 C1.32 0 2.64 0 4 0 C4.625 2.375 4.625 2.375 5 5 C4.34 5.66 3.68 6.32 3 7 C0.875 6.625 0.875 6.625 -1 6 C-1.625 4.125 -1.625 4.125 -2 2 C-1.34 1.34 -0.68 0.68 0 0 Z " fill="#E9EDF2" transform="translate(115,80)"/>
<path d="M0 0 C0.66 1.32 1.32 2.64 2 4 C-1.6441774 6.4294516 -3.71241272 6.16179575 -8 6 C-8 5.01 -8 4.02 -8 3 C-5.36 2.01 -2.72 1.02 0 0 Z " fill="#626672" transform="translate(848,284)"/>
<path d="M0 0 C2.11386464 2.11386464 2.97008322 3.79267603 4.1875 6.5 C4.55230469 7.2940625 4.91710937 8.088125 5.29296875 8.90625 C5.52628906 9.5971875 5.75960937 10.288125 6 11 C5.67 11.66 5.34 12.32 5 13 C4.67 12.01 4.34 11.02 4 10 C3.34 10 2.68 10 2 10 C1.67 11.32 1.34 12.64 1 14 C-0.04976964 10.85069107 -0.10131595 8.61185544 -0.0625 5.3125 C-0.05347656 4.31863281 -0.04445312 3.32476562 -0.03515625 2.30078125 C-0.02355469 1.54152344 -0.01195312 0.78226563 0 0 Z " fill="#335077" transform="translate(158,214)"/>
<path d="M0 0 C3.96 0 7.92 0 12 0 C12 0.99 12 1.98 12 3 C8.37 3 4.74 3 1 3 C0.67 2.01 0.34 1.02 0 0 Z " fill="#626470" transform="translate(621,276)"/>
<path d="M0 0 C3.96 0 7.92 0 12 0 C12 0.99 12 1.98 12 3 C8.04 3 4.08 3 0 3 C0 2.01 0 1.02 0 0 Z " fill="#5D606B" transform="translate(931,276)"/>
<path d="M0 0 C1.22589844 0.15275391 1.22589844 0.15275391 2.4765625 0.30859375 C3.41628906 0.43427734 3.41628906 0.43427734 4.375 0.5625 C4.375 0.8925 4.375 1.2225 4.375 1.5625 C1.075 1.5625 -2.225 1.5625 -5.625 1.5625 C-7.29405241 4.90060482 -8.4991386 8.02407845 -9.625 11.5625 C-9.955 11.5625 -10.285 11.5625 -10.625 11.5625 C-10.98171933 7.72776716 -10.92271416 6.00907125 -8.75 2.75 C-5.62791423 -0.46391183 -4.29848723 -0.55266264 0 0 Z " fill="#2C69A2" transform="translate(76.625,141.4375)"/>
<path d="M0 0 C3.63 0 7.26 0 11 0 C10.01 1.98 9.02 3.96 8 6 C6.66402348 5.19185349 5.331275 4.37836819 4 3.5625 C3.2575 3.11003906 2.515 2.65757812 1.75 2.19140625 C1.1725 1.79824219 0.595 1.40507812 0 1 C0 0.67 0 0.34 0 0 Z " fill="#478DA8" transform="translate(234,346)"/>
<path d="M0 0 C1.98 0 3.96 0 6 0 C5.525625 0.350625 5.05125 0.70125 4.5625 1.0625 C2.32126175 3.84163543 2.32882342 6.5144717 2 10 C5.3 10 8.6 10 12 10 C12 10.33 12 10.66 12 11 C8.37 11 4.74 11 1 11 C0.67 7.37 0.34 3.74 0 0 Z " fill="#3E4B75" transform="translate(660,242)"/>
<path d="M0 0 C2.32472205 2.85306797 3.7508258 5.54074837 5 9 C4.01 9.33 3.02 9.66 2 10 C1.67 10.99 1.34 11.98 1 13 C-0.10228696 8.59085217 -0.07654536 4.51617599 0 0 Z " fill="#375C85" transform="translate(148,241)"/>
<path d="M0 0 C5.94 1.485 5.94 1.485 12 3 C12 3.99 12 4.98 12 6 C7.24518354 5.42365861 4.02951788 3.44931479 0 1 C0 0.67 0 0.34 0 0 Z " fill="#D8E4EB" transform="translate(170,310)"/>
<path d="M0 0 C1.65 0 3.3 0 5 0 C5 1.65 5 3.3 5 5 C1.7 4.67 -1.6 4.34 -5 4 C-3.68 3.67 -2.36 3.34 -1 3 C-0.67 2.01 -0.34 1.02 0 0 Z " fill="#767782" transform="translate(884,266)"/>
<path d="M0 0 C-2.85040267 2.85040267 -6.01516371 3.64561733 -10 4 C-12.5 2.625 -12.5 2.625 -14 1 C-9.23692563 0.04738513 -4.8333472 -0.08333357 0 0 Z " fill="#2D7199" transform="translate(282,310)"/>
<path d="M0 0 C0.66 0.33 1.32 0.66 2 1 C2 1.99 2 2.98 2 4 C0.71349294 4.69710731 -0.57940665 5.38242876 -1.875 6.0625 C-2.95394531 6.63677734 -2.95394531 6.63677734 -4.0546875 7.22265625 C-4.69664062 7.47917969 -5.33859375 7.73570312 -6 8 C-6.66 7.67 -7.32 7.34 -8 7 C-5.36 4.69 -2.72 2.38 0 0 Z " fill="#2A8CA5" transform="translate(331,282)"/>
<path d="M0 0 C0.66 0 1.32 0 2 0 C1.27991594 4.60853797 -0.31295939 8.67237409 -2 13 C-2.33 13 -2.66 13 -3 13 C-3 10.03 -3 7.06 -3 4 C-2.34 4 -1.68 4 -1 4 C-0.67 2.68 -0.34 1.36 0 0 Z " fill="#236189" transform="translate(114,163)"/>
<path d="M0 0 C2.97 0.33 5.94 0.66 9 1 C9 1.99 9 2.98 9 4 C6.03 4 3.06 4 0 4 C0 2.68 0 1.36 0 0 Z " fill="#5F606C" transform="translate(960,286)"/>
<path d="M0 0 C2.97 0 5.94 0 9 0 C9 1.32 9 2.64 9 4 C6.03 3.67 3.06 3.34 0 3 C0 2.01 0 1.02 0 0 Z " fill="#60616E" transform="translate(660,266)"/>
<path d="M0 0 C0.66 0.33 1.32 0.66 2 1 C1.54625 1.515625 1.0925 2.03125 0.625 2.5625 C-1.38200383 5.57300574 -2.12731809 8.50927237 -3 12 C-3.33 12 -3.66 12 -4 12 C-4.33292585 7.75519536 -4.43885872 5.64457375 -2 2.0625 C-1.34 1.381875 -0.68 0.70125 0 0 Z " fill="#3DBECC" transform="translate(432,259)"/>
<path d="M0 0 C2.31 0 4.62 0 7 0 C6.67 0.99 6.34 1.98 6 3 C3.69 3.33 1.38 3.66 -1 4 C-0.67 2.68 -0.34 1.36 0 0 Z " fill="#616470" transform="translate(877,266)"/>
<path d="M0 0 C1.32 0 2.64 0 4 0 C4 1.65 4 3.3 4 5 C2.35 4.67 0.7 4.34 -1 4 C-0.67 2.68 -0.34 1.36 0 0 Z " fill="#DAE9F0" transform="translate(222,27)"/>
<path d="M0 0 C4.455 0.99 4.455 0.99 9 2 C9 3.65 9 5.3 9 7 C7.4972763 6.02501855 5.99788037 5.04490611 4.5 4.0625 C3.6646875 3.51722656 2.829375 2.97195313 1.96875 2.41015625 C1.3190625 1.94480469 0.669375 1.47945313 0 1 C0 0.67 0 0.34 0 0 Z " fill="#42668F" transform="translate(195,354)"/>
<path d="M0 0 C-1.81325551 -0.11351517 -3.62563357 -0.24112961 -5.4375 -0.375 C-6.95150391 -0.47941406 -6.95150391 -0.47941406 -8.49609375 -0.5859375 C-9.32238281 -0.72257812 -10.14867187 -0.85921875 -11 -1 C-11.33 -1.66 -11.66 -2.32 -12 -3 C-7.15149569 -4.79574234 -4.07880723 -2.71920482 0 0 Z " fill="#3F799A" transform="translate(229,353)"/>
<path d="M0 0 C2.64752004 2.57784846 4.94432065 4.91648098 7 8 C6.01 8.66 5.02 9.32 4 10 C3.32845067 8.71086513 2.66291141 7.41859796 2 6.125 C1.62875 5.40570313 1.2575 4.68640625 0.875 3.9453125 C0 2 0 2 0 0 Z " fill="#3D446B" transform="translate(100,289)"/>
<path d="M0 0 C1.98 0.495 1.98 0.495 4 1 C4 2.32 4 3.64 4 5 C2.35 4.67 0.7 4.34 -1 4 C-0.67 2.68 -0.34 1.36 0 0 Z " fill="#EAF4F7" transform="translate(280,40)"/>
<path d="M0 0 C1.98 0.495 1.98 0.495 4 1 C3.67 2.32 3.34 3.64 3 5 C1.68 4.67 0.36 4.34 -1 4 C-0.67 2.68 -0.34 1.36 0 0 Z " fill="#D9E6EB" transform="translate(265,67)"/>
<path d="M0 0 C0.99 0 1.98 0 3 0 C3 4.62 3 9.24 3 14 C2.67 14 2.34 14 2 14 C1.92652344 12.84371094 1.92652344 12.84371094 1.8515625 11.6640625 C1.77679688 10.66117188 1.70203125 9.65828125 1.625 8.625 C1.55539063 7.62726563 1.48578125 6.62953125 1.4140625 5.6015625 C1.23636036 2.84491121 1.23636036 2.84491121 -1 1 C-0.67 0.67 -0.34 0.34 0 0 Z " fill="#1A365F" transform="translate(202,187)"/>
<path d="M0 0 C6.52307692 0.61538462 6.52307692 0.61538462 8.9375 2.5625 C9.288125 3.036875 9.63875 3.51125 10 4 C3.49618902 4.36814024 3.49618902 4.36814024 1.0625 2.5625 C0 1 0 1 0 0 Z " fill="#757683" transform="translate(656,266)"/>
<path d="M0 0 C-1.28519565 2.86697492 -2.57129254 4.97607712 -5 7 C-5.66 7 -6.32 7 -7 7 C-3.86206897 0 -3.86206897 0 0 0 Z " fill="#1A2856" transform="translate(596,177)"/>
<path d="M0 0 C0 3.90838866 -1.50567876 5.11594107 -4 8 C-4.99 7.67 -5.98 7.34 -7 7 C-4.66666667 4.66666667 -2.33333333 2.33333333 0 0 Z " fill="#1A2A57" transform="translate(707,179)"/>
<path d="M0 0 C1 2 1 2 0.3125 4.4375 C-1.10829685 7.21143671 -2.39746148 8.35172561 -5 10 C-3.66511872 6.40608886 -2.03977277 3.24509304 0 0 Z " fill="#29719F" transform="translate(168,45)"/>
<path d="M0 0 C2.86724686 0.57344937 3.8614515 0.8614515 6 3 C4.02 3.33 2.04 3.66 0 4 C0 2.68 0 1.36 0 0 Z " fill="#2F6C92" transform="translate(211,329)"/>
<path d="M0 0 C-0.66 1.65 -1.32 3.3 -2 5 C-3.32 4.67 -4.64 4.34 -6 4 C-2.25 0 -2.25 0 0 0 Z " fill="#129AA7" transform="translate(397,285)"/>
<path d="M0 0 C0 0.66 0 1.32 0 2 C0.66 2.33 1.32 2.66 2 3 C-0.64 3.33 -3.28 3.66 -6 4 C-5.67 3.01 -5.34 2.02 -5 1 C-3 0 -3 0 0 0 Z " fill="#616470" transform="translate(971,266)"/>
<path d="M0 0 C1.32 0 2.64 0 4 0 C4 0.99 4 1.98 4 3 C2.02 3.33 0.04 3.66 -2 4 C-1.34 2.68 -0.68 1.36 0 0 Z " fill="#5D5E69" transform="translate(839,266)"/>
<path d="M0 0 C0.99 0 1.98 0 3 0 C3 1.98 3 3.96 3 6 C2.01 6.495 2.01 6.495 1 7 C0.67 4.69 0.34 2.38 0 0 Z " fill="#64646F" transform="translate(906,266)"/>
</svg>
