<?xml version="1.0" encoding="UTF-8"?>
<svg version="1.1" xmlns="http://www.w3.org/2000/svg" width="1434" height="476">
<path d="M0 0 C473.22 0 946.44 0 1434 0 C1434 157.08 1434 314.16 1434 476 C960.78 476 487.56 476 0 476 C0 318.92 0 161.84 0 0 Z " fill="#FDFDFD" transform="translate(0,0)"/>
<path d="M0 0 C21.36738327 -0.06788712 42.73467836 -0.12308049 64.10214233 -0.15543652 C74.02484007 -0.17086354 83.94746573 -0.19187282 93.87011719 -0.22631836 C102.52511649 -0.25634888 111.18006356 -0.27560522 119.83511353 -0.28226548 C124.4120735 -0.28615475 128.9888841 -0.29520683 133.5657959 -0.31719017 C137.88646459 -0.33777177 142.20692442 -0.34379073 146.52763748 -0.33932304 C148.1012346 -0.34013867 149.67483976 -0.34597387 151.24839401 -0.35761642 C161.88632528 -0.43236828 171.588651 0.7753222 182 3 C183.85270387 3.32105861 185.70655729 3.63572702 187.5625 3.9375 C192.03868855 4.83573182 195.13177513 6.59148263 199 9 C200.19625 9.474375 201.3925 9.94875 202.625 10.4375 C206.31103541 12.14399788 208.2210913 14.07858316 211 17 C211.928125 17.556875 212.85625 18.11375 213.8125 18.6875 C217.70417626 21.51087297 220.20052887 24.81233157 223.109375 28.609375 C225.03491205 31.15759562 225.03491205 31.15759562 227.8125 33.6875 C230.03918611 36.04142532 230.85576783 38.07235512 232.06958008 41.02270508 C233.76398104 44.623585 236.12816418 47.77249452 238.4375 51 C241.20522162 54.89946204 243.91353138 58.74492498 246.22265625 62.9375 C247.65922166 66.05840623 247.65922166 66.05840623 250 67 C250.66666667 68.66666667 251.33333333 70.33333333 252 72 C252.67417969 72.88429688 253.34835937 73.76859375 254.04296875 74.6796875 C256.3329858 78.56494598 256.56582999 81.56186142 256.4375 85.9375 C256.44458984 86.61490234 256.45167969 87.29230469 256.45898438 87.99023438 C256.35395029 96.41719992 252.79148593 102.16644517 247 108 C245.97321461 108.89241594 244.93205405 109.76865242 243.875 110.625 C241.12220231 112.89905027 239.21008466 115.21957091 237 118 C236.236875 118.598125 235.47375 119.19625 234.6875 119.8125 C230.36339505 123.33212031 226.94735803 127.65464179 223.39453125 131.93359375 C220.49074517 135.4047005 217.60482418 138.22705832 214 141 C209.48200327 145.31685304 205.52717189 150.0233124 201.54882812 154.828125 C190.43226574 168.02456035 174.77255116 172.93551291 158 175 C155.21667182 175.0846329 152.46017645 175.12699833 149.67797852 175.11352539 C148.45751406 175.11370619 148.45751406 175.11370619 147.21239376 175.11389065 C144.6012026 175.11314941 141.99008449 175.10555742 139.37890625 175.09765625 C137.75777216 175.09618438 136.13663759 175.09516518 134.51550293 175.09460449 C128.53116133 175.08937997 122.54682993 175.0754187 116.5625 175.0625 C103.176875 175.041875 89.79125 175.02125 76 175 C76 207.67 76 240.34 76 274 C50.92 274 25.84 274 0 274 C0 220.54 0 167.08 0 112 C50.82 111.67 101.64 111.34 154 111 C154 110.34 154 109.68 154 109 C154.66386719 108.69707031 155.32773437 108.39414063 156.01171875 108.08203125 C161.27943508 105.58274978 165.07890973 103.28869248 169 99 C169.66 99 170.32 99 171 99 C171.19654959 96.0003508 171.38246106 93.00064899 171.5625 90 C171.61857422 89.16082031 171.67464844 88.32164062 171.73242188 87.45703125 C172.19350971 79.5263204 171.90370547 73.12850564 168 66 C168 65.34 168 64.68 168 64 C167.113125 63.731875 166.22625 63.46375 165.3125 63.1875 C162.20941503 62.07507331 159.81097929 60.68658758 157 59 C148.19180749 55.55331597 139.30880934 55.83468363 129.98657227 55.79467773 C128.56683576 55.78508711 127.14710204 55.77507635 125.72737122 55.76467896 C121.88908307 55.73775209 118.05078278 55.71667676 114.21245313 55.69667697 C110.19523765 55.67474163 106.17805907 55.64739002 102.16087341 55.62062073 C94.56086019 55.57079557 86.96082637 55.52581917 79.36077303 55.48259836 C70.70537012 55.43313877 62.05000426 55.37825311 53.39463723 55.32291877 C35.59645774 55.20925503 17.79824404 55.10309847 0 55 C0 36.85 0 18.7 0 0 Z " fill="#1D325F" transform="translate(114,113)"/>
<path d="M0 0 C3.32057628 0.30029559 4.70984029 0.70821929 7.09765625 3.109375 C8.07025391 4.41648438 8.07025391 4.41648438 9.0625 5.75 C10.03896484 7.04164063 10.03896484 7.04164063 11.03515625 8.359375 C12.00775391 9.66648437 12.00775391 9.66648437 13 11 C13.74121094 11.89203125 14.48242188 12.7840625 15.24609375 13.703125 C17 16 17 16 17 18 C17.5990918 18.25652344 18.19818359 18.51304687 18.81542969 18.77734375 C21.2227819 20.12468616 22.32013836 21.35846895 23.953125 23.5625 C24.75327026 24.62778931 24.75327026 24.62778931 25.56958008 25.71459961 C26.40138794 26.8458728 26.40138794 26.8458728 27.25 28 C28.40393454 29.54372677 29.55888032 31.08669816 30.71484375 32.62890625 C31.55378174 33.75256592 31.55378174 33.75256592 32.40966797 34.89892578 C35.07524981 38.42057106 37.88253947 41.81962992 40.70703125 45.21484375 C42 47 42 47 42 49 C42.5775 49.226875 43.155 49.45375 43.75 49.6875 C46.56427613 51.32916107 48.02737733 53.43559053 50 56 C50.66 56.33 51.32 56.66 52 57 C53.00518185 58.66354658 54.00412846 60.3308632 55 62 C56.50907691 63.90132795 58.05389986 65.77459317 59.625 67.625 C60.51993734 68.68585547 61.41445974 69.74706111 62.30859375 70.80859375 C62.75831543 71.34081543 63.20803711 71.87303711 63.67138672 72.42138672 C68.55757078 78.22698505 73.33854207 84.12435208 78.0625 90.0625 C78.63097656 90.77535156 79.19945312 91.48820312 79.78515625 92.22265625 C81 94 81 94 81 96 C81.66 96 82.32 96 83 96 C84.51984883 97.67535459 85.96706453 99.41705622 87.375 101.1875 C88.14585937 102.15042969 88.91671875 103.11335938 89.7109375 104.10546875 C90.46632813 105.06066406 91.22171875 106.01585937 92 107 C93.33275071 108.6671326 94.66596856 110.33389206 96 112 C99 115.75 99 115.75 99 118 C99.66 118 100.32 118 101 118 C102.33264423 119.48856066 103.59219479 121.04303645 104.8125 122.625 C107.14566293 125.62963787 109.481362 128.58689253 112 131.4375 C114 134 114 134 114 137 C101.40468161 137.11571322 88.8094891 137.20462377 76.21374798 137.25906086 C70.3653712 137.2851845 64.51735733 137.32063365 58.66918945 137.37719727 C53.02818536 137.43141741 47.3875309 137.46139968 41.74628639 137.47438622 C39.5911998 137.48364402 37.43613292 137.50172191 35.28119469 137.52865028 C32.26866273 137.56480718 29.25758611 137.56995088 26.24487305 137.56762695 C24.90051933 137.59459152 24.90051933 137.59459152 23.52900696 137.62210083 C21.24188985 137.60293693 19.21965027 137.55101884 17 137 C14.89724973 134.56058362 14 133.22496983 14 130 C13.12601562 129.62875 13.12601562 129.62875 12.234375 129.25 C9.66885764 127.81474554 8.16275202 126.22336987 6.25 124 C5.32960938 122.948125 5.32960938 122.948125 4.390625 121.875 C3 120 3 120 3 118 C2.401875 117.773125 1.80375 117.54625 1.1875 117.3125 C-1.64291452 115.61425129 -2.372483 113.87945316 -4 111 C-6.64411287 107.20293094 -9.3496969 103.6503031 -12.625 100.375 C-15 98 -15 98 -16.8046875 95.26171875 C-19.16085489 91.76100741 -21.74494888 88.62420082 -24.5 85.4375 C-25.44855334 84.33257751 -26.39648004 83.22711671 -27.34375 82.12109375 C-27.79621094 81.59370605 -28.24867188 81.06631836 -28.71484375 80.52294922 C-29.88841267 79.13223437 -31.02449265 77.71010436 -32.15625 76.28515625 C-33.8714255 74.07344238 -33.8714255 74.07344238 -35.484375 72.52734375 C-37.63084265 70.3642797 -39.41558078 67.99409527 -41.25 65.5625 C-41.97703125 64.61503906 -42.7040625 63.66757812 -43.453125 62.69140625 C-45 60 -45 60 -44.75634766 58.04418945 C-43.9317227 55.81546617 -42.96836794 54.41950406 -41.4453125 52.6015625 C-40.6550769 51.64600464 -40.6550769 51.64600464 -39.84887695 50.67114258 C-39.27999756 49.99591553 -38.71111816 49.32068848 -38.125 48.625 C-36.93265701 47.18436853 -35.74126668 45.74294811 -34.55078125 44.30078125 C-33.65286865 43.21724365 -33.65286865 43.21724365 -32.73681641 42.11181641 C-30.21653125 39.04737072 -27.757463 35.93718484 -25.3125 32.8125 C-24.86543701 32.24168701 -24.41837402 31.67087402 -23.95776367 31.08276367 C-19.70023578 25.63427551 -15.484279 20.15399661 -11.27783203 14.66601562 C-8.98031034 11.67054599 -6.6772593 8.67932885 -4.375 5.6875 C-3.52862328 4.58725693 -2.68226692 3.4869982 -1.8359375 2.38671875 C-0.92714844 1.20529297 -0.92714844 1.20529297 0 0 Z " fill="#367B91" transform="translate(416,249)"/>
<path d="M0 0 C1.9375 0.8125 1.9375 0.8125 4 2 C4.33 2.99 4.66 3.98 5 5 C5.66 5 6.32 5 7 5 C7.33 6.32 7.66 7.64 8 9 C8.66 9 9.32 9 10 9 C11.49877503 10.65483608 12.92488473 12.37590512 14.3125 14.125 C16.84491157 17.31199292 19.37392527 20.43844107 22.125 23.4375 C24 26 24 26 23.7878418 27.93457031 C22.90909378 30.23832248 21.85089844 31.72119055 20.26953125 33.609375 C19.71330078 34.28226563 19.15707031 34.95515625 18.58398438 35.6484375 C17.99939453 36.34195313 17.41480469 37.03546875 16.8125 37.75 C12.38462627 43.06142892 8.10459335 48.43418692 4 54 C2.71937515 55.7074998 1.40549561 57.39371931 0 59 C-0.66 59 -1.32 59 -2 59 C-2.28875 59.598125 -2.5775 60.19625 -2.875 60.8125 C-4 63 -4 63 -6 66 C-6.66 66 -7.32 66 -8 66 C-8.103125 66.928125 -8.20625 67.85625 -8.3125 68.8125 C-9.00531495 72.02464205 -9.3879169 73.11930017 -12 75 C-12.66 75 -13.32 75 -14 75 C-14.0928125 75.74121094 -14.185625 76.48242188 -14.28125 77.24609375 C-15.11730706 80.44946454 -16.21015556 81.70450543 -18.5 84.0625 C-24.33532068 90.34588994 -29.32112644 97.22292613 -34.27734375 104.2109375 C-34.99019531 105.21382813 -35.70304688 106.21671875 -36.4375 107.25 C-37.07558594 108.16265625 -37.71367187 109.0753125 -38.37109375 110.015625 C-39.17740234 110.99789062 -39.17740234 110.99789062 -40 112 C-40.66 112 -41.32 112 -42 112 C-42.27529541 112.58467041 -42.55059082 113.16934082 -42.83422852 113.77172852 C-43.95804957 115.91981539 -45.18419688 117.72751936 -46.65234375 119.65234375 C-47.17626709 120.34005859 -47.70019043 121.02777344 -48.23999023 121.73632812 C-48.80016846 122.46271484 -49.36034668 123.18910156 -49.9375 123.9375 C-50.51508057 124.69095703 -51.09266113 125.44441406 -51.68774414 126.22070312 C-55.7449454 131.47532102 -59.95815153 136.56359842 -64.30615234 141.57861328 C-67.53871789 145.3433181 -70.31233122 149.24619731 -72.87890625 153.48828125 C-73.24886719 153.98714844 -73.61882812 154.48601562 -74 155 C-74.66 155 -75.32 155 -76 155 C-76.26848755 155.5529776 -76.5369751 156.1059552 -76.81359863 156.6756897 C-79.31974815 161.58555351 -81.52753616 165.60852586 -86 169 C-92.10356053 170.40590594 -98.05178266 170.16854948 -104.28125 169.9765625 C-106.06339536 169.95788987 -107.84559238 169.94366534 -109.62780762 169.9336853 C-114.29809586 169.89566779 -118.96522839 169.79759439 -123.63427734 169.68664551 C-128.4067923 169.58398236 -133.17982196 169.53859937 -137.953125 169.48828125 C-147.30346305 169.38132672 -156.65146822 169.21086698 -166 169 C-163.44909353 163.63390396 -159.94590921 159.72418881 -155.4375 155.9375 C-151.58930391 152.6610359 -148.16739061 149.08824153 -144.75 145.375 C-144.24267334 144.82448975 -143.73534668 144.27397949 -143.21264648 143.70678711 C-141.01442706 141.29655114 -138.90639288 138.88113107 -136.88671875 136.31640625 C-135.0831154 134.10204437 -133.25920259 132.37641085 -131.0625 130.5625 C-128.48455757 128.37340922 -126.22946529 126.21025455 -124.125 123.5625 C-123.073125 122.2940625 -123.073125 122.2940625 -122 121 C-121.34 121 -120.68 121 -120 121 C-119.505 119.515 -119.505 119.515 -119 118 C-118.34 118 -117.68 118 -117 118 C-116.505 116.515 -116.505 116.515 -116 115 C-115.34 115 -114.68 115 -114 115 C-113.73574219 114.39671875 -113.47148437 113.7934375 -113.19921875 113.171875 C-111.94244926 110.8957713 -110.84559838 109.83181567 -108.8125 108.25 C-105.42658678 105.46571598 -102.66004639 102.41783054 -99.828125 99.08203125 C-97.27978714 96.17975758 -94.52291333 93.51068824 -91.76953125 90.8046875 C-89.87987987 88.9452386 -89.87987987 88.9452386 -88 86.4375 C-85.55387791 83.4562887 -82.76053406 81.11350199 -79.8046875 78.6484375 C-77.78227744 76.93367669 -77.78227744 76.93367669 -76 74 C-75.34 74 -74.68 74 -74 74 C-73.505 72.515 -73.505 72.515 -73 71 C-72.34 71 -71.68 71 -71 71 C-70.505 69.515 -70.505 69.515 -70 68 C-69.34 68 -68.68 68 -68 68 C-67.505 66.515 -67.505 66.515 -67 65 C-66.34 65 -65.68 65 -65 65 C-64.7525 64.38125 -64.505 63.7625 -64.25 63.125 C-62.77229238 60.61289704 -61.56044823 60.23892656 -59 59 C-58.67 58.01 -58.34 57.02 -58 56 C-57.34 56 -56.68 56 -56 56 C-55.79375 55.46375 -55.5875 54.9275 -55.375 54.375 C-52.99476939 50.26369259 -49.7278537 46.99825263 -45.61328125 44.62109375 C-42.62652774 42.76832438 -40.44856379 40.64242965 -38 38.125 C-37.175 37.28195313 -36.35 36.43890625 -35.5 35.5703125 C-34.675 34.72210938 -33.85 33.87390625 -33 33 C-29.64899186 29.59085134 -26.20120617 26.35894932 -22.625 23.1875 C-18.73773905 19.67391433 -15.20219282 16.10041487 -11.8359375 12.09375 C-8.11563967 7.85102737 -4.02455783 3.95167852 0 0 Z " fill="#2D5575" transform="translate(391,218)"/>
<path d="M0 0 C62.69230769 0 62.69230769 0 80 5 C80 5.66 80 6.32 80 7 C80.680625 7.0825 81.36125 7.165 82.0625 7.25 C85.80392713 8.20525799 88.95254646 9.60330477 92 12 C93.1875 14.625 93.1875 14.625 94 17 C94.63035156 17.29777344 95.26070312 17.59554687 95.91015625 17.90234375 C98.46274631 19.24304993 99.03945467 20.35788555 100.25 22.9375 C100.75273438 23.97197266 100.75273438 23.97197266 101.265625 25.02734375 C102 27 102 27 102 30 C102.66 30 103.32 30 104 30 C105.59255911 42.14326321 106.49928183 54.76233713 101 66 C100.34 66 99.68 66 99 66 C98.88785156 66.58007812 98.77570313 67.16015625 98.66015625 67.7578125 C96.7127534 74.37206832 91.25075753 78.94473958 85.734375 82.67578125 C83.72411199 84.06206816 83.72411199 84.06206816 82 87 C78.875 87.6875 78.875 87.6875 76 88 C76 88.66 76 89.32 76 90 C65.56332518 91.8305973 55.69648341 92.24973401 45.125 92.125 C40.13375 92.08375 35.1425 92.0425 30 92 C30 106.52 30 121.04 30 136 C20.1 136 10.2 136 0 136 C0 91.12 0 46.24 0 0 Z " fill="#1A264C" transform="translate(546,158)"/>
<path d="M0 0 C5.15927821 -0.19840443 10.31631888 -0.3432153 15.47851562 -0.43945312 C17.23248993 -0.47958095 18.98619831 -0.53410049 20.73925781 -0.60351562 C35.29188191 -1.16513789 35.29188191 -1.16513789 39.44384766 1.66699219 C41.03122169 3.74513218 42.03408314 5.57804882 43 8 C43.70508899 9.4182842 44.41298202 10.83518166 45.125 12.25 C45.43695312 12.91386719 45.74890625 13.57773438 46.0703125 14.26171875 C47.3230694 16.60405833 49.10067474 18.16002866 51 20 C55 26.04109589 55 26.04109589 55 29 C55.66 29 56.32 29 57 29 C57.268125 29.928125 57.53625 30.85625 57.8125 31.8125 C58.98039329 34.94737145 59.69990003 35.79190403 62 38 C63 40 64 42 65 44 C65.66 44.33 66.32 44.66 67 45 C67.09539062 44.29488281 67.19078125 43.58976562 67.2890625 42.86328125 C68.12643022 39.49080577 69.51582038 37.11747294 71.375 34.1875 C71.98085937 33.21167969 72.58671875 32.23585937 73.2109375 31.23046875 C73.80132813 30.49441406 74.39171875 29.75835937 75 29 C75.99 29 76.98 29 78 29 C78.11601563 28.42894531 78.23203125 27.85789063 78.3515625 27.26953125 C79.05805689 24.79680089 80.07606111 22.90356848 81.375 20.6875 C83.55340266 16.87371679 85.35481371 13.06967135 87 9 C87.66 9 88.32 9 89 9 C89 8.34 89 7.68 89 7 C89.66 7 90.32 7 91 7 C91.28875 6.21625 91.5775 5.4325 91.875 4.625 C93 2 93 2 95 0 C97.58103306 -0.17502995 100.05308163 -0.23162279 102.6328125 -0.1953125 C103.76056595 -0.19106766 103.76056595 -0.19106766 104.91110229 -0.18673706 C107.31589578 -0.17552874 109.72031881 -0.15042352 112.125 -0.125 C113.75390088 -0.11497102 115.38280758 -0.10584503 117.01171875 -0.09765625 C121.00795556 -0.07558735 125.00391494 -0.04105351 129 0 C127.34353479 4.32980704 125.19776039 8.11635748 122.6875 12 C122.30916016 12.60328125 121.93082031 13.2065625 121.54101562 13.828125 C119.05477313 17.69841789 116.30252186 20.76975555 113 24 C111.20679176 27.16645474 111.20679176 27.16645474 110 30 C109.34 30 108.68 30 108 30 C107.34 31.98 106.68 33.96 106 36 C105.34 36 104.68 36 104 36 C103.62875 36.804375 103.62875 36.804375 103.25 37.625 C101.69347463 40.5823982 99.96564327 43.29724051 98 46 C97.34 46 96.68 46 96 46 C95.9071875 47.299375 95.9071875 47.299375 95.8125 48.625 C94.96836061 52.13142515 93.73605909 53.78560465 91.33984375 56.41796875 C88.66226231 59.5795445 86.84621104 63.30757792 85 67 C84.34 67 83.68 67 83 67 C83 67.99 83 68.98 83 70 C83.66 70 84.32 70 85 70 C88.39981556 73.65903904 91.03588966 77.91973008 93.375 82.3125 C95.88231966 87.01068151 98.97227803 91.16116264 102.1484375 95.42578125 C103.65281536 97.51731081 104.96117352 99.55426465 106.1875 101.8125 C107.93048222 105.09629736 107.93048222 105.09629736 110.5 108 C112.75668393 110.70802071 114.30838 113.22273402 115.96875 116.2890625 C117.31528211 118.52308168 119.05236505 120.36381194 120.765625 122.3203125 C123.14100184 125.55262909 124.49318367 129.30682271 126 133 C126.33 133.66 126.66 134.32 127 135 C123.43072615 136.18975795 120.20053028 136.12478155 116.48828125 136.09765625 C115.76005661 136.0962413 115.03183197 136.09482635 114.28153992 136.09336853 C111.95848461 136.08777659 109.63552612 136.07522562 107.3125 136.0625 C105.73632952 136.05748396 104.16015752 136.05292123 102.58398438 136.04882812 C98.72261902 136.0378098 94.86132592 136.02055074 91 136 C90.0234375 134.26965332 89.046875 132.53930664 88.0703125 130.80895996 C86.55029831 128.23994875 84.79441151 125.88320279 83 123.5 C80.80322914 120.52503725 78.66662669 117.61197258 76.875 114.375 C74.85759854 110.74367737 72.56634224 107.40581129 70.171875 104.015625 C69 102 69 102 69 99 C68.34 99 67.68 99 67 99 C66.01 95.535 66.01 95.535 65 92 C62.83790497 94.03810112 61.21114017 96.05130445 59.66015625 98.58203125 C59.23669922 99.26716797 58.81324219 99.95230469 58.37695312 100.65820312 C57.94318359 101.36912109 57.50941406 102.08003906 57.0625 102.8125 C54.11971355 107.59949146 51.14319327 112.34046153 48 117 C47.17489738 118.24160058 46.35073117 119.48382379 45.52734375 120.7265625 C44.66407525 122.02605014 43.80079385 123.3255292 42.9375 124.625 C42.2868457 125.60726562 42.2868457 125.60726562 41.62304688 126.609375 C41.19958984 127.24617188 40.77613281 127.88296875 40.33984375 128.5390625 C39.96206787 129.10834473 39.58429199 129.67762695 39.19506836 130.26416016 C38.8006958 130.8369873 38.40632324 131.40981445 38 132 C37.61618164 132.7233252 37.23236328 133.44665039 36.83691406 134.19189453 C34.48356905 136.50833169 32.69436706 136.45461483 29.47627258 136.45318604 C28.74804794 136.43254089 28.0198233 136.41189575 27.26953125 136.390625 C26.51911057 136.38496521 25.76868988 136.37930542 24.99552917 136.37347412 C22.60053496 136.35109668 20.20704131 136.30090171 17.8125 136.25 C16.18817266 136.22993659 14.56382185 136.21168553 12.93945312 136.1953125 C8.95905793 136.15122794 4.97978329 136.08219427 1 136 C1.7445804 131.49413719 3.19803444 128.65104604 6 125 C6.66 125 7.32 125 8 125 C8.2475 124.278125 8.495 123.55625 8.75 122.8125 C10.12227983 119.72487038 11.87775472 117.62159711 14 115 C14.6636074 113.84335095 15.30878372 112.67597944 15.9375 111.5 C17.80338362 108.09273425 20.25414494 105.74585506 23 103 C24.15521502 100.52869082 24.15521502 100.52869082 25 98 C26.5 95.1875 26.5 95.1875 28 93 C28.66 93 29.32 93 30 93 C30.35771484 91.96552734 30.35771484 91.96552734 30.72265625 90.91015625 C32.24030694 87.45251172 34.25770319 84.49766709 36.4375 81.4375 C37.03014648 80.59155273 37.03014648 80.59155273 37.63476562 79.72851562 C39.29471938 77.36701735 40.96647883 75.04162519 42.77734375 72.79296875 C44.27921212 70.93075449 44.27921212 70.93075449 44.125 67.875 C43.25322631 63.56153644 40.80685579 60.48097515 38.22265625 57 C35.56948264 53.41891506 33.06958513 49.74652112 30.5625 46.0625 C27.33457587 41.34692388 24.0667121 36.67169351 20.6875 32.0625 C18.28179019 28.77073658 15.88477049 25.47633348 13.5625 22.125 C13.08941406 21.44695312 12.61632812 20.76890625 12.12890625 20.0703125 C10.8504031 17.72565275 10.39834608 15.62816838 10 13 C9.34 13 8.68 13 8 13 C8 12.34 8 11.68 8 11 C7.01 10.67 6.02 10.34 5 10 C3.95107762 8.36368108 2.95093297 6.69514137 2 5 C1.34 4.34 0.68 3.68 0 3 C0 2.01 0 1.02 0 0 Z " fill="#418C9D" transform="translate(961,158)"/>
<path d="M0 0 C1.17152367 -0.00021904 1.17152367 -0.00021904 2.36671448 -0.0004425 C4.93680644 0.00025169 7.50682506 0.00802093 10.0769043 0.01586914 C11.86337749 0.01773507 13.64985119 0.01915815 15.43632507 0.02015686 C20.12986676 0.02396823 24.82337732 0.03378672 29.51690674 0.04486084 C34.3096881 0.05510464 39.10247451 0.05966084 43.89526367 0.06469727 C53.29306378 0.07541025 62.69084082 0.09247008 72.08862305 0.11352539 C71.31851701 3.7877207 70.37586783 5.02905901 67.40112305 7.36352539 C63.77824894 10.37180478 61.1699386 13.5095541 58.4597168 17.33618164 C56.64956156 19.68267916 54.40656914 21.28356795 52.08862305 23.11352539 C50.7358419 25.1004227 49.40293999 27.10097757 48.08862305 29.11352539 C46.43744616 30.7955392 44.76860788 32.46028417 43.08862305 34.11352539 C41.34618839 35.95522919 39.61701692 37.80956896 37.90112305 39.67602539 C36.61141602 41.07014648 36.61141602 41.07014648 35.2956543 42.49243164 C33.44810502 44.68660078 32.19200661 46.49375994 31.08862305 49.11352539 C30.42862305 49.11352539 29.76862305 49.11352539 29.08862305 49.11352539 C28.75862305 50.10352539 28.42862305 51.09352539 28.08862305 52.11352539 C25.65112305 54.80102539 25.65112305 54.80102539 23.08862305 57.11352539 C22.42862305 57.11352539 21.76862305 57.11352539 21.08862305 57.11352539 C20.82049805 57.69102539 20.55237305 58.26852539 20.27612305 58.86352539 C19.05933116 61.16902582 17.78528425 63.13408732 16.08862305 65.11352539 C15.42862305 65.11352539 14.76862305 65.11352539 14.08862305 65.11352539 C13.79987305 65.71165039 13.51112305 66.30977539 13.21362305 66.92602539 C12.08862305 69.11352539 12.08862305 69.11352539 10.08862305 72.11352539 C9.42862305 72.11352539 8.76862305 72.11352539 8.08862305 72.11352539 C7.83081055 72.69102539 7.57299805 73.26852539 7.30737305 73.86352539 C5.57927157 77.05386658 3.19254038 79.45842863 0.74487305 82.11352539 C-0.96799092 84.02405009 -0.96799092 84.02405009 -1.9387207 86.20336914 C-3.31182437 88.89994621 -5.56366957 90.3387061 -7.86450195 92.23071289 C-11.12435435 95.22927941 -13.75017576 98.7064655 -16.50512695 102.16430664 C-19.7344458 106.12231918 -23.1781327 109.8602667 -26.6496582 113.60571289 C-28.96542569 116.10756315 -28.96542569 116.10756315 -31.0793457 118.93383789 C-31.98620117 120.0127832 -31.98620117 120.0127832 -32.91137695 121.11352539 C-33.57137695 121.11352539 -34.23137695 121.11352539 -34.91137695 121.11352539 C-35.40637695 122.59852539 -35.40637695 122.59852539 -35.91137695 124.11352539 C-36.90137695 124.11352539 -37.89137695 124.11352539 -38.91137695 124.11352539 C-40.7355957 121.99633789 -40.7355957 121.99633789 -42.59887695 119.23852539 C-43.22149414 118.33360352 -43.84411133 117.42868164 -44.4855957 116.49633789 C-45.91137695 114.11352539 -45.91137695 114.11352539 -45.91137695 112.11352539 C-46.57137695 112.11352539 -47.23137695 112.11352539 -47.91137695 112.11352539 C-49.27856445 110.35571289 -49.27856445 110.35571289 -50.78637695 107.98852539 C-51.31618164 107.16868164 -51.84598633 106.34883789 -52.3918457 105.50415039 C-52.89329102 104.71524414 -53.39473633 103.92633789 -53.91137695 103.11352539 C-56.35574573 99.20512776 -56.35574573 99.20512776 -59.32543945 95.70336914 C-61.09670691 93.92773896 -62.58543992 92.05025703 -64.09887695 90.05102539 C-64.62868164 89.35879883 -65.15848633 88.66657227 -65.7043457 87.95336914 C-66.91137695 86.11352539 -66.91137695 86.11352539 -66.91137695 84.11352539 C-67.90137695 83.78352539 -68.89137695 83.45352539 -69.91137695 83.11352539 C-71.0090332 81.55493164 -71.0090332 81.55493164 -71.97387695 79.67602539 C-73.17157093 77.37202774 -74.04290513 75.98199722 -75.91137695 74.11352539 C-75.61149744 70.3150516 -74.49460945 67.90341649 -71.91137695 65.11352539 C-71.25137695 65.11352539 -70.59137695 65.11352539 -69.91137695 65.11352539 C-69.67032227 64.56567383 -69.42926758 64.01782227 -69.1809082 63.45336914 C-67.614105 60.56563031 -65.68976095 58.20968482 -63.59887695 55.67602539 C-62.83961914 54.74918945 -62.08036133 53.82235352 -61.2980957 52.86743164 C-54.84887695 45.42602539 -54.84887695 45.42602539 -50.91137695 44.11352539 C-50.22517664 42.79013907 -49.56351234 41.45402591 -48.91137695 40.11352539 C-47.3509359 37.97184623 -45.70188366 36.08308277 -43.91137695 34.11352539 C-43.25137695 34.11352539 -42.59137695 34.11352539 -41.91137695 34.11352539 C-41.64325195 33.53602539 -41.37512695 32.95852539 -41.09887695 32.36352539 C-39.88208506 30.05802497 -38.60803816 28.09296347 -36.91137695 26.11352539 C-36.25137695 26.11352539 -35.59137695 26.11352539 -34.91137695 26.11352539 C-34.41637695 24.62852539 -34.41637695 24.62852539 -33.91137695 23.11352539 C-33.25137695 23.11352539 -32.59137695 23.11352539 -31.91137695 23.11352539 C-31.66387695 22.55149414 -31.41637695 21.98946289 -31.16137695 21.41040039 C-29.69862828 18.7225997 -27.94332822 16.64947057 -25.91137695 14.36352539 C-24.85950195 13.16469727 -24.85950195 13.16469727 -23.78637695 11.94165039 C-21.91137695 10.11352539 -21.91137695 10.11352539 -19.91137695 10.11352539 C-19.68450195 9.55665039 -19.45762695 8.99977539 -19.22387695 8.42602539 C-17.1945309 4.85051092 -14.79678055 1.66646752 -10.73786926 0.47608948 C-7.15100493 0.0159898 -3.60892297 -0.01777206 0 0 Z " fill="#5EB8C2" transform="translate(457.911376953125,115.886474609375)"/>
<path d="M0 0 C6.91164902 3.35663139 12.38211656 6.84971576 16.68041992 13.40356445 C17.25791992 14.24918945 17.83541992 15.09481445 18.43041992 15.96606445 C22.68041992 24.25356445 22.68041992 24.25356445 22.68041992 29.40356445 C23.34041992 29.40356445 24.00041992 29.40356445 24.68041992 29.40356445 C27.46996099 47.5355814 24.43176475 61.55538908 14.08666992 76.7434082 C13.62260742 77.29125977 13.15854492 77.83911133 12.68041992 78.40356445 C12.02041992 78.40356445 11.36041992 78.40356445 10.68041992 78.40356445 C10.18541992 79.88856445 10.18541992 79.88856445 9.68041992 81.40356445 C9.02041992 81.40356445 8.36041992 81.40356445 7.68041992 81.40356445 C7.68041992 82.06356445 7.68041992 82.72356445 7.68041992 83.40356445 C1.05541992 87.40356445 1.05541992 87.40356445 -2.31958008 87.40356445 C-2.31958008 88.06356445 -2.31958008 88.72356445 -2.31958008 89.40356445 C-11.01173609 94.66460625 -21.49672831 93.6069609 -31.31958008 93.40356445 C-32.20258789 93.43321289 -33.0855957 93.46286133 -33.99536133 93.4934082 C-44.23596724 93.3846309 -54.20403396 87.59379856 -61.97583008 81.2277832 C-71.67009327 71.03016404 -76.32967591 57.10886793 -76.63208008 43.21606445 C-76.47446934 37.77849384 -75.7282509 32.65487529 -74.31958008 27.40356445 C-74.1365332 26.71649414 -73.95348633 26.02942383 -73.76489258 25.3215332 C-71.38090012 17.86051978 -66.04564737 11.6240447 -60.31958008 6.40356445 C-59.65958008 6.40356445 -58.99958008 6.40356445 -58.31958008 6.40356445 C-58.31958008 5.74356445 -58.31958008 5.08356445 -58.31958008 4.40356445 C-56.99958008 4.07356445 -55.67958008 3.74356445 -54.31958008 3.40356445 C-54.31958008 2.74356445 -54.31958008 2.08356445 -54.31958008 1.40356445 C-53.43915039 1.13801758 -52.5587207 0.8724707 -51.65161133 0.59887695 C-49.90944336 0.06907227 -49.90944336 0.06907227 -48.13208008 -0.47143555 C-46.98352539 -0.81948242 -45.8349707 -1.1675293 -44.65161133 -1.52612305 C-41.42183968 -2.49308224 -41.42183968 -2.49308224 -38.85864258 -3.71362305 C-27.6356628 -7.61576678 -10.47991167 -4.72787877 0 0 Z " fill="#1A254B" transform="translate(795.319580078125,202.596435546875)"/>
<path d="M0 0 C0 0.66 0 1.32 0 2 C1.31291016 1.88785156 1.31291016 1.88785156 2.65234375 1.7734375 C9.13148534 2.2119325 14.32622081 7.36064715 18.8203125 11.796875 C22 15.46714286 22 15.46714286 22 18 C22.66 18 23.32 18 24 18 C25.28317892 21.84953676 25.06643637 24.94738135 25 29 C25.66 29 26.32 29 27 29 C27.02312611 37.71844003 27.04091646 46.43686956 27.05181217 55.15533352 C27.05704041 59.20325742 27.06413699 63.25116041 27.07543945 67.29907227 C27.08627043 71.20235971 27.09227728 75.10562699 27.09487724 79.0089283 C27.09673111 80.50133647 27.100351 81.99374348 27.10573006 83.48614311 C27.11294331 85.56948139 27.11399083 87.65273531 27.11352539 89.73608398 C27.115746 90.92411118 27.11796661 92.11213837 27.12025452 93.33616638 C27 96 27 96 26 97 C24.29227642 97.08713831 22.58101351 97.10700007 20.87109375 97.09765625 C19.31938477 97.09282227 19.31938477 97.09282227 17.73632812 97.08789062 C16.64771484 97.07951172 15.55910156 97.07113281 14.4375 97.0625 C12.7987793 97.05573242 12.7987793 97.05573242 11.12695312 97.04882812 C8.41791505 97.03699826 5.70898401 97.02051543 3 97 C2.10554296 92.92212105 1.91803882 89.18001995 2 85 C1.49210937 85.47050781 0.98421875 85.94101562 0.4609375 86.42578125 C-3.50099564 90.00932752 -7.0681412 92.82080658 -12 95 C-12.99 95.66 -13.98 96.32 -15 97 C-23.61912087 99.39504775 -37.69666545 99.56826305 -46 96 C-56.20750977 89.24347475 -56.20750977 89.24347475 -57.80859375 84.7109375 C-57.87175781 84.14632812 -57.93492188 83.58171875 -58 83 C-58.66 83 -59.32 83 -60 83 C-62.38294899 73.80862532 -63.54874045 65.32510797 -58.671875 56.6328125 C-54.33189655 49.7721395 -54.33189655 49.7721395 -50 48 C-50 47.34 -50 46.68 -50 46 C-47.85679273 45.20125135 -45.71027584 44.41138142 -43.5625 43.625 C-42.36753906 43.18414062 -41.17257812 42.74328125 -39.94140625 42.2890625 C-30.8385628 39.21394773 -22.54340183 38.74222305 -12.9375 38.875 C-11.69033203 38.88402344 -10.44316406 38.89304688 -9.15820312 38.90234375 C-6.10526496 38.92573791 -3.05273694 38.95851826 0 39 C-0.05988141 36.87420987 -0.14862744 34.74921587 -0.25 32.625 C-0.29640625 31.44164062 -0.3428125 30.25828125 -0.390625 29.0390625 C-0.65745802 25.92810192 -0.65745802 25.92810192 -2.859375 24.6484375 C-3.56578125 24.43445313 -4.2721875 24.22046875 -5 24 C-5.99 23.67 -6.98 23.34 -8 23 C-8 22.34 -8 21.68 -8 21 C-17.24 21 -26.48 21 -36 21 C-36.33 21.99 -36.66 22.98 -37 24 C-41.76017293 25.80886571 -45.93676791 26.20666253 -51 26 C-52.22899346 19.93184478 -53.27560214 14.20104812 -53 8 C-36.77380586 -0.73718146 -18.02262454 -2.40301661 0 0 Z " fill="#499AA8" transform="translate(1312,198)"/>
<path d="M0 0 C2.875 2.4375 2.875 2.4375 5 5 C5.763125 5.886875 6.52625 6.77375 7.3125 7.6875 C9 10 9 10 9 12 C9.66 12 10.32 12 11 12 C11.495 14.475 11.495 14.475 12 17 C12.66 17 13.32 17 14 17 C14.495 21.95 14.495 21.95 15 27 C15.66 27 16.32 27 17 27 C17.05802698 30.43742918 17.09360486 33.87473253 17.125 37.3125 C17.14175781 38.28896484 17.15851563 39.26542969 17.17578125 40.27148438 C17.18222656 41.20927734 17.18867187 42.14707031 17.1953125 43.11328125 C17.20578613 43.97735596 17.21625977 44.84143066 17.22705078 45.73168945 C17 48 17 48 15 51 C12.2918396 51.36076355 12.2918396 51.36076355 8.80615234 51.34057617 C7.50495453 51.34034958 6.20375671 51.34012299 4.86312866 51.33988953 C3.43739481 51.32456837 2.01166444 51.30892037 0.5859375 51.29296875 C-0.86851566 51.28737443 -2.32297447 51.28310356 -3.7774353 51.28010559 C-7.60806855 51.26864374 -11.43836128 51.23916547 -15.26885986 51.20599365 C-19.17658888 51.17532138 -23.08437284 51.16160637 -26.9921875 51.14648438 C-34.66161368 51.11429667 -42.33075915 51.06308463 -50 51 C-49.67 53.31 -49.34 55.62 -49 58 C-48.34 58 -47.68 58 -47 58 C-46.38125 59.794375 -46.38125 59.794375 -45.75 61.625 C-43.18215835 66.60130002 -39.70137481 68.68901848 -34.6640625 70.92578125 C-22.9380267 74.36358492 -11.66640332 72.25652408 -0.453125 68.09375 C2.92954131 67.02231723 5.48197905 66.78417049 9 67 C9 67.99 9 68.98 9 70 C9.66 70 10.32 70 11 70 C11.53341184 71.57914015 12.05125763 73.16354387 12.5625 74.75 C12.85253906 75.63171875 13.14257812 76.5134375 13.44140625 77.421875 C14.03231003 80.1491232 14.15557673 81.4708132 13 84 C11.29296875 85.265625 11.29296875 85.265625 9.1875 86.25 C8.15689453 86.75273437 8.15689453 86.75273437 7.10546875 87.265625 C5 88 5 88 1 88 C1 88.66 1 89.32 1 90 C-34.31631382 94.77708593 -34.31631382 94.77708593 -49 88 C-49.79019531 87.64164062 -50.58039063 87.28328125 -51.39453125 86.9140625 C-54.41605319 85.46590964 -57.21164965 83.85890024 -60 82 C-60 81.34 -60 80.68 -60 80 C-60.58265625 79.74992187 -61.1653125 79.49984375 -61.765625 79.2421875 C-64.29893083 77.83381118 -65.83518977 76.29348168 -67.75 74.125 C-68.36359375 73.44695312 -68.9771875 72.76890625 -69.609375 72.0703125 C-71 70 -71 70 -71 66 C-71.66 66 -72.32 66 -73 66 C-75.44869386 59.4630255 -75.38227338 53.47402721 -75.375 46.5625 C-75.37628906 45.31307617 -75.37757812 44.06365234 -75.37890625 42.77636719 C-75.27399852 33.60409335 -74.2713366 25.58725858 -71 17 C-70.34 17 -69.68 17 -69 17 C-68.34 15.02 -67.68 13.04 -67 11 C-66.34 11 -65.68 11 -65 11 C-64.7525 10.38125 -64.505 9.7625 -64.25 9.125 C-62.79371361 6.64931313 -61.62187494 6.04874998 -59 5 C-59 4.34 -59 3.68 -59 3 C-53.70588235 -1 -53.70588235 -1 -50 -1 C-50 -1.66 -50 -2.32 -50 -3 C-32.42488666 -7.99597131 -16.80012249 -8.69398604 0 0 Z " fill="#489AA8" transform="translate(1161,204)"/>
<path d="M0 0 C3.41140484 2.86631501 5.93528585 5.19663805 7.73828125 9.328125 C8.39828125 9.328125 9.05828125 9.328125 9.73828125 9.328125 C15.38702765 20.9685774 17.91373172 36.8017736 13.73828125 49.328125 C-7.05171875 49.328125 -27.84171875 49.328125 -49.26171875 49.328125 C-48.02741965 57.07994045 -48.02741965 57.07994045 -44.13671875 62.265625 C-41.26171875 65.17501495 -41.26171875 65.17501495 -41.26171875 67.328125 C-29.53958756 71.18953292 -13.11569224 73.01457964 -1.26171875 68.328125 C-0.50761719 67.5546875 -0.50761719 67.5546875 0.26171875 66.765625 C1.73828125 65.328125 1.73828125 65.328125 5.42578125 65.140625 C7.06546875 65.2334375 7.06546875 65.2334375 8.73828125 65.328125 C10.38628981 68.99259932 11.07409098 72.14015966 11.36328125 76.140625 C11.43804688 77.11644531 11.5128125 78.09226562 11.58984375 79.09765625 C11.63882813 79.83371094 11.6878125 80.56976563 11.73828125 81.328125 C11.07828125 81.328125 10.41828125 81.328125 9.73828125 81.328125 C9.73828125 81.988125 9.73828125 82.648125 9.73828125 83.328125 C7.17753675 84.31210085 4.61486633 85.29042467 2.05078125 86.265625 C1.32955078 86.54341797 0.60832031 86.82121094 -0.13476562 87.10742188 C-0.84052734 87.37490234 -1.54628906 87.64238281 -2.2734375 87.91796875 C-2.91756592 88.16409912 -3.56169434 88.41022949 -4.2253418 88.66381836 C-8.16326084 89.94844583 -11.89552492 90.45508507 -16.02734375 90.4609375 C-17.36345703 90.46287109 -17.36345703 90.46287109 -18.7265625 90.46484375 C-19.64566406 90.46097656 -20.56476562 90.45710938 -21.51171875 90.453125 C-22.41535156 90.45699219 -23.31898438 90.46085937 -24.25 90.46484375 C-32.04757318 90.45362422 -39.59841867 90.2879627 -46.94921875 87.453125 C-47.86703125 87.09992188 -48.78484375 86.74671875 -49.73046875 86.3828125 C-52.66315661 85.16085922 -55.46762177 83.83844769 -58.26171875 82.328125 C-58.26171875 81.668125 -58.26171875 81.008125 -58.26171875 80.328125 C-58.92171875 80.328125 -59.58171875 80.328125 -60.26171875 80.328125 C-64.81364634 76.29641771 -69.05459194 71.49464917 -72.26171875 66.328125 C-72.26171875 65.008125 -72.26171875 63.688125 -72.26171875 62.328125 C-72.92171875 62.328125 -73.58171875 62.328125 -74.26171875 62.328125 C-76.34168366 55.46424078 -76.62822452 49.03851613 -76.63671875 41.890625 C-76.66121094 40.80974609 -76.68570313 39.72886719 -76.7109375 38.61523438 C-76.73677299 31.51478094 -75.58422592 26.56359143 -72.26171875 20.328125 C-71.49863816 18.4793032 -70.74549495 16.6262718 -70.01171875 14.765625 C-69.6765625 13.91871094 -69.34140625 13.07179687 -68.99609375 12.19921875 C-68.63257813 11.27302734 -68.63257813 11.27302734 -68.26171875 10.328125 C-67.60171875 10.328125 -66.94171875 10.328125 -66.26171875 10.328125 C-66.00390625 9.73515625 -65.74609375 9.1421875 -65.48046875 8.53125 C-64.1640198 6.15151535 -62.83591093 4.81833708 -60.76171875 3.078125 C-60.15328125 2.55734375 -59.54484375 2.0365625 -58.91796875 1.5 C-57.26171875 0.328125 -57.26171875 0.328125 -55.26171875 0.328125 C-55.26171875 -0.331875 -55.26171875 -0.991875 -55.26171875 -1.671875 C-52.722557 -2.65798651 -50.18071645 -3.63588376 -47.63671875 -4.609375 C-46.92386719 -4.88716797 -46.21101562 -5.16496094 -45.4765625 -5.45117188 C-30.67767888 -11.08560922 -12.9929085 -9.60442977 0 0 Z " fill="#1B274D" transform="translate(946.26171875,205.671875)"/>
<path d="M0 0 C3.09793886 2.88733337 5.29715963 5.82784566 7.5 9.4375 C9.27103985 12.33154011 11.01793003 15.0221202 13.15625 17.66015625 C15 20 15 20 16 23 C16.66 23.33 17.32 23.66 18 24 C18.66666667 25.66666667 19.33333333 27.33333333 20 29 C20.67417969 29.88429687 21.34835937 30.76859375 22.04296875 31.6796875 C24.3329858 35.56494598 24.56582999 38.56186142 24.4375 42.9375 C24.44458984 43.61490234 24.45167969 44.29230469 24.45898438 44.99023438 C24.35395029 53.41719992 20.79148593 59.16644517 15 65 C13.97321461 65.89241594 12.93205405 66.76865242 11.875 67.625 C9.12220231 69.89905027 7.21008466 72.21957091 5 75 C4.236875 75.598125 3.47375 76.19625 2.6875 76.8125 C-1.63660495 80.33212031 -5.05264197 84.65464179 -8.60546875 88.93359375 C-11.50925483 92.4047005 -14.39517582 95.22705832 -18 98 C-22.51799673 102.31685304 -26.47282811 107.0233124 -30.45117188 111.828125 C-41.56773426 125.02456035 -57.22744884 129.93551291 -74 132 C-76.78332818 132.0846329 -79.53982355 132.12699833 -82.32202148 132.11352539 C-83.54248594 132.11370619 -83.54248594 132.11370619 -84.78760624 132.11389065 C-87.3987974 132.11314941 -90.00991551 132.10555742 -92.62109375 132.09765625 C-94.24222784 132.09618438 -95.86336241 132.09516518 -97.48449707 132.09460449 C-103.46883867 132.08937997 -109.45317007 132.0754187 -115.4375 132.0625 C-128.823125 132.041875 -142.20875 132.02125 -156 132 C-156 164.67 -156 197.34 -156 231 C-181.08 231 -206.16 231 -232 231 C-232 177.54 -232 124.08 -232 69 C-183.49 69 -134.98 69 -85 69 C-85 69.33 -85 69.66 -85 70 C-88.71564371 70.85996827 -92.14379368 71.12364756 -95.95417786 71.12025452 C-97.14497609 71.12163201 -98.33577433 71.12300951 -99.56265736 71.12442875 C-100.86560592 71.12083064 -102.16855448 71.11723253 -103.51098633 71.11352539 C-104.9233306 71.11321891 -106.33567502 71.1133528 -107.74801922 71.11389065 C-111.52475204 71.11411609 -115.30145307 71.10832688 -119.07817841 71.10128021 C-122.62418211 71.0955786 -126.17017815 71.09531673 -129.71618652 71.09460449 C-140.08162855 71.08936047 -150.44706468 71.07539929 -160.8125 71.0625 C-183.974375 71.041875 -207.13625 71.02125 -231 71 C-231 123.47 -231 175.94 -231 230 C-206.91 230 -182.82 230 -158 230 C-158 197.33 -158 164.66 -158 131 C-130.25 130.75 -130.25 130.75 -121.50097656 130.70214844 C-119.21417212 130.67278591 -116.92738578 130.64196143 -114.640625 130.609375 C-113.45194824 130.60824707 -112.26327148 130.60711914 -111.03857422 130.60595703 C-109.90210449 130.5861377 -108.76563477 130.56631836 -107.59472656 130.54589844 C-106.60877502 130.53701599 -105.62282349 130.52813354 -104.60699463 130.51898193 C-101.30420522 129.86148613 -100.16808647 128.50596033 -98 126 C-96.21875 124.875 -96.21875 124.875 -94.5 124 C-92.28236587 122.79761187 -90.90387481 121.90067064 -89.125 120.0625 C-84.3482773 115.42626914 -77.7148519 112.77686529 -71.7265625 109.9921875 C-69.9407691 109.07033625 -69.9407691 109.07033625 -68.59375 107.55859375 C-66.56033606 105.57003453 -64.39922482 104.49276155 -61.875 103.1875 C-51.75452519 97.78103582 -42.6706297 91.13694125 -34.0625 83.5625 C-31 81 -31 81 -29 81 C-28.67 80.01 -28.34 79.02 -28 78 C-26.0625 75.8125 -26.0625 75.8125 -24 74 C-23.34 74 -22.68 74 -22 74 C-22 73.34 -22 72.68 -22 72 C-21.02932515 70.97151066 -20.02137689 69.97815604 -19 69 C-17.62451853 67.39300184 -16.27194075 65.76623741 -14.9375 64.125 C-14.24527344 63.28195313 -13.55304688 62.43890625 -12.83984375 61.5703125 C-11.06784964 59.09478782 -9.99092038 56.8649408 -9 54 C-8.34 54 -7.68 54 -7 54 C-6.87367188 53.26394531 -6.74734375 52.52789062 -6.6171875 51.76953125 C-6.0371763 49.16682278 -5.23109518 47.10118831 -4.125 44.6875 C-2.21471885 40.05524315 -1.11782426 35.46518744 -0.1875 30.5625 C0.01625244 29.51485474 0.01625244 29.51485474 0.22412109 28.44604492 C0.81003694 25.16435663 1.07115044 23.21345133 0 20 C-0.34201453 16.80106936 -0.46436625 13.58767501 -0.625 10.375 C-0.6765625 9.49070313 -0.728125 8.60640625 -0.78125 7.6953125 C-0.82507813 6.85484375 -0.86890625 6.014375 -0.9140625 5.1484375 C-0.9548291 4.37677246 -0.9955957 3.60510742 -1.03759766 2.81005859 C-1 1 -1 1 0 0 Z " fill="#213763" transform="translate(346,156)"/>
<path d="M0 0 C8.25 0 16.5 0 25 0 C25.02260119 13.56940424 25.04094421 27.13879595 25.05181217 40.70821476 C25.0570285 47.00917829 25.06410349 53.31012826 25.07543945 59.61108398 C25.0863127 65.69297354 25.09228626 71.77485006 25.09487724 77.85674858 C25.09672348 80.17594037 25.1003287 82.49513146 25.10573006 84.8143177 C25.11299932 88.06511089 25.11398845 91.31585037 25.11352539 94.56665039 C25.11712067 95.523311 25.12071594 96.47997162 25.12442017 97.46562195 C25.1168281 102.39812994 25.10355282 107.17820847 24 112 C23.01 112.66 22.02 113.32 21 114 C20.54625 114.928125 20.0925 115.85625 19.625 116.8125 C16.69040926 122.5688126 12.28743389 125.51510039 7 129 C6.67 129.66 6.34 130.32 6 131 C0.36815901 132.47567309 -5.53269181 132.14747495 -11.3125 132.125 C-12.32634766 132.12886719 -13.34019531 132.13273438 -14.38476562 132.13671875 C-15.34705078 132.13542969 -16.30933594 132.13414062 -17.30078125 132.1328125 C-18.17903564 132.13168457 -19.05729004 132.13055664 -19.9621582 132.12939453 C-22 132 -22 132 -23 131 C-24.35353739 124.38270607 -24.0910454 117.72724312 -24 111 C-22.97519531 110.97421875 -21.95039062 110.9484375 -20.89453125 110.921875 C-19.53381301 110.86556942 -18.17313757 110.80822263 -16.8125 110.75 C-16.13896484 110.73582031 -15.46542969 110.72164063 -14.77148438 110.70703125 C-9.86427643 110.46765525 -7.61307512 109.20877009 -4 106 C-3.01 106 -2.02 106 -1 106 C-0.67 71.02 -0.34 36.04 0 0 Z " fill="#182349" transform="translate(833,200)"/>
<path d="M0 0 C4.95 0 9.9 0 15 0 C15 7.59 15 15.18 15 23 C12.525 23.0825 10.05 23.165 7.5 23.25 C0.2110108 23.64411821 -5.39724194 24.43700748 -10.76953125 29.75 C-14.641074 34.10208553 -16.11718933 36.63512561 -16.18945312 42.53540039 C-16.20617065 43.69322525 -16.22288818 44.85105011 -16.2401123 46.04396057 C-16.25368774 47.29918015 -16.26726318 48.55439972 -16.28125 49.84765625 C-16.30937024 51.80615871 -16.33749578 53.76466111 -16.36594391 55.72315884 C-16.42458998 59.86914208 -16.47457817 64.01523877 -16.52606201 68.16131592 C-16.5687736 71.57515645 -16.61335056 74.98894692 -16.66296387 78.4026947 C-16.69980587 80.96673065 -16.73220056 83.53083482 -16.7598877 86.09498596 C-16.77660522 87.24965866 -16.79332275 88.40433136 -16.81054688 89.59399414 C-16.82933899 91.12716026 -16.82933899 91.12716026 -16.84851074 92.69129944 C-17 95 -17 95 -18 96 C-26.58 96 -35.16 96 -44 96 C-44 64.65 -44 33.3 -44 1 C-36.08 1 -28.16 1 -20 1 C-19.3421134 5.60520622 -18.88145832 9.39812432 -18.9375 13.9375 C-18.94652344 14.89527344 -18.95554687 15.85304687 -18.96484375 16.83984375 C-18.97644531 17.55269531 -18.98804688 18.26554687 -19 19 C-18.34 19 -17.68 19 -17 19 C-16.7834375 17.576875 -16.7834375 17.576875 -16.5625 16.125 C-16 13 -16 13 -15 11 C-14.34 11 -13.68 11 -13 11 C-12.773125 10.443125 -12.54625 9.88625 -12.3125 9.3125 C-10.57204473 6.24598357 -8.73209236 4.2353483 -6 2 C-2.6875 1.6875 -2.6875 1.6875 0 2 C0 1.34 0 0.68 0 0 Z " fill="#4395A4" transform="translate(1233,199)"/>
<path d="M0 0 C0 7.92 0 15.84 0 24 C-2.0625 23.855625 -4.125 23.71125 -6.25 23.5625 C-15.07819189 23.55355553 -21.39946562 26.71538215 -27.8203125 32.6953125 C-31.3849032 36.74876136 -32.12131489 40.14494354 -32.20532227 45.3894043 C-32.22526749 46.49031906 -32.24521271 47.59123383 -32.26576233 48.72550964 C-32.28247482 49.91308365 -32.29918732 51.10065765 -32.31640625 52.32421875 C-32.33718735 53.54075638 -32.35796844 54.75729401 -32.37937927 56.01069641 C-32.44484717 59.90290596 -32.50374715 63.79518385 -32.5625 67.6875 C-32.60568782 70.32357482 -32.6493022 72.95964269 -32.69335938 75.59570312 C-32.80132964 82.06373301 -32.90042425 88.53181358 -33 95 C-41.25 95 -49.5 95 -58 95 C-58 64.31 -58 33.62 -58 2 C-50.74 2 -43.48 2 -36 2 C-35.07848349 5.68606605 -34.70191021 8.9727113 -34.4375 12.75 C-34.31181641 14.50570312 -34.31181641 14.50570312 -34.18359375 16.296875 C-34.12300781 17.18890625 -34.06242188 18.0809375 -34 19 C-31.62961039 16.83972803 -30.85881813 15.66239119 -29.5625 12.5625 C-28.06414093 9.14624133 -26.8727414 7.31672694 -24 5 C-23.34 5 -22.68 5 -22 5 C-22 4.34 -22 3.68 -22 3 C-14.42860872 0.2299788 -8.14894132 0 0 0 Z " fill="#172249" transform="translate(718,198)"/>
<path d="M0 0 C3 2.625 3 2.625 5 5 C5 5.66 5 6.32 5 7 C5.66 7 6.32 7 7 7 C9.56368639 21.80986692 9.56368639 21.80986692 9 29 C8.93167969 29.88429687 8.86335937 30.76859375 8.79296875 31.6796875 C7.76531146 39.83318817 4.28540757 45.4534558 -2.0390625 50.6875 C-6.13289838 53.42759732 -10.20442412 53.15042386 -14.9375 53.125 C-15.65357422 53.12886719 -16.36964844 53.13273437 -17.10742188 53.13671875 C-25.82196935 53.12056574 -25.82196935 53.12056574 -29.5625 49.5625 C-30.366875 48.716875 -31.17125 47.87125 -32 47 C-32.99 46.34 -33.98 45.68 -35 45 C-35 43.68 -35 42.36 -35 41 C-35.66 41 -36.32 41 -37 41 C-39.28929389 30.12112407 -41.57034222 15.68905169 -35.375 5.75 C-26.81149596 -4.84656616 -11.52235575 -8.27587214 0 0 Z " fill="#F7F7F8" transform="translate(785,222)"/>
<path d="M0 0 C4.16625 -0.020625 8.3325 -0.04125 12.625 -0.0625 C13.92775879 -0.071604 15.23051758 -0.08070801 16.57275391 -0.09008789 C17.61351074 -0.09258545 18.65426758 -0.09508301 19.7265625 -0.09765625 C21.31331787 -0.10551147 21.31331787 -0.10551147 22.93212891 -0.11352539 C26.03362346 0.00124422 28.95347657 0.42303718 32 1 C32 1.66 32 2.32 32 3 C32.8353125 3.1546875 32.8353125 3.1546875 33.6875 3.3125 C37.96465037 4.58408525 40.40032514 6.01481987 42.75 9.875 C45.90938718 17.77346795 46.23882517 27.02101925 43 35 C37.72270031 42.84055953 32.1275184 44.7181204 23 47 C15.41 47 7.82 47 0 47 C0 31.49 0 15.98 0 0 Z " fill="#F9F9FA" transform="translate(576,181)"/>
<path d="M0 0 C0.68320313 0.05671875 1.36640625 0.1134375 2.0703125 0.171875 C6.56535169 0.88971396 8.65228228 2.31472278 11.4375 5.9375 C14.52866883 10.44369979 15.15637391 13.93415869 15.1875 19.375 C15.20167969 20.49648438 15.21585938 21.61796875 15.23046875 22.7734375 C14.87658938 27.72774869 13.36958224 31.22405866 9.9375 34.8125 C4.64613069 39.23006521 -1.37721071 39.13237694 -7.9765625 38.6796875 C-12.58917191 38.09061751 -15.49328167 36.54281553 -18.6171875 33.0546875 C-22.63146547 27.08996939 -23.95437534 21.15781502 -23 14 C-21.44232828 9.32698485 -19.59881861 5.40428788 -16 2 C-10.6337459 0.12181107 -5.65640619 -0.48420598 0 0 Z " fill="#8C8D90" transform="translate(1035,344)"/>
<path d="M0 0 C0 0.66 0 1.32 0 2 C0.94875 2.12375 1.8975 2.2475 2.875 2.375 C6 3 6 3 8 5 C11.30895639 11.40443172 11.22642275 19.96942055 10 27 C8.24379871 30.7002316 6.19191394 33.43006501 3 36 C-0.7840091 37.26133637 -4.3678496 37.26222833 -8.3125 37.3125 C-9.05951172 37.34150391 -9.80652344 37.37050781 -10.57617188 37.40039062 C-15.84610018 37.46053906 -18.83592554 36.51647346 -23 33 C-23.875 30.75 -23.875 30.75 -24 29 C-24.66 29 -25.32 29 -26 29 C-28.60787361 23.78425279 -27.70097469 15.71627691 -26.28125 10.21484375 C-24.40870926 5.69205381 -22.35233662 2.48704949 -18 0 C-12.34624772 -1.54193244 -5.58640924 -1.86213641 0 0 Z " fill="#87888B" transform="translate(932,345)"/>
<path d="M0 0 C48.51 0 97.02 0 147 0 C147 0.33 147 0.66 147 1 C143.28435629 1.85996827 139.85620632 2.12364756 136.04582214 2.12025452 C134.85502391 2.12163201 133.66422567 2.12300951 132.43734264 2.12442875 C131.13439408 2.12083064 129.83144552 2.11723253 128.48901367 2.11352539 C127.0766694 2.11321891 125.66432498 2.1133528 124.25198078 2.11389065 C120.47524796 2.11411609 116.69854693 2.10832688 112.92182159 2.10128021 C109.37581789 2.0955786 105.82982185 2.09531673 102.28381348 2.09460449 C91.91837145 2.08936047 81.55293532 2.07539929 71.1875 2.0625 C48.025625 2.041875 24.86375 2.02125 1 2 C1 54.47 1 106.94 1 161 C25.09 161 49.18 161 74 161 C74 128.33 74 95.66 74 62 C113.5 61.5625 113.5 61.5625 125.93554688 61.43188477 C129.63971665 61.38859412 129.63971665 61.38859412 133.34387207 61.34410095 C134.98350194 61.32498036 136.62315314 61.30763496 138.26281738 61.29173279 C140.75796289 61.26717953 143.252981 61.23685151 145.74804688 61.20532227 C146.468731 61.19955201 147.18941513 61.19378176 147.93193817 61.18783665 C156.03757622 61.52047013 156.03757622 61.52047013 163 59 C165.34987262 58.76472227 167.70556039 58.58613583 170.0625 58.4375 C171.35285156 58.35371094 172.64320313 58.26992188 173.97265625 58.18359375 C174.97167969 58.12300781 175.97070312 58.06242187 177 58 C166.65301343 64.89799105 150.45310032 63.40451325 138.5 63.29296875 C136.88802402 63.28854192 135.27604368 63.28549127 133.6640625 63.28381348 C127.77597466 63.26826987 121.88797994 63.22638765 116 63.1875 C102.8 63.125625 89.6 63.06375 76 63 C76 95.67 76 128.34 76 162 C50.92 162 25.84 162 0 162 C0 108.54 0 55.08 0 0 Z " fill="#9097AB" transform="translate(114,225)"/>
<path d="M0 0 C7.85029698 4.53572714 7.85029698 4.53572714 10 8.9375 C10.6875 12.25 10.6875 12.25 10.6875 21.25 C-3.1725 21.25 -17.0325 21.25 -31.3125 21.25 C-30.6525 17.29 -29.9925 13.33 -29.3125 9.25 C-28.6525 9.25 -27.9925 9.25 -27.3125 9.25 C-27.044375 8.651875 -26.77625 8.05375 -26.5 7.4375 C-25.31332594 5.25152146 -24.21650887 3.83667406 -22.3125 2.25 C-21.6525 2.25 -20.9925 2.25 -20.3125 2.25 C-20.3125 1.59 -20.3125 0.93 -20.3125 0.25 C-13.66051453 -2.55083599 -6.60200685 -3.1699617 0 0 Z " fill="#FBFCFC" transform="translate(1142.3125,216.75)"/>
<path d="M0 0 C7.5812305 -0.50541537 11.86974863 2.58518477 17.47265625 7.34765625 C18.97265625 9.22265625 18.97265625 9.22265625 18.97265625 12.22265625 C19.63265625 12.22265625 20.29265625 12.22265625 20.97265625 12.22265625 C20.97265625 15.85265625 20.97265625 19.48265625 20.97265625 23.22265625 C7.11265625 23.22265625 -6.74734375 23.22265625 -21.02734375 23.22265625 C-20.329944 18.34085798 -19.67078399 14.71472623 -18.02734375 10.22265625 C-17.36734375 10.22265625 -16.70734375 10.22265625 -16.02734375 10.22265625 C-15.84171875 9.66578125 -15.65609375 9.10890625 -15.46484375 8.53515625 C-12.97438575 4.5287673 -9.09340471 1.92946658 -4.65234375 0.41015625 C-3.09950381 0.29923911 -1.54749138 0.1699557 0 0 Z " fill="#F2F3F5" transform="translate(917.02734375,214.77734375)"/>
<path d="M0 0 C0.97646484 0.00322266 1.95292969 0.00644531 2.95898438 0.00976562 C3.96638672 0.01814453 4.97378906 0.02652344 6.01171875 0.03515625 C7.03845703 0.03966797 8.06519531 0.04417969 9.12304688 0.04882812 C11.64846263 0.06057424 14.17384827 0.07850854 16.69921875 0.09765625 C16.69921875 5.04765625 16.69921875 9.99765625 16.69921875 15.09765625 C16.03921875 15.09765625 15.37921875 15.09765625 14.69921875 15.09765625 C14.42078125 16.45890625 14.42078125 16.45890625 14.13671875 17.84765625 C12.29324375 22.01551277 9.80232466 23.50153969 5.69921875 25.09765625 C-0.3565627 26.44338546 -7.33677134 27.32192121 -13.17578125 24.91015625 C-16.1747277 22.35223134 -17.99442562 20.16660589 -18.5859375 16.171875 C-18.7822044 11.64066955 -18.12544521 8.79144758 -15.30078125 5.09765625 C-14.64078125 4.43765625 -13.98078125 3.77765625 -13.30078125 3.09765625 C-12.31078125 3.09765625 -11.32078125 3.09765625 -10.30078125 3.09765625 C-10.30078125 2.43765625 -10.30078125 1.77765625 -10.30078125 1.09765625 C-6.80085429 0.30058857 -3.58655815 -0.02097402 0 0 Z " fill="#F6FAFA" transform="translate(1295.30078125,251.90234375)"/>
<path d="M0 0 C3.52041721 1.57992653 5.27364938 2.94866221 7.53515625 6.12890625 C9.13933158 11.24221512 8.97084754 14.88830702 7.41015625 20.00390625 C4.96822516 24.31798451 2.19090531 26.28837436 -2.40234375 28.06640625 C-8.07024903 28.75342507 -13.20656828 28.65341757 -18.46484375 26.31640625 C-22.06115755 22.61138775 -23.76436891 18.78571598 -23.90234375 13.62890625 C-23.57409347 8.60149412 -22.8062879 5.52370599 -18.96484375 2.06640625 C-13.36849394 -1.85103861 -6.53346962 -1.81197652 0 0 Z " fill="#212C51" transform="translate(853.46484375,156.68359375)"/>
<path d="M0 0 C2.64 0 5.28 0 8 0 C9 1 9 1 9.09765625 4.59765625 C9.09191272 6.08597255 9.07889891 7.57426296 9.0625 9.0625 C9.041875 11.681875 9.02125 14.30125 9 17 C14.94 17 20.88 17 27 17 C27 12.05 27 7.1 27 2 C29.31 2 31.62 2 34 2 C34 14.54 34 27.08 34 40 C31.36 40 28.72 40 26 40 C26 34.72 26 29.44 26 24 C20.06 24 14.12 24 8 24 C8 28.95 8 33.9 8 39 C5.36 39 2.72 39 0 39 C0 26.13 0 13.26 0 0 Z " fill="#7E7F81" transform="translate(790,343)"/>
<path d="M0 0 C7 0 7 0 9.87109375 2.7734375 C10.74964557 3.95717048 11.60475713 5.15860518 12.4375 6.375 C12.88287109 6.97828125 13.32824219 7.5815625 13.78710938 8.203125 C17 12.64490927 17 12.64490927 17 15 C17.639375 15.226875 18.27875 15.45375 18.9375 15.6875 C21 17 21 17 21.75 19.625 C21.8325 20.40875 21.915 21.1925 22 22 C22.66 22 23.32 22 24 22 C24.33 14.74 24.66 7.48 25 0 C27.31 0 29.62 0 32 0 C32 12.21 32 24.42 32 37 C27 37 27 37 24.90234375 35.171875 C23.92974609 33.97304688 23.92974609 33.97304688 22.9375 32.75 C20.0562899 29.2570994 20.0562899 29.2570994 16.95703125 25.9609375 C15.03125307 24.03131545 13.38847082 22.05135265 11.75 19.875 C11.22921875 19.19179688 10.7084375 18.50859375 10.171875 17.8046875 C9 16 9 16 9 14 C8.34 14 7.68 14 7 14 C7 21.59 7 29.18 7 37 C4.69 37 2.38 37 0 37 C0 24.79 0 12.58 0 0 Z " fill="#838486" transform="translate(849,345)"/>
<path d="M0 0 C9.24 0 18.48 0 28 0 C28 2.31 28 4.62 28 7 C21.07 7 14.14 7 7 7 C7 9.97 7 12.94 7 16 C12.94 16 18.88 16 25 16 C25 17.98 25 19.96 25 22 C18.73 22 12.46 22 6 22 C6 25.3 6 28.6 6 32 C12.93 32 19.86 32 27 32 C27 33.98 27 35.96 27 38 C18.09 38 9.18 38 0 38 C0 25.46 0 12.92 0 0 Z " fill="#808083" transform="translate(1163,344)"/>
<path d="M0 0 C1.21945312 -0.00257813 2.43890625 -0.00515625 3.6953125 -0.0078125 C6.875 0.125 6.875 0.125 9.875 1.125 C9.875 3.105 9.875 5.085 9.875 7.125 C9.31514404 7.13958252 8.75528809 7.15416504 8.1784668 7.16918945 C5.63911863 7.24371352 3.10107922 7.34035581 0.5625 7.4375 C-0.31857422 7.46005859 -1.19964844 7.48261719 -2.10742188 7.50585938 C-3.37875977 7.5590332 -3.37875977 7.5590332 -4.67578125 7.61328125 C-5.45606689 7.63946533 -6.23635254 7.66564941 -7.0402832 7.69262695 C-9.60892801 8.22536731 -10.50906523 9.09657908 -12.125 11.125 C-13.13823178 13.96670752 -13.26027858 16.62365349 -13.25 19.625 C-13.25257812 20.3778125 -13.25515625 21.130625 -13.2578125 21.90625 C-13.05260405 25.33443831 -12.89578743 27.32359718 -10.453125 29.86328125 C-7.43261 31.50023821 -5.2895961 31.42384553 -1.875 31.3125 C0.0225 31.250625 1.92 31.18875 3.875 31.125 C4.205 27.165 4.535 23.205 4.875 19.125 C6.855 19.125 8.835 19.125 10.875 19.125 C10.875 25.065 10.875 31.005 10.875 37.125 C6.73358936 38.50547021 2.83798777 38.34894602 -1.5 38.375 C-2.35078125 38.395625 -3.2015625 38.41625 -4.078125 38.4375 C-10.29489809 38.47623379 -13.53982335 37.3408657 -18.3125 33.25 C-22.21858183 28.67045578 -22.39469532 24.12813897 -22.25 18.3125 C-22.24097656 17.61962891 -22.23195313 16.92675781 -22.22265625 16.21289062 C-22.19926157 14.51677605 -22.16339641 12.82084129 -22.125 11.125 C-21.465 11.125 -20.805 11.125 -20.125 11.125 C-19.97804688 10.23361328 -19.97804688 10.23361328 -19.828125 9.32421875 C-18.9845805 6.68579901 -17.97506934 5.7134282 -15.875 3.9375 C-15.29234375 3.42832031 -14.7096875 2.91914063 -14.109375 2.39453125 C-9.79379259 -0.36642206 -4.98160716 -0.01057666 0 0 Z " fill="#88898B" transform="translate(1094.125,343.875)"/>
<path d="M0 0 C8.91 0 17.82 0 27 0 C27 1.65 27 3.3 27 5 C20.4 5 13.8 5 7 5 C7.33 7.97 7.66 10.94 8 14 C13.94 14.33 19.88 14.66 26 15 C26 16.98 26 18.96 26 21 C19.73 21 13.46 21 7 21 C7.33 23.97 7.66 26.94 8 30 C14.6 30.33 21.2 30.66 28 31 C28 32.98 28 34.96 28 37 C18.76 37 9.52 37 0 37 C0 24.79 0 12.58 0 0 Z " fill="#818184" transform="translate(686,345)"/>
<path d="M0 0 C0 1.98 0 3.96 0 6 C-9.405 6.495 -9.405 6.495 -19 7 C-19 9.31 -19 11.62 -19 14 C-17.58847656 14.16435547 -17.58847656 14.16435547 -16.1484375 14.33203125 C-14.28058594 14.56986328 -14.28058594 14.56986328 -12.375 14.8125 C-10.53035156 15.03873047 -10.53035156 15.03873047 -8.6484375 15.26953125 C-4.9320509 16.01360437 -2.21578832 17.00582496 1 19 C2.24300105 22.72900316 2.6711674 26.13349214 2 30 C0.26092412 33.02391552 -1.83497322 35.41748661 -5 37 C-6.49761762 37.09540112 -7.99934828 37.13073486 -9.5 37.1328125 C-10.8303125 37.13474609 -10.8303125 37.13474609 -12.1875 37.13671875 C-13.115625 37.13285156 -14.04375 37.12898438 -15 37.125 C-16.3921875 37.13080078 -16.3921875 37.13080078 -17.8125 37.13671875 C-18.699375 37.13542969 -19.58625 37.13414062 -20.5 37.1328125 C-21.3146875 37.13168457 -22.129375 37.13055664 -22.96875 37.12939453 C-25 37 -25 37 -27 36 C-27 34.35 -27 32.7 -27 31 C-26.43490723 30.98018066 -25.86981445 30.96036133 -25.28759766 30.93994141 C-22.73292003 30.84481764 -20.17907459 30.73508942 -17.625 30.625 C-16.29082031 30.57859375 -16.29082031 30.57859375 -14.9296875 30.53125 C-14.07890625 30.49257813 -13.228125 30.45390625 -12.3515625 30.4140625 C-11.17327881 30.36693115 -11.17327881 30.36693115 -9.97119141 30.31884766 C-7.76997061 30.1600535 -7.76997061 30.1600535 -6 28 C-5.3574765 25.93125966 -5.3574765 25.93125966 -5 24 C-5.7734375 23.82984375 -6.546875 23.6596875 -7.34375 23.484375 C-21.90322581 20.09677419 -21.90322581 20.09677419 -27 15 C-27.1953125 12.3984375 -27.1953125 12.3984375 -27.125 9.375 C-27.10695313 8.37210937 -27.08890625 7.36921875 -27.0703125 6.3359375 C-27.04710937 5.56507813 -27.02390625 4.79421875 -27 4 C-26.01 3.67 -25.02 3.34 -24 3 C-24 2.34 -24 1.68 -24 1 C-15.97407356 -1.42292119 -8.21582429 -1.85041088 0 0 Z " fill="#88898B" transform="translate(1240,345)"/>
<path d="M0 0 C0 1.98 0 3.96 0 6 C-9.9 6.495 -9.9 6.495 -20 7 C-22.21937904 12.5484476 -23.82585514 17.00406545 -23 23 C-21.0266065 27.17068065 -21.0266065 27.17068065 -17.34375 29.625 C-13.99341356 30.16105383 -10.63347722 30.36742239 -7.25 30.5625 C-6.55261719 30.60568359 -5.85523438 30.64886719 -5.13671875 30.69335938 C-3.42468078 30.79889596 -1.71236439 30.8998991 0 31 C0.042721 32.66611905 0.04063832 34.33382885 0 36 C-1.54538312 37.54538312 -3.00171101 37.12967467 -5.1484375 37.1328125 C-5.98890625 37.13410156 -6.829375 37.13539063 -7.6953125 37.13671875 C-9.02175781 37.13091797 -9.02175781 37.13091797 -10.375 37.125 C-11.68984375 37.13080078 -11.68984375 37.13080078 -13.03125 37.13671875 C-13.87429688 37.13542969 -14.71734375 37.13414062 -15.5859375 37.1328125 C-16.3598584 37.13168457 -17.1337793 37.13055664 -17.93115234 37.12939453 C-20 37 -20 37 -23 36 C-23 35.34 -23 34.68 -23 34 C-23.804375 33.773125 -24.60875 33.54625 -25.4375 33.3125 C-26.283125 32.879375 -27.12875 32.44625 -28 32 C-28.8125 29.375 -28.8125 29.375 -29 27 C-29.66 27 -30.32 27 -31 27 C-32.64760611 21.22009147 -32.98436889 14.80621636 -30.8125 9.125 C-27.7576596 3.8580338 -23.79617261 1.47880558 -18.17578125 -0.46875 C-12.16893983 -1.93541146 -6.01351637 -1.02357725 0 0 Z " fill="#818285" transform="translate(767,345)"/>
<path d="M0 0 C1.06347656 0.01417969 2.12695312 0.02835937 3.22265625 0.04296875 C4.28355469 0.04941406 5.34445312 0.05585938 6.4375 0.0625 C9.28515625 0.23046875 9.28515625 0.23046875 12.28515625 1.23046875 C16.24268042 6.65374262 15.78551762 12.80274965 15.28515625 19.23046875 C14.95515625 19.89046875 14.62515625 20.55046875 14.28515625 21.23046875 C13.62515625 21.23046875 12.96515625 21.23046875 12.28515625 21.23046875 C11.95515625 22.22046875 11.62515625 23.21046875 11.28515625 24.23046875 C7.20279277 25.74907223 2.55852758 25.93127118 -1.71484375 25.23046875 C-4.47053822 23.0488773 -6.15073122 21.35869381 -7.71484375 18.23046875 C-8.66067098 6.93510891 -8.66067098 6.93510891 -4.71484375 2.23046875 C-2.71484375 0.23046875 -2.71484375 0.23046875 0 0 Z " fill="#F6F6F6" transform="translate(1027.71484375,350.76953125)"/>
<path d="M0 0 C2.97738101 0.48302252 4.23263377 0.79418126 6.33203125 2.875 C9.5880568 7.75903832 9.58402627 11.7133665 9.08203125 17.5 C7.77282098 20.73857278 6.56169512 22.10256422 3.89453125 24.3125 C0.08132431 25.92252071 -2.79770488 25.70950494 -6.91796875 25.5 C-6.91796875 24.84 -6.91796875 24.18 -6.91796875 23.5 C-7.70171875 23.396875 -8.48546875 23.29375 -9.29296875 23.1875 C-11.91796875 22.5 -11.91796875 22.5 -13.91796875 19.5 C-14.25390625 16.3203125 -14.25390625 16.3203125 -14.29296875 12.625 C-14.32132813 11.41070312 -14.3496875 10.19640625 -14.37890625 8.9453125 C-13.1764244 -0.04272981 -7.84228951 -0.2816535 0 0 Z " fill="#F6F6F6" transform="translate(926.91796875,350.5)"/>
<path d="M0 0 C10.23 0 20.46 0 31 0 C31 1.98 31 3.96 31 6 C27.04 6 23.08 6 19 6 C19 16.23 19 26.46 19 37 C16.69 37 14.38 37 12 37 C12 26.77 12 16.54 12 6 C8.37 6 4.74 6 1 6 C0.67 5.67 0.34 5.34 0 5 C0 3.35 0 1.7 0 0 Z " fill="#86878B" transform="translate(633,345)"/>
<path d="M0 0 C1.98 0 3.96 0 6 0 C6 10.23 6 20.46 6 31 C12.27 31 18.54 31 25 31 C25 32.98 25 34.96 25 37 C16.75 37 8.5 37 0 37 C0 24.79 0 12.58 0 0 Z " fill="#838386" transform="translate(967,345)"/>
<path d="M0 0 C7.92 0 15.84 0 24 0 C24 0.33 24 0.66 24 1 C16.74 1 9.48 1 2 1 C2 31.69 2 62.38 2 94 C10.25 94 18.5 94 27 94 C26.97679687 90.07609375 26.95359375 86.1521875 26.9296875 82.109375 C26.91409459 78.31331709 26.90194777 74.51726274 26.89013672 70.72119141 C26.88007281 68.08087571 26.86642048 65.44057117 26.84912109 62.80029297 C26.82489029 59.00745897 26.81352077 55.21477221 26.8046875 51.421875 C26.79436493 50.23946228 26.78404236 49.05704956 26.77340698 47.83880615 C26.77325592 46.73796692 26.77310486 45.63712769 26.77294922 44.50292969 C26.768508 43.53474304 26.76406677 42.5665564 26.75949097 41.56903076 C27.0084085 38.91018338 27.64441446 37.27725613 29 35 C29.33 35.66 29.66 36.32 30 37 C29.67 37.99 29.34 38.98 29 40 C28.88903082 41.78885268 28.83375577 43.58139414 28.81054688 45.37353516 C28.79382935 46.47122223 28.77711182 47.5689093 28.7598877 48.69985962 C28.74631226 49.88429657 28.73273682 51.06873352 28.71875 52.2890625 C28.70034058 53.50322845 28.68193115 54.71739441 28.66296387 55.96835327 C28.5841178 61.1757509 28.51635855 66.38327925 28.44775391 71.59082031 C28.39618455 75.38613602 28.33888482 79.18133486 28.28125 82.9765625 C28.26767456 84.16504791 28.25409912 85.35353333 28.2401123 86.57803345 C28.22339478 87.6694162 28.20667725 88.76079895 28.18945312 89.88525391 C28.17066101 91.3339537 28.17066101 91.3339537 28.15148926 92.81192017 C28 95 28 95 27 96 C25.08541718 96.09971786 23.16717683 96.13080589 21.25 96.1328125 C20.0846875 96.13410156 18.919375 96.13539063 17.71875 96.13671875 C16.4915625 96.13285156 15.264375 96.12898438 14 96.125 C12.15921875 96.13080078 12.15921875 96.13080078 10.28125 96.13671875 C9.1159375 96.13542969 7.950625 96.13414062 6.75 96.1328125 C5.67234375 96.13168457 4.5946875 96.13055664 3.484375 96.12939453 C1 96 1 96 0 95 C-0.09526806 92.04753646 -0.12552452 89.11851579 -0.11352539 86.16577148 C-0.11367142 85.23903625 -0.11381744 84.31230103 -0.1139679 83.35748291 C-0.11326838 80.27866313 -0.10547421 77.19990303 -0.09765625 74.12109375 C-0.09579221 71.99259982 -0.09436824 69.86410547 -0.09336853 67.73561096 C-0.08954228 62.1213768 -0.07971108 56.50716832 -0.06866455 50.89294434 C-0.05845273 45.16886747 -0.0538714 39.44478647 -0.04882812 33.72070312 C-0.0380889 22.48045562 -0.02049124 11.24023396 0 0 Z " fill="#979CAE" transform="translate(658,199)"/>
<path d="M0 0 C7.92 0 15.84 0 24 0 C23.67 1.32 23.34 2.64 23 4 C22.67 3.34 22.34 2.68 22 2 C15.07 1.67 8.14 1.34 1 1 C1 31.36 1 61.72 1 93 C8.92 93 16.84 93 25 93 C25 75.51 25 58.02 25 40 C25.99 39.505 25.99 39.505 27 39 C27.02526563 46.81452752 27.04283105 54.62904458 27.05493164 62.44360352 C27.05997383 65.10441481 27.06680736 67.76522332 27.07543945 70.42602539 C27.08751009 74.24105516 27.09322929 78.05604844 27.09765625 81.87109375 C27.10281754 83.06899033 27.10797882 84.2668869 27.11329651 85.50108337 C27.11340981 87.15268211 27.11340981 87.15268211 27.11352539 88.83764648 C27.115746 89.81249496 27.11796661 90.78734344 27.12025452 91.79173279 C27 94 27 94 26 95 C17.42 95 8.84 95 0 95 C0 63.65 0 32.3 0 0 Z " fill="#77B3BC" transform="translate(1189,200)"/>
<path d="M0 0 C0.99 0.66 1.98 1.32 3 2 C3 2.99 3 3.98 3 5 C4.32 5.33 5.64 5.66 7 6 C6.67 6.66 6.34 7.32 6 8 C4.68 7.67 3.36 7.34 2 7 C1.76796875 7.53367188 1.5359375 8.06734375 1.296875 8.6171875 C-0.39262757 11.72139402 -2.54409041 14.38033791 -4.75 17.125 C-5.74797864 18.37974501 -6.74534475 19.63497738 -7.7421875 20.890625 C-8.27166992 21.55642578 -8.80115234 22.22222656 -9.34667969 22.90820312 C-11.62498945 25.79074271 -13.87114846 28.69766602 -16.11865234 31.60424805 C-22.38803903 39.70983125 -28.76917648 47.71351292 -35.2578125 55.64453125 C-39.81557395 61.18152308 -39.81557395 61.18152308 -44 67 C-44.33 66.67 -44.66 66.34 -45 66 C-45.495 66.99 -45.495 66.99 -46 68 C-46.66 67.67 -47.32 67.34 -48 67 C-47.52949219 66.39671875 -47.05898438 65.7934375 -46.57421875 65.171875 C-45.95160156 64.37265625 -45.32898438 63.5734375 -44.6875 62.75 C-44.07261719 61.96109375 -43.45773437 61.1721875 -42.82421875 60.359375 C-42.22222656 59.58078125 -41.62023437 58.8021875 -41 58 C-40.44957031 57.30390625 -39.89914062 56.6078125 -39.33203125 55.890625 C-37.81833798 53.93482536 -37.81833798 53.93482536 -37 51 C-36.175 50.195625 -35.35 49.39125 -34.5 48.5625 C-32.15906852 46.16304524 -31.35873987 45.22865886 -31 42 C-30.34 42 -29.68 42 -29 42 C-28.71125 41.401875 -28.4225 40.80375 -28.125 40.1875 C-27 38 -27 38 -25 35 C-24.34 35 -23.68 35 -23 35 C-22.75121094 34.44054687 -22.50242187 33.88109375 -22.24609375 33.3046875 C-20.78798449 30.607871 -19.03567626 28.47282998 -17.0625 26.125 C-13.34183194 21.62994899 -9.6413864 17.12215946 -6 12.5625 C-5.51926025 11.97162598 -5.03852051 11.38075195 -4.54321289 10.77197266 C-1.70983871 7.20742159 0 4.58603422 0 0 Z " fill="#B2C8D2" transform="translate(414,242)"/>
<path d="M0 0 C2.31 0 4.62 0 7 0 C7 12.21 7 24.42 7 37 C4.69 37 2.38 37 0 37 C0 24.79 0 12.58 0 0 Z " fill="#8E8E91" transform="translate(1130,345)"/>
<path d="M0 0 C2.64 0 5.28 0 8 0 C9 1 9 1 9.09765625 4.37890625 C9.09098369 5.77347077 9.07902532 7.16801743 9.0625 8.5625 C9.05798828 9.27341797 9.05347656 9.98433594 9.04882812 10.71679688 C9.03700864 12.47790013 9.01907263 14.23896036 9 16 C8.67 16 8.34 16 8 16 C8 11.38 8 6.76 8 2 C6.02 2 4.04 2 2 2 C2 13.88 2 25.76 2 38 C3.65 38 5.3 38 7 38 C7 32.72 7 27.44 7 22 C10.14588944 21.97316303 13.29155271 21.95324098 16.4375 21.9375 C17.78424805 21.92493164 17.78424805 21.92493164 19.15820312 21.91210938 C20.01220703 21.90888672 20.86621094 21.90566406 21.74609375 21.90234375 C22.93223267 21.89448853 22.93223267 21.89448853 24.14233398 21.88647461 C26 22 26 22 27 23 C27.07319621 25.69654854 27.09242537 28.36691458 27.0625 31.0625 C27.05798828 31.82111328 27.05347656 32.57972656 27.04882812 33.36132812 C27.0370068 35.24091871 27.01907078 37.12046899 27 39 C28.98 39 30.96 39 33 39 C33 26.79 33 14.58 33 2 C33.33 2 33.66 2 34 2 C34 14.54 34 27.08 34 40 C31.36 40 28.72 40 26 40 C26 34.72 26 29.44 26 24 C20.06 24 14.12 24 8 24 C8 28.95 8 33.9 8 39 C5.36 39 2.72 39 0 39 C0 26.13 0 13.26 0 0 Z " fill="#B4B4B6" transform="translate(790,343)"/>
<path d="M0 0 C0.99 0.33 1.98 0.66 3 1 C3 1.99 3 2.98 3 4 C-9.87345181 4.02313161 -22.74689872 4.04091929 -35.62036705 4.05181217 C-41.59750475 4.0570392 -47.57462827 4.0641336 -53.55175781 4.07543945 C-59.31591558 4.0862747 -65.08005968 4.0922782 -70.84422684 4.09487724 C-73.04753459 4.09673034 -75.25084156 4.10034875 -77.45414352 4.10573006 C-80.53113189 4.11294892 -83.60806317 4.11399058 -86.68505859 4.11352539 C-87.60359116 4.11712067 -88.52212372 4.12071594 -89.4684906 4.12442017 C-90.30424118 4.1230455 -91.13999176 4.12167084 -92.00106812 4.12025452 C-92.72928457 4.12117631 -93.45750103 4.1220981 -94.20778465 4.12304783 C-96 4 -96 4 -98 3 C-97.67 2.34 -97.34 1.68 -97 1 C-64.99 1.33 -32.98 1.66 0 2 C0 1.34 0 0.68 0 0 Z " fill="#ADD1D9" transform="translate(530,384)"/>
<path d="M0 0 C0.66 0 1.32 0 2 0 C2.02312611 8.71844003 2.04091646 17.43686956 2.05181217 26.15533352 C2.05704041 30.20325742 2.06413699 34.25116041 2.07543945 38.29907227 C2.08627043 42.20235971 2.09227728 46.10562699 2.09487724 50.0089283 C2.09673111 51.50133647 2.100351 52.99374348 2.10573006 54.48614311 C2.11294331 56.56948139 2.11399083 58.65273531 2.11352539 60.73608398 C2.115746 61.92411118 2.11796661 63.11213837 2.12025452 64.33616638 C2 67 2 67 1 68 C-0.70772358 68.08713831 -2.41898649 68.10700007 -4.12890625 68.09765625 C-5.68061523 68.09282227 -5.68061523 68.09282227 -7.26367188 68.08789062 C-8.35228516 68.07951172 -9.44089844 68.07113281 -10.5625 68.0625 C-12.2012207 68.05573242 -12.2012207 68.05573242 -13.87304688 68.04882812 C-16.58208495 68.03699826 -19.29101599 68.02051543 -22 68 C-22 67.34 -22 66.68 -22 66 C-14.74 66 -7.48 66 0 66 C0 44.22 0 22.44 0 0 Z " fill="#8BC6CC" transform="translate(1337,227)"/>
<path d="M0 0 C1.17152367 -0.00021904 1.17152367 -0.00021904 2.36671448 -0.0004425 C4.93680644 0.00025169 7.50682506 0.00802093 10.0769043 0.01586914 C11.86337749 0.01773507 13.64985119 0.01915815 15.43632507 0.02015686 C20.12986676 0.02396823 24.82337732 0.03378672 29.51690674 0.04486084 C34.3096881 0.05510464 39.10247451 0.05966084 43.89526367 0.06469727 C53.29306378 0.07541025 62.69084082 0.09247008 72.08862305 0.11352539 C71.75862305 1.43352539 71.42862305 2.75352539 71.08862305 4.11352539 C70.09862305 3.61852539 70.09862305 3.61852539 69.08862305 3.11352539 C66.52639625 2.99125686 63.98953487 2.92786962 61.42602539 2.90820312 C60.24052849 2.89335373 60.24052849 2.89335373 59.03108215 2.87820435 C56.41227235 2.84655417 53.79344439 2.82181806 51.17456055 2.79711914 C49.36137412 2.77655265 47.54819253 2.75555626 45.73501587 2.73414612 C40.95764063 2.67889397 36.1802219 2.62949857 31.402771 2.58129883 C26.52978637 2.53110673 21.65686507 2.47540872 16.78393555 2.42016602 C7.21888545 2.31254601 -2.34621958 2.21110958 -11.91137695 2.11352539 C-12.24137695 3.10352539 -12.57137695 4.09352539 -12.91137695 5.11352539 C-14.97387695 5.80102539 -14.97387695 5.80102539 -16.91137695 6.11352539 C-13.59321644 1.32062687 -13.59321644 1.32062687 -10.76130676 0.46046448 C-7.16660566 0.0228599 -3.61460623 -0.01780005 0 0 Z " fill="#9FD7DE" transform="translate(457.911376953125,115.886474609375)"/>
<path d="M0 0 C7 0 7 0 9 1 C9 10.57 9 20.14 9 30 C14.94 30 20.88 30 27 30 C27 32.97 27 35.94 27 39 C18.09 39 9.18 39 0 39 C0 26.13 0 13.26 0 0 Z M1 1 C1 13.21 1 25.42 1 38 C9.25 38 17.5 38 26 38 C26 36.02 26 34.04 26 32 C19.73 32 13.46 32 7 32 C7 21.77 7 11.54 7 1 C5.02 1 3.04 1 1 1 Z " fill="#D0D0D1" transform="translate(966,344)"/>
<path d="M0 0 C1.32 2.31 2.64 4.62 4 7 C3.34 7 2.68 7 2 7 C0.375 5 0.375 5 -1 3 C-5.33287235 4.66567842 -8.13492646 7.87461565 -11.3125 11.125 C-11.89281982 11.71104004 -12.47313965 12.29708008 -13.07104492 12.90087891 C-16.09283358 15.9739274 -19.01931681 19.09042347 -21.8125 22.375 C-25.15834449 26.30636728 -28.83419708 29.9355013 -33 33 C-33.66 33 -34.32 33 -35 33 C-35.21398437 33.54140625 -35.42796875 34.0828125 -35.6484375 34.640625 C-37.48077943 37.8392797 -39.99796606 40.20964484 -42.625 42.75 C-43.140625 43.25660156 -43.65625 43.76320313 -44.1875 44.28515625 C-45.45383339 45.52803902 -46.7263144 46.76465276 -48 48 C-48.66 47.67 -49.32 47.34 -50 47 C-49.08476562 46.09636719 -48.16953125 45.19273437 -47.2265625 44.26171875 C-46.02590942 43.07044577 -44.82539585 41.87903217 -43.625 40.6875 C-43.02171875 40.09259766 -42.4184375 39.49769531 -41.796875 38.88476562 C-41.21679688 38.30791016 -40.63671875 37.73105469 -40.0390625 37.13671875 C-39.50490723 36.60780029 -38.97075195 36.07888184 -38.42041016 35.53393555 C-36.78498535 33.8489902 -36.78498535 33.8489902 -35 31 C-34.34 31 -33.68 31 -33 31 C-32.73574219 30.39671875 -32.47148437 29.7934375 -32.19921875 29.171875 C-30.94244926 26.8957713 -29.84559838 25.83181567 -27.8125 24.25 C-25.24151271 22.13116999 -23.02367548 19.98268917 -20.875 17.4375 C-17.49298179 13.48539216 -13.9429552 9.72280623 -10.3125 6 C-9.75353027 5.4114624 -9.19456055 4.8229248 -8.61865234 4.21655273 C-4.46246944 0 -4.46246944 0 0 0 Z " fill="#76A8B9" transform="translate(394,216)"/>
<path d="M0 0 C0.66 0.66 1.32 1.32 2 2 C1.11699219 1.94457031 0.23398438 1.88914063 -0.67578125 1.83203125 C-7.12461185 1.79739736 -11.87916479 2.10609364 -16.82104492 6.61401367 C-22.01383174 11.87777656 -23.09401494 14.37605977 -25 22 C-12.13 22 0.74 22 14 22 C14 19.36 14 16.72 14 14 C14.33 14 14.66 14 15 14 C15 16.97 15 19.94 15 23 C1.14 23 -12.72 23 -27 23 C-26.34 19.04 -25.68 15.08 -25 11 C-24.34 11 -23.68 11 -23 11 C-22.731875 10.401875 -22.46375 9.80375 -22.1875 9.1875 C-21.00082594 7.00152146 -19.90400887 5.58667406 -18 4 C-17.34 4 -16.68 4 -16 4 C-16 3.34 -16 2.68 -16 2 C-10.78451916 -0.19599193 -5.595229 -0.68430858 0 0 Z " fill="#B4D9DF" transform="translate(1138,215)"/>
<path d="M0 0 C-1.85296835 0.48377991 -3.70744441 0.96178636 -5.5625 1.4375 C-6.59503906 1.70433594 -7.62757813 1.97117187 -8.69140625 2.24609375 C-14.91759943 3.66481309 -20.95099233 4.1444124 -27.32202148 4.11352539 C-28.52324394 4.11374443 -28.52324394 4.11374443 -29.74873352 4.1139679 C-32.37288199 4.11327605 -34.99695781 4.105518 -37.62109375 4.09765625 C-39.44954896 4.09578948 -41.27800468 4.0943668 -43.10646057 4.09336853 C-47.90190021 4.08956374 -52.69730922 4.07975097 -57.49273682 4.06866455 C-62.39294012 4.05840649 -67.29314841 4.05386152 -72.19335938 4.04882812 C-81.79558632 4.03812677 -91.39779061 4.02107498 -101 4 C-101 3.67 -101 3.34 -101 3 C-100.04057495 2.98969254 -99.0811499 2.97938507 -98.09265137 2.96876526 C-89.02993892 2.87080682 -79.96729169 2.76805269 -70.90468597 2.66066074 C-66.24605052 2.60560847 -61.58740861 2.55221785 -56.92871094 2.50268555 C-52.42882642 2.45477962 -47.92901312 2.40242937 -43.42921448 2.34705925 C-41.71653529 2.3267539 -40.00383666 2.30802225 -38.29112244 2.29092598 C-35.88346371 2.26661805 -33.47593628 2.23660272 -31.06835938 2.20532227 C-30.36776398 2.1995668 -29.66716858 2.19381134 -28.94534302 2.18788147 C-21.00181507 2.48904715 -21.00181507 2.48904715 -14 0 C-12.40366983 -0.26169347 -10.79670875 -0.46007377 -9.1875 -0.625 C-8.31480469 -0.72039062 -7.44210937 -0.81578125 -6.54296875 -0.9140625 C-4.11299888 -0.9961813 -2.30646472 -0.7204342 0 0 Z " fill="#959EB4" transform="translate(291,284)"/>
<path d="M0 0 C0.99 0.66 1.98 1.32 3 2 C3 2.99 3 3.98 3 5 C4.32 5.33 5.64 5.66 7 6 C6.67 6.66 6.34 7.32 6 8 C4.68 7.67 3.36 7.34 2 7 C1.77957031 7.51820313 1.55914062 8.03640625 1.33203125 8.5703125 C-0.52807774 11.96323858 -2.90106127 14.85829975 -5.3125 17.875 C-6.0230957 18.77412109 -6.0230957 18.77412109 -6.74804688 19.69140625 C-9.77530556 23.50964498 -12.86717392 27.26799953 -16 31 C-16.33 30.01 -16.66 29.02 -17 28 C-15.85546875 26.3515625 -15.85546875 26.3515625 -14.1875 24.625 C-12.26933527 22.62937968 -11.08442365 21.22102329 -10.08984375 18.6171875 C-8.29089488 14.29713108 -4.98401907 11.18394571 -1.8984375 7.71875 C0.15737318 4.77462607 0.44371732 3.49902798 0 0 Z " fill="#97CED6" transform="translate(414,242)"/>
<path d="M0 0 C9.24 0 18.48 0 28 0 C28 2.31 28 4.62 28 7 C21.07 7 14.14 7 7 7 C7 9.97 7 12.94 7 16 C6.34 16 5.68 16 5 16 C4.9729957 14.54176788 4.95360213 13.08339325 4.9375 11.625 C4.92589844 10.81289063 4.91429687 10.00078125 4.90234375 9.1640625 C5 7 5 7 6 5 C12.6 5 19.2 5 26 5 C26 3.68 26 2.36 26 1 C17.42 1 8.84 1 0 1 C0 0.67 0 0.34 0 0 Z " fill="#A1A2A5" transform="translate(1163,344)"/>
<path d="M0 0 C6.27 0 12.54 0 19 0 C19 0.66 19 1.32 19 2 C13.39 2 7.78 2 2 2 C2 3.98 2 5.96 2 8 C2.95261719 7.98839844 3.90523437 7.97679687 4.88671875 7.96484375 C6.14097656 7.95582031 7.39523437 7.94679688 8.6875 7.9375 C9.92886719 7.92589844 11.17023437 7.91429687 12.44921875 7.90234375 C15.46235454 7.98521327 18.08275339 8.29160551 21 9 C21 9.33 21 9.66 21 10 C17.68751813 10.02888146 14.37506833 10.04675799 11.0625 10.0625 C10.11697266 10.07087891 9.17144531 10.07925781 8.19726562 10.08789062 C6.84858398 10.09272461 6.84858398 10.09272461 5.47265625 10.09765625 C4.64000244 10.10289307 3.80734863 10.10812988 2.94946289 10.11352539 C1 10 1 10 0 9 C0 6.03 0 3.06 0 0 Z " fill="#E4E4E5" transform="translate(693,366)"/>
<path d="M0 0 C0 3.71967925 -1.3156715 4.70523011 -3.80859375 7.3046875 C-5.16979387 8.99279149 -5.16979387 8.99279149 -5.44921875 11.39453125 C-6.11947501 14.5651761 -7.38118393 16.2760631 -9.375 18.8125 C-9.98085938 19.60269531 -10.58671875 20.39289063 -11.2109375 21.20703125 C-11.80132812 21.79871094 -12.39171875 22.39039063 -13 23 C-13.99 23 -14.98 23 -16 23 C-18.17032476 24.43990623 -18.17032476 24.43990623 -20 26 C-20 25.01 -20 24.02 -20 23 C-19.34 23 -18.68 23 -18 23 C-17.71125 22.401875 -17.4225 21.80375 -17.125 21.1875 C-16 19 -16 19 -14 16 C-13.34 16 -12.68 16 -12 16 C-11.76410156 15.45730469 -11.52820313 14.91460937 -11.28515625 14.35546875 C-9.65390409 11.36566617 -7.61446807 8.92975375 -5.4375 6.3125 C-4.63183594 5.33925781 -3.82617188 4.36601562 -2.99609375 3.36328125 C-1 1 -1 1 0 0 Z " fill="#94BEC8" transform="translate(403,261)"/>
<path d="M0 0 C0.66 0 1.32 0 2 0 C2.02688151 1.64574566 2.04634123 3.29161413 2.0625 4.9375 C2.07410156 5.85402344 2.08570313 6.77054688 2.09765625 7.71484375 C2 10 2 10 1 11 C-1.44830426 11.08843793 -3.86820599 11.11528752 -6.31640625 11.09765625 C-7.04746078 11.0962413 -7.77851532 11.09482635 -8.53172302 11.09336853 C-10.87535632 11.08775408 -13.21889539 11.07519922 -15.5625 11.0625 C-17.14778508 11.05748686 -18.73307166 11.05292363 -20.31835938 11.04882812 C-24.2122761 11.03777997 -28.10612205 11.02050572 -32 11 C-32 10.67 -32 10.34 -32 10 C-28.13792926 9.09183202 -24.56851344 8.88356155 -20.60546875 8.90234375 C-18.80239258 8.90717773 -18.80239258 8.90717773 -16.96289062 8.91210938 C-15.71701172 8.92048828 -14.47113281 8.92886719 -13.1875 8.9375 C-11.92228516 8.94201172 -10.65707031 8.94652344 -9.35351562 8.95117188 C-6.2356289 8.96293749 -3.11783867 8.97937728 0 9 C0 6.03 0 3.06 0 0 Z " fill="#7DBCC5" transform="translate(1312,228)"/>
<path d="M0 0 C5.45769811 -0.11138159 10.61509359 0.08342019 16 1 C16 2.98 16 4.96 16 7 C11.38 7 6.76 7 2 7 C2 6.34 2 5.68 2 5 C2.99 4.67 3.98 4.34 5 4 C5 3.01 5 2.02 5 1 C3.35 1 1.7 1 0 1 C0 0.67 0 0.34 0 0 Z " fill="#929295" transform="translate(751,344)"/>
<path d="M0 0 C0 0.66 0 1.32 0 2 C0.86625 1.9175 1.7325 1.835 2.625 1.75 C6.75988007 2.05628741 8.74642697 3.52108722 12 6 C11.34 6.33 10.68 6.66 10 7 C9.01 6.67 8.02 6.34 7 6 C7 5.34 7 4.68 7 4 C6.36191406 3.93941406 5.72382812 3.87882813 5.06640625 3.81640625 C4.24011719 3.73261719 3.41382813 3.64882812 2.5625 3.5625 C1.73878906 3.48128906 0.91507813 3.40007812 0.06640625 3.31640625 C-2 3 -2 3 -3 2 C-6.63841372 1.74419755 -10.29118419 1.8147522 -13.9375 1.8125 C-14.94619141 1.80025391 -15.95488281 1.78800781 -16.99414062 1.77539062 C-22.84940547 1.76407975 -28.16191627 2.22870539 -33.84594727 3.66674805 C-36.2077952 4.03214785 -37.74484272 3.73186115 -40 3 C-37.95888458 2.51849058 -35.91708068 2.03989917 -33.875 1.5625 C-32.73804688 1.29566406 -31.60109375 1.02882812 -30.4296875 0.75390625 C-20.16531869 -1.50238439 -10.38786514 -1.38504869 0 0 Z " fill="#87C3CC" transform="translate(1312,198)"/>
<path d="M0 0 C2.91722548 -0.08103404 5.83219516 -0.14051081 8.75 -0.1875 C9.575 -0.21263672 10.4 -0.23777344 11.25 -0.26367188 C17.42297754 -0.33834499 17.42297754 -0.33834499 20.578125 1.51171875 C21.28195312 2.24841797 21.28195312 2.24841797 22 3 C17.5621439 4.11165232 13.23043614 4.11527763 8.6875 4.0625 C7.94693359 4.05798828 7.20636719 4.05347656 6.44335938 4.04882812 C4.62887101 4.03712175 2.81442466 4.01918898 1 4 C0.67 2.68 0.34 1.36 0 0 Z " fill="#7A7B7E" transform="translate(1214,377)"/>
<path d="M0 0 C1.32 2.31 2.64 4.62 4 7 C3.34 7 2.68 7 2 7 C0.375 5 0.375 5 -1 3 C-4.00664254 4.34283599 -6.038402 5.81570805 -8.3125 8.1875 C-8.91320312 8.80367187 -9.51390625 9.41984375 -10.1328125 10.0546875 C-10.74898438 10.69664062 -11.36515625 11.33859375 -12 12 C-13.22429826 13.27552413 -14.45331815 14.54653664 -15.6875 15.8125 C-16.22761719 16.37582031 -16.76773437 16.93914062 -17.32421875 17.51953125 C-19.10678279 19.09433724 -20.83600433 20.03350956 -23 21 C-20.70604255 15.7671386 -16.60786659 12.23948265 -12.625 8.25 C-11.85671875 7.45722656 -11.0884375 6.66445312 -10.296875 5.84765625 C-9.55179687 5.09871094 -8.80671875 4.34976563 -8.0390625 3.578125 C-7.02126709 2.54800293 -7.02126709 2.54800293 -5.98291016 1.49707031 C-4 0 -4 0 0 0 Z " fill="#81C3CC" transform="translate(394,216)"/>
<path d="M0 0 C0.66 0 1.32 0 2 0 C2.680625 1.423125 2.680625 1.423125 3.375 2.875 C4.80238254 6.00313679 4.80238254 6.00313679 7 8 C7 8.99 7 9.98 7 11 C-5.87 11 -18.74 11 -32 11 C-32.33 9.35 -32.66 7.7 -33 6 C-32.01 6.495 -32.01 6.495 -31 7 C-31 7.99 -31 8.98 -31 10 C-26.33673618 9.88188019 -21.6736912 9.75764134 -17.01074219 9.62768555 C-15.42387343 9.58432759 -13.83695776 9.54265313 -12.25 9.50268555 C-9.97121021 9.44500368 -7.69265678 9.38130362 -5.4140625 9.31640625 C-4.70255035 9.29969376 -3.99103821 9.28298126 -3.25796509 9.26576233 C0.49660817 9.20278063 0.49660817 9.20278063 4 8 C3.525625 7.4225 3.05125 6.845 2.5625 6.25 C1.0515133 4.07417916 0.45963849 2.57397552 0 0 Z " fill="#9CCAD0" transform="translate(1083,284)"/>
<path d="M0 0 C3.8481003 1.64572843 5.41051735 3.55169405 7.17578125 7.41015625 C10.26273052 17.10990681 8.96637182 27.21689394 7 37 C6.34 37 5.68 37 5 37 C5.15984375 36.17113281 5.3196875 35.34226563 5.484375 34.48828125 C6.92835811 24.71951673 6.79996807 15.18325617 3 6 C3 5.34 3 4.68 3 4 C2.34 4 1.68 4 1 4 C0.67 2.68 0.34 1.36 0 0 Z " fill="#A4B1C6" transform="translate(278,175)"/>
<path d="M0 0 C0.66 0 1.32 0 2 0 C2.53341184 1.57914015 3.05125763 3.16354387 3.5625 4.75 C3.85253906 5.63171875 4.14257812 6.5134375 4.44140625 7.421875 C5.03231003 10.1491232 5.15557673 11.4708132 4 14 C2.29296875 15.265625 2.29296875 15.265625 0.1875 16.25 C-0.49957031 16.58515625 -1.18664063 16.9203125 -1.89453125 17.265625 C-4 18 -4 18 -8 18 C-8 18.66 -8 19.32 -8 20 C-12.95 20.495 -12.95 20.495 -18 21 C-15.39434754 18.39434754 -13.09439099 18.00798672 -9.5625 17 C-5.8712975 15.94419236 -3.2061155 15.13741033 0 13 C0.99 13 1.98 13 3 13 C2.01 8.71 1.02 4.42 0 0 Z " fill="#98CAD1" transform="translate(1170,274)"/>
<path d="M0 0 C0 3.48354205 -0.45035158 3.88427053 -2.6875 6.375 C-3.2340625 6.98601562 -3.780625 7.59703125 -4.34375 8.2265625 C-6.50740593 10.54330729 -8.72807484 12.78947822 -11 15 C-11.556875 15.598125 -12.11375 16.19625 -12.6875 16.8125 C-14 18 -14 18 -16 18 C-14.67946091 14.08603106 -13.1122261 11.77254666 -10.125 8.9375 C-9.44695312 8.28652344 -8.76890625 7.63554687 -8.0703125 6.96484375 C-7.04550781 5.99224609 -7.04550781 5.99224609 -6 5 C-5.29617188 4.27941406 -4.59234375 3.55882812 -3.8671875 2.81640625 C-2 1 -2 1 0 0 Z " fill="#333D5F" transform="translate(273,337)"/>
<path d="M0 0 C5.28 0 10.56 0 16 0 C16 1.32 16 2.64 16 4 C10.72 3.67 5.44 3.34 0 3 C0 2.01 0 1.02 0 0 Z " fill="#808184" transform="translate(694,361)"/>
<path d="M0 0 C1.24546405 2.49092811 0.7767578 3.41080733 0 6 C-0.66 6 -1.32 6 -2 6 C-2 10.95 -2 15.9 -2 21 C-1.34 21 -0.68 21 0 21 C0.66 23.31 1.32 25.62 2 28 C1.01 27.34 0.02 26.68 -1 26 C-1 24.68 -1 23.36 -1 22 C-1.66 22 -2.32 22 -3 22 C-5.12055663 14.56095054 -4.61731644 7.80055491 -1 1 C-0.67 0.67 -0.34 0.34 0 0 Z " fill="#B5B6B7" transform="translate(739,350)"/>
<path d="M0 0 C0.66 0 1.32 0 2 0 C2.33 3.3 2.66 6.6 3 10 C3.66 10 4.32 10 5 10 C5 16.93 5 23.86 5 31 C4.34 31.33 3.68 31.66 3 32 C3.03480469 30.44152344 3.03480469 30.44152344 3.0703125 28.8515625 C3.19278468 20.94308749 2.91487414 13.717966 1 6 C0.65549886 4.00189338 0.31622777 2.00277585 0 0 Z " fill="#99CCCE" transform="translate(1173,221)"/>
<path d="M0 0 C4.95 0 9.9 0 15 0 C15 0.99 15 1.98 15 3 C10.05 3 5.1 3 0 3 C0 2.01 0 1.02 0 0 Z " fill="#717275" transform="translate(1174,346)"/>
<path d="M0 0 C1.19399414 0.02618408 2.38798828 0.05236816 3.61816406 0.0793457 C5.56142578 0.10351562 5.56142578 0.10351562 7.54394531 0.12817383 C8.90724334 0.16994756 10.27052459 0.21227226 11.63378906 0.25512695 C13.01265531 0.28021785 14.39156503 0.30302966 15.77050781 0.32348633 C19.14270262 0.38244078 22.51269647 0.46469525 25.88378906 0.56762695 C25.88378906 0.89762695 25.88378906 1.22762695 25.88378906 1.56762695 C16.64378906 1.56762695 7.40378906 1.56762695 -2.11621094 1.56762695 C-2.44621094 2.55762695 -2.77621094 3.54762695 -3.11621094 4.56762695 C-5.17871094 5.25512695 -5.17871094 5.25512695 -7.11621094 5.56762695 C-4.97642525 2.22131709 -3.99730927 0.7281216 0 0 Z " fill="#89CED6" transform="translate(448.1162109375,116.432373046875)"/>
<path d="M0 0 C0.99 0.33 1.98 0.66 3 1 C3.05423638 2.91635217 3.09289963 4.83314925 3.125 6.75 C3.14820313 7.81734375 3.17140625 8.8846875 3.1953125 9.984375 C3.00487687 12.92470106 2.52670104 14.52361878 1 17 C0.67 17 0.34 17 0 17 C0 11.39 0 5.78 0 0 Z " fill="#375382" transform="translate(286,190)"/>
<path d="M0 0 C0 3 0 3 -2.1875 5.48046875 C-3.115625 6.37378906 -4.04375 7.26710938 -5 8.1875 C-5.928125 9.08855469 -6.85625 9.98960937 -7.8125 10.91796875 C-8.534375 11.60503906 -9.25625 12.29210937 -10 13 C-10.66 12.67 -11.32 12.34 -12 12 C-10.57063361 10.18107883 -9.13123035 8.37004119 -7.6875 6.5625 C-6.48673828 5.04849609 -6.48673828 5.04849609 -5.26171875 3.50390625 C-3 1 -3 1 0 0 Z " fill="#2C3355" transform="translate(248,363)"/>
<path d="M0 0 C0.66 0.33 1.32 0.66 2 1 C0.75457942 2.75326198 -0.49654053 4.50247622 -1.75 6.25 C-2.79414063 7.71179688 -2.79414063 7.71179688 -3.859375 9.203125 C-5.76452299 11.69233296 -7.72684621 13.84971939 -10 16 C-9.52112335 11.23735403 -7.50511358 8.77358348 -4.4375 5.1875 C-3.61121094 4.21167969 -2.78492188 3.23585938 -1.93359375 2.23046875 C-1.29550781 1.49441406 -0.65742188 0.75835937 0 0 Z " fill="#375D75" transform="translate(407,261)"/>
<path d="M0 0 C0.6875 1.6875 0.6875 1.6875 1 4 C0.5153125 4.7321875 0.030625 5.464375 -0.46875 6.21875 C-2.36061264 9.65499031 -2.30546801 11.91955561 -2.1875 15.8125 C-2.16042969 16.97394531 -2.13335938 18.13539063 -2.10546875 19.33203125 C-2.07066406 20.21246094 -2.03585937 21.09289062 -2 22 C-4 20 -4 20 -4.1953125 16.5234375 C-4.18201493 15.14049032 -4.15816232 13.75761346 -4.125 12.375 C-4.11597656 11.66859375 -4.10695313 10.9621875 -4.09765625 10.234375 C-4.07407603 8.48943902 -4.03820461 6.74467705 -4 5 C-3.34 5 -2.68 5 -2 5 C-1.7834375 4.0409375 -1.7834375 4.0409375 -1.5625 3.0625 C-1 1 -1 1 0 0 Z " fill="#AFB0B1" transform="translate(1076,350)"/>
<path d="M0 0 C2.3828125 -0.29296875 2.3828125 -0.29296875 5.125 -0.1875 C6.03507812 -0.16042969 6.94515625 -0.13335937 7.8828125 -0.10546875 C8.58148437 -0.07066406 9.28015625 -0.03585937 10 0 C10 1.32 10 2.64 10 4 C6.04 3.67 2.08 3.34 -2 3 C-1.34 2.01 -0.68 1.02 0 0 Z " fill="#7D7D80" transform="translate(1093,346)"/>
<path d="M0 0 C0.66 0.33 1.32 0.66 2 1 C0.625 3.5 0.625 3.5 -1 6 C-1.66 6 -2.32 6 -3 6 C-3 10.29 -3 14.58 -3 19 C-5 17 -5 17 -5.265625 15.01171875 C-5.22951664 9.64060003 -5.12273808 5.36766939 -1.375 1.1875 C-0.92125 0.795625 -0.4675 0.40375 0 0 Z " fill="#565F7B" transform="translate(835,158)"/>
<path d="M0 0 C0.66 0.33 1.32 0.66 2 1 C0.625 3.5 0.625 3.5 -1 6 C-1.66 6 -2.32 6 -3 6 C-3.2475 6.763125 -3.495 7.52625 -3.75 8.3125 C-5.10995558 11.2364045 -6.31585826 12.30004356 -9 14 C-8.41827275 10.0479482 -6.44842259 7.77904947 -3.9375 4.75 C-3.20402344 3.85796875 -2.47054688 2.9659375 -1.71484375 2.046875 C-1.14894531 1.37140625 -0.58304687 0.6959375 0 0 Z " fill="#345A73" transform="translate(385,289)"/>
<path d="M0 0 C0.66 0.66 1.32 1.32 2 2 C1.04738281 2.06058594 0.09476563 2.12117187 -0.88671875 2.18359375 C-2.14097656 2.26738281 -3.39523437 2.35117188 -4.6875 2.4375 C-5.92886719 2.51871094 -7.17023437 2.59992188 -8.44921875 2.68359375 C-11.38180337 2.94491317 -14.13441617 3.34798379 -17 4 C-12.92123204 -0.93745595 -5.98725896 -0.69400448 0 0 Z " fill="#969CB2" transform="translate(924,215)"/>
<path d="M0 0 C0.66 0 1.32 0 2 0 C2.33 4.29 2.66 8.58 3 13 C3.99 12.67 4.98 12.34 6 12 C5.34 13.65 4.68 15.3 4 17 C3.01 17 2.02 17 1 17 C0.67 11.39 0.34 5.78 0 0 Z " fill="#8F96AA" transform="translate(682,200)"/>
<path d="M0 0 C1.64359518 0.23969096 3.28703456 0.48049708 4.9296875 0.7265625 C6.30509684 0.90822034 7.68651099 1.04922154 9.0703125 1.1484375 C13.9235395 1.53595753 16.50739368 2.61653763 20 6 C18.02 6 16.04 6 14 6 C14 5.01 14 4.02 14 3 C13.32453125 3.02320312 12.6490625 3.04640625 11.953125 3.0703125 C10.61507813 3.09738281 10.61507813 3.09738281 9.25 3.125 C8.36828125 3.14820312 7.4865625 3.17140625 6.578125 3.1953125 C3.8864142 2.99139502 2.30095026 2.36551721 0 1 C0 0.67 0 0.34 0 0 Z " fill="#4C6794" transform="translate(291,116)"/>
<path d="M0 0 C1 2 1 2 0.4375 3.8125 C-1.98725339 7.50234211 -5.16965645 10.37382984 -9.375 11.8125 C-9.91125 11.874375 -10.4475 11.93625 -11 12 C-10.67 11.34 -10.34 10.68 -10 10 C-9.34 10 -8.68 10 -8 10 C-7.67 9.01 -7.34 8.02 -7 7 C-6.34 7 -5.68 7 -5 7 C-4.731875 6.401875 -4.46375 5.80375 -4.1875 5.1875 C-3.01506533 3.02775192 -1.80630718 1.64209744 0 0 Z " fill="#658CA2" transform="translate(340,267)"/>
<path d="M0 0 C2.31 0 4.62 0 7 0 C7 1.65 7 3.3 7 5 C4.69 4.67 2.38 4.34 0 4 C0 2.68 0 1.36 0 0 Z " fill="#7B7B7E" transform="translate(1232,346)"/>
<path d="M0 0 C0.33 0.99 0.66 1.98 1 3 C-0.36328125 5.04296875 -0.36328125 5.04296875 -2.3125 7.1875 C-2.94800781 7.90292969 -3.58351563 8.61835938 -4.23828125 9.35546875 C-6 11 -6 11 -8 11 C-6.52670958 5.99081256 -3.72484762 3.48192278 0 0 Z " fill="#C4D3DB" transform="translate(388,282)"/>
<path d="M0 0 C0.66 0.33 1.32 0.66 2 1 C-3.445 7.435 -3.445 7.435 -9 14 C-9.33 13.01 -9.66 12.02 -10 11 C-9.34 11 -8.68 11 -8 11 C-7.71125 10.401875 -7.4225 9.80375 -7.125 9.1875 C-6 7 -6 7 -4 4 C-3.34 4 -2.68 4 -2 4 C-1.34 2.68 -0.68 1.36 0 0 Z " fill="#5990A6" transform="translate(393,273)"/>
<path d="M0 0 C0.66 0 1.32 0 2 0 C1.9375 1.75 1.9375 1.75 1 4 C-1.32739021 5.47699764 -3.56316435 6.74809501 -6 8 C-6.928125 8.5775 -7.85625 9.155 -8.8125 9.75 C-11 11 -11 11 -13 11 C-13 10.34 -13 9.68 -13 9 C-11.96939453 8.52820313 -11.96939453 8.52820313 -10.91796875 8.046875 C-10.01691406 7.61890625 -9.11585938 7.1909375 -8.1875 6.75 C-7.29417969 6.33234375 -6.40085937 5.9146875 -5.48046875 5.484375 C-2.87924261 3.92773574 -1.73244883 2.43479295 0 0 Z " fill="#778DAC" transform="translate(281,213)"/>
<path d="M0 0 C0.33 0.99 0.66 1.98 1 3 C-0.65234375 5.48046875 -0.65234375 5.48046875 -2.9375 8.1875 C-3.68902344 9.08855469 -4.44054687 9.98960937 -5.21484375 10.91796875 C-5.80394531 11.60503906 -6.39304687 12.29210937 -7 13 C-7.33 12.01 -7.66 11.02 -8 10 C-6.34765625 7.51953125 -6.34765625 7.51953125 -4.0625 4.8125 C-3.31097656 3.91144531 -2.55945313 3.01039063 -1.78515625 2.08203125 C-0.90150391 1.05142578 -0.90150391 1.05142578 0 0 Z " fill="#C4DBDF" transform="translate(405,260)"/>
<path d="M0 0 C5.77807024 -0.2358396 10.51324804 0.13216954 16 2 C16 2.33 16 2.66 16 3 C13.70890403 3.08075665 11.41700733 3.13907731 9.125 3.1875 C7.21074219 3.23970703 7.21074219 3.23970703 5.2578125 3.29296875 C4.18273437 3.19628906 3.10765625 3.09960938 2 3 C1.34 2.01 0.68 1.02 0 0 Z " fill="#404B6E" transform="translate(603,159)"/>
<path d="M0 0 C0.66 0 1.32 0 2 0 C2.33 1.32 2.66 2.64 3 4 C2.01 4.33 1.02 4.66 0 5 C-2.36506843 7.00121175 -2.9893322 7.96799661 -4 11 C-4.66 11 -5.32 11 -6 11 C-4.54997977 6.89160936 -2.6020866 3.49655387 0 0 Z " fill="#B7D4DA" transform="translate(1024,250)"/>
<path d="M0 0 C1.32 0 2.64 0 4 0 C5.32 2.31 6.64 4.62 8 7 C7.34 7 6.68 7 6 7 C4.375 5 4.375 5 3 3 C0.69 3.66 -1.62 4.32 -4 5 C-2.25 2.5 -2.25 2.5 0 0 Z " fill="#8BD1D7" transform="translate(390,216)"/>
<path d="M0 0 C0.33 0.99 0.66 1.98 1 3 C3.01508358 3.73323796 3.01508358 3.73323796 5 4 C4.67 4.66 4.34 5.32 4 6 C2.68 5.67 1.36 5.34 0 5 C-0.28875 5.639375 -0.5775 6.27875 -0.875 6.9375 C-2 9 -2 9 -4 10 C-3.42655063 7.13275314 -3.1385485 6.1385485 -1 4 C-0.3574765 1.93125966 -0.3574765 1.93125966 0 0 Z " fill="#BDD9DD" transform="translate(416,244)"/>
<path d="M0 0 C0.66 0.99 1.32 1.98 2 3 C0.68 4.65 -0.64 6.3 -2 8 C-2.33 7.67 -2.66 7.34 -3 7 C-3.33 7.66 -3.66 8.32 -4 9 C-4.66 8.67 -5.32 8.34 -6 8 C-4.02 5.36 -2.04 2.72 0 0 Z " fill="#A4BECB" transform="translate(372,301)"/>
<path d="M0 0 C-1.66751148 3.94139078 -4.22710649 6.7892812 -7 10 C-7.33 9.01 -7.66 8.02 -8 7 C-6.85546875 5.17578125 -6.85546875 5.17578125 -5.1875 3.3125 C-4.37345703 2.37857422 -4.37345703 2.37857422 -3.54296875 1.42578125 C-2 0 -2 0 0 0 Z " fill="#2E566E" transform="translate(396,278)"/>
<path d="M0 0 C0.66 0.33 1.32 0.66 2 1 C-1.96 4.465 -1.96 4.465 -6 8 C-6.33 7.01 -6.66 6.02 -7 5 C-4.69 3.35 -2.38 1.7 0 0 Z " fill="#66ABB9" transform="translate(373,235)"/>
<path d="M0 0 C0.66 0.33 1.32 0.66 2 1 C0.92807816 2.3218362 -0.15802695 3.63217927 -1.25 4.9375 C-1.85328125 5.66839844 -2.4565625 6.39929688 -3.078125 7.15234375 C-5.10741134 9.10326334 -6.254407 9.61731779 -9 10 C-8.34 9.01 -7.68 8.02 -7 7 C-6.34 7 -5.68 7 -5 7 C-4.67 6.01 -4.34 5.02 -4 4 C-2.70644173 2.62804426 -1.37701298 1.28817344 0 0 Z " fill="#233E6E" transform="translate(322,230)"/>
<path d="M0 0 C0.66 0.33 1.32 0.66 2 1 C-3.14285714 7.57142857 -3.14285714 7.57142857 -7 9 C-5.44499019 5.18315774 -2.96404505 2.80804268 0 0 Z " fill="#4D5772" transform="translate(735,209)"/>
<path d="M0 0 C0.33 0.66 0.66 1.32 1 2 C0.34 2 -0.32 2 -1 2 C-1.2475 2.5775 -1.495 3.155 -1.75 3.75 C-3.16683317 6.3002997 -4.87627537 8.01785701 -7 10 C-6.42562214 6.12294944 -4.57271945 3.88456423 -2 1 C-1.34 0.67 -0.68 0.34 0 0 Z " fill="#376279" transform="translate(417,250)"/>
<path d="M0 0 C0.66 0 1.32 0 2 0 C1.4409112 3.24271506 0.5867822 4.93057424 -2 7 C-2.66 7 -3.32 7 -4 7 C-4 7.99 -4 8.98 -4 10 C-4.66 10 -5.32 10 -6 10 C-5.67 8.68 -5.34 7.36 -5 6 C-4.34 6 -3.68 6 -3 6 C-2.690625 5.38125 -2.38125 4.7625 -2.0625 4.125 C-1.375 2.75 -0.6875 1.375 0 0 Z " fill="#7BB9C2" transform="translate(1223,204)"/>
<path d="M0 0 C2.79872437 2.52788007 4.45773019 4.20411134 5 8 C4.01 8.495 4.01 8.495 3 9 C1.22293791 6.33440687 0.12451727 3.9719385 -1 1 C-0.67 0.67 -0.34 0.34 0 0 Z " fill="#475E87" transform="translate(346,156)"/>
<path d="M0 0 C1 2 1 2 0.3125 5 C-1 8 -1 8 -5 10 C-3.35 6.7 -1.7 3.4 0 0 Z " fill="#A6ACBC" transform="translate(816,267)"/>
<path d="M0 0 C0.66 0.33 1.32 0.66 2 1 C-3.14285714 7.57142857 -3.14285714 7.57142857 -7 9 C-6.67 8.01 -6.34 7.02 -6 6 C-5.34 6 -4.68 6 -4 6 C-3.71125 5.38125 -3.4225 4.7625 -3.125 4.125 C-2 2 -2 2 0 0 Z " fill="#7AB9C4" transform="translate(1100,209)"/>
<path d="M0 0 C-3.6678852 1.96189209 -6.87248551 3.39301257 -11 4 C-7.64918101 0.31409911 -4.96535219 -1.77334007 0 0 Z " fill="#99999B" transform="translate(751,346)"/>
<path d="M0 0 C0.33 0.66 0.66 1.32 1 2 C0.22265625 3.7265625 0.22265625 3.7265625 -0.9375 5.625 C-1.618125 6.73875 -2.29875 7.8525 -3 9 C-3.66 9 -4.32 9 -5 9 C-3.7508258 5.54074837 -2.32472205 2.85306797 0 0 Z " fill="#6FB2BD" transform="translate(1258,248)"/>
</svg>
